<?xml version="1.0" encoding="UTF-8" standalone="no"?>
<!-- Created with Inkscape (http://www.inkscape.org/) -->
<svg id="svg3349" xmlns:rdf="http://www.w3.org/1999/02/22-rdf-syntax-ns#" xmlns="http://www.w3.org/2000/svg" version="1.1" xmlns:cc="http://creativecommons.org/ns#" xmlns:dc="http://purl.org/dc/elements/1.1/" viewBox="0 0 1024 1024">
 <metadata id="metadata3354">
  <rdf:RDF>
   <cc:Work rdf:about="">
    <dc:format>image/svg+xml</dc:format>
    <dc:type rdf:resource="http://purl.org/dc/dcmitype/StillImage"/>
    <dc:title/>
   </cc:Work>
  </rdf:RDF>
 </metadata>
 <g id="layer2">
  <rect id="rect4738" rx="256" ry="256" height="1024" width="1024" y="0" x="0" fill="#eb9f32"/>
 </g>
 <g id="layer1" transform="translate(0 -28.362)">
  <rect id="rect4735" height="564" width="712" y="243.36" x="147" fill="#fff"/>
  <path id="path3338" d="m279.5 948.41c-60.518-6.3643-114.39-39.893-146.79-91.36-14.497-23.028-24.945-53.248-28.167-81.472-0.67344-5.8992-1.0303-86.934-1.0356-235.2-0.009-246.65-0.23381-236.27 5.6381-260.3 5.9152-24.208 17.908-49.475 33.226-70 6.9331-9.2901 23.302-26.337 32.628-33.978 21.531-17.642 49.91-31.878 76.5-38.376 24.03-5.8715 13.64-5.6463 260.5-5.6463s236.47-0.2252 260.5 5.6463c26.59 6.4972 54.969 20.733 76.5 38.376 9.3254 7.6412 25.695 24.688 32.628 33.978 15.318 20.525 27.311 45.792 33.226 70 5.8719 24.031 5.6471 13.65 5.6381 260.3-0.005 148.27-0.3622 229.3-1.0356 235.2-2.5361 22.215-8.3837 42.468-18.038 62.472-10.146 21.024-19.4 34.329-35.403 50.899-29.519 30.567-62.515 48.468-105.83 57.412-10.17 2.1-10.559 2.1036-243.69 2.2603-128.42 0.0863-235.08-0.009-237-0.21113zm253.77-201.25c213.39-20.832 316.77-31.289 317.8-32.145 1.8972-1.5746 1.4975-4.8862-0.76064-6.3014-1.2459-0.78086-85.692 7.1215-319.49 29.898-274.98 26.788-318.04 31.195-319.56 32.709-0.96654 0.9625-1.7574 2.1679-1.7574 2.6786 0 1.6998 3.1135 4.0717 5.3214 4.0539 1.1982-0.01 144.5-13.912 318.45-30.893zm-181.77-21.09c47.025-4.9335 90.173-9.8928 95.885-11.021 42.501-8.3929 73.716-29.511 86.65-58.622 8.8941-20.018 9.2362-48.978 0.84201-71.279-7.4325-19.746-23.461-35.584-44.43-43.902-14.84-5.8865-26.103-7.666-48.545-7.6696l-20.099-0.003 7.0987-2.6192c20.347-7.5073 35.465-16.756 47.727-29.196 13.836-14.038 20.087-29.243 20.009-48.674-0.13048-32.629-18.09-56.573-50.137-66.844-13.91-4.4581-23.301-5.5982-45-5.4632-18.344 0.11416-28.676 1.0112-98.233 8.5288-42.753 4.6207-77.984 8.652-78.291 8.9586-0.30653 0.30652-0.25419 3.516 0.1163 7.1322l0.67361 6.5749 13.117-0.19897c10.654-0.16162 14.007 0.14437 17.857 1.6297 6.493 2.5053 11.162 8.1837 13.151 15.995 0.8652 3.3971 7.7219 64.451 15.237 135.68 15.07 142.82 14.683 136.31 8.5428 143.95-5.1073 6.3564-12.755 9.264-30.367 11.545l-4.6966 0.60819 0.51072 5.1967c0.89237 9.08 1.0359 9.3947 4.1089 9.0102 1.5254-0.19089 41.249-4.3836 88.274-9.317zm24.759-24.349c-8.5468-3.2117-12.583-8.4528-15.2-19.737-1.3495-5.8188-14.862-127.94-14.227-128.58 0.14042-0.14042 9.2356-1.2195 20.211-2.3979 22.745-2.4419 35.246-2.1724 47.956 1.0338 26.296 6.6335 44.24 24.534 51.656 51.53 1.8167 6.6139 2.2102 10.772 2.2709 24 0.0649 14.125-0.20155 16.876-2.2736 23.475-7.9026 25.168-25.845 43.06-49.653 49.514-8.4754 2.2975-35.654 3.0707-40.741 1.159zm-31.76-167.27c0-1.5612-13.056-124.23-13.513-126.97l-0.51623-3.0861 16.265-1.6798c29.351-3.0313 40.84-2.1134 54.282 4.337 18.226 8.7459 28.323 26.444 31.509 55.236 3.1513 28.469-8.0673 50.456-31.527 61.79-10.1 4.8794-20.338 7.4383-37.702 9.4229-14.898 1.7028-18.798 1.899-18.798 0.94571zm234.39 159.62c5.3843-4.95 9.8617-8.9998 9.9498-8.9995 0.088 0.00028 2.5838 0.92172 5.5462 2.0476 12.676 4.8178 20.827 6.1226 41.665 6.6693 22.227 0.58316 32.694-0.53542 48.949-5.2312 34.12-9.8564 61.841-32.597 75.644-62.053 10.325-22.033 12.41-48.671 5.7872-73.954-11.927-45.535-50.045-71.697-97.036-66.601-23.474 2.5459-39.666 9.7659-61.748 27.532-4.5935 3.6958-8.5346 6.5369-8.7578 6.3136-0.22329-0.22329-4.115-35.413-8.6481-78.2l-8.2422-77.794-3.1341-1.495c-3.1023-1.4798-3.2407-1.4281-13.629 5.0929-12.365 7.7616-34.684 19.331-50.487 26.172-10.161 4.398-11.249 5.1176-11.235 7.4349 0.008 1.4111 0.41055 3.1897 0.89361 3.9525 0.48306 0.76277 6.8887 3.6962 14.235 6.5187 13.056 5.0163 13.374 5.2102 14.118 8.6131 0.41915 1.9147 6.3966 56.904 13.283 122.2 11.158 105.8 14.341 139.64 14.429 153.4 0.0241 3.8051 0.30791 4.2299 3.7761 5.6528 2.0625 0.84619 3.9976 1.5822 4.3002 1.6357 0.30262 0.0534 4.9556-3.9528 10.34-8.9028zm64.851-24.012c-3.9922-1.0461-9.3321-2.8192-11.866-3.9402-6.2674-2.7724-17.285-10.756-18.487-13.395-0.5389-1.1838-3.6283-26.902-6.8654-57.152l-5.8856-55 2.6813-2.2548c4.7614-4.004 17.902-10.256 25.805-12.277 18.72-4.7877 37.497-1.2887 52.749 9.8297 11.627 8.4759 23.319 27.765 28.306 46.702 2.3413 8.8891 2.6425 11.944 2.7113 27.5 0.0621 14.041-0.28191 18.785-1.7406 24-5.6178 20.086-18.614 32.266-38.857 36.419-10.069 2.0655-19.571 1.9221-28.551-0.43095zm-431.66-104c6.008-0.56018 12.352-1.2492 14.098-1.5312l3.1745-0.51265-0.55139-5.7188c-0.30327-3.1454-0.85527-6.0573-1.2267-6.471-0.37141-0.41368-7.6268-0.0406-16.123 0.82907-16.099 1.6478-17.967 2.3248-19.361 7.016-0.90103 3.0316 2.8275 7.4071 6.3119 7.4071 1.5146 0 7.6694-0.45833 13.677-1.0185zm44.924-4.4903c7.7-0.79729 14.262-1.459 14.582-1.4704l-1.1287-13.2-30.485 3.3775 1.9207 12.772s7.4111-0.68193 15.111-1.4792zm266.88-26.102 8.8808-0.68565-0.60643-6.4942c-0.33354-3.5718-0.72989-6.5879-0.88078-6.7024-0.22112-0.16783-44.009 4.0957-45.774 4.4569-0.275 0.0563 3.339 1.5634 8.0311 3.3492s10.092 4.2242 12 5.4187c2.233 1.398 4.5378 2.0241 6.4689 1.7574 1.65-0.22788 6.9964-0.72287 11.881-1.1zm258.12-25.254 6-0.63551c-0.42787-4.1326-1.5158-13.233-1.5158-13.233s-8.1342 0.81618-17.484 1.8087c-9.35 0.99251-17.369 1.8316-17.82 1.8646-0.45106 0.033 2.4764 2.2928 5.125 5.8293l4.6951 6.2693 7.5-0.63376c4.125-0.34857 10.2-0.91974 13.5-1.2693zm33.447-4.1619c14.987-1.3315 18.886-2.4052 20.073-5.5273 1.1169-2.9376-0.16593-6.9045-2.5256-7.81-2.4189-0.92821-7.3859-0.35386-21.156 0.95888l-12.338 1.1762c0.35892 4.4441 0.9541 8.4218 1.4878 12.847 0 0 8.1051-1.0806 14.459-1.6451zm-323.56-161.98c172.76-17.048 315.57-31.243 317.35-31.544 3.9045-0.65822 5.5256-4.6199 2.9461-7.1995-1.4284-1.4284-30.337 1.2654-317.88 29.62-173.97 17.155-317.31 31.408-318.54 31.671-4.261 0.91408-3.8195 8.449 0.49502 8.449 0.83345 0 142.87-13.949 315.63-30.997z" fill="#252930"/>
 </g>
</svg>
