<svg xmlns="http://www.w3.org/2000/svg" viewBox="0 0 44.34 44.34"><defs><style>.a{fill:#e1402a;}</style></defs><title>canvas</title><path class="a" d="M28.54.93a6.46,6.46,0,0,1-6.37,5.41A6.46,6.46,0,0,1,15.8.93"/><path class="a" d="M22.17,6.35A6.46,6.46,0,0,0,28.54.93,22.21,22.21,0,0,0,15.8.93,6.46,6.46,0,0,0,22.17,6.35Z"/><path class="a" d="M22.17,38a6.46,6.46,0,0,0-6.37,5.41,22.21,22.21,0,0,0,12.74,0A6.46,6.46,0,0,0,22.17,38Z"/><path class="a" d="M11,11a6.46,6.46,0,0,0,.67-8.33,22.27,22.27,0,0,0-9,9A6.46,6.46,0,0,0,11,11Z"/><path class="a" d="M33.36,33.36a6.46,6.46,0,0,0-.67,8.33,22.26,22.26,0,0,0,9-9A6.46,6.46,0,0,0,33.36,33.36Z"/><path class="a" d="M6.35,22.17A6.46,6.46,0,0,0,.93,15.8a22.2,22.2,0,0,0,0,12.73A6.46,6.46,0,0,0,6.35,22.17Z"/><path class="a" d="M43.41,15.8a6.45,6.45,0,0,0,0,12.74,22.21,22.21,0,0,0,0-12.74Z"/><path class="a" d="M11,33.36a6.46,6.46,0,0,0-8.33-.67,22.26,22.26,0,0,0,9,9A6.46,6.46,0,0,0,11,33.36Z"/><path class="a" d="M33.36,11a6.46,6.46,0,0,0,8.33.67,22.27,22.27,0,0,0-9-9A6.46,6.46,0,0,0,33.36,11Z"/><circle class="a" cx="22.17" cy="10.27" r="2.04"/><circle class="a" cx="22.17" cy="34.17" r="2.04"/><circle class="a" cx="13.72" cy="13.77" r="2.04" transform="translate(-5.72 13.74) rotate(-45.01)"/><circle class="a" cx="30.62" cy="30.67" r="2.04" transform="translate(-12.72 30.64) rotate(-45)"/><circle class="a" cx="10.22" cy="22.22" r="2.04"/><circle class="a" cx="34.12" cy="22.22" r="2.04"/><circle class="a" cx="13.72" cy="30.67" r="2.04" transform="translate(-17.67 18.69) rotate(-45)"/><circle class="a" cx="30.62" cy="13.77" r="2.04" transform="translate(-0.77 25.68) rotate(-44.99)"/></svg>