<svg width="282" height="190" viewBox="0 0 282 190" fill="none" xmlns="http://www.w3.org/2000/svg">
	<path d="M118.907 24.2583H51.6021C49.8139 24.2583 48.3643 25.7079 48.3643 27.4961V125.342C48.3643 127.13 49.8139 128.58 51.6021 128.58H118.907C120.695 128.58 122.145 127.13 122.145 125.342V27.4961C122.145 25.7079 120.695 24.2583 118.907 24.2583Z" fill="white"></path>
	<path d="M118.907 129.088H51.6028C50.6103 129.085 49.6592 128.689 48.9574 127.988C48.2556 127.286 47.8601 126.335 47.8574 125.342V27.4962C47.8574 26.502 48.2517 25.5483 48.9538 24.8443C49.6559 24.1403 50.6085 23.7434 51.6028 23.7407H118.907C119.901 23.7407 120.853 24.1353 121.556 24.8377C122.258 25.5401 122.653 26.4927 122.653 27.4861V125.332C122.654 125.825 122.558 126.313 122.371 126.768C122.183 127.224 121.907 127.638 121.559 127.987C121.211 128.336 120.798 128.613 120.343 128.802C119.888 128.99 119.4 129.088 118.907 129.088V129.088ZM51.6028 24.7557C50.8795 24.7584 50.1865 25.0469 49.6751 25.5584C49.1636 26.0698 48.8751 26.7628 48.8724 27.4861V125.332C48.8751 126.055 49.1636 126.748 49.6751 127.26C50.1865 127.771 50.8795 128.06 51.6028 128.062H118.907C119.632 128.062 120.326 127.775 120.838 127.263C121.35 126.751 121.638 126.056 121.638 125.332V27.4962C121.639 27.1368 121.569 26.7807 121.433 26.4482C121.296 26.1158 121.095 25.8136 120.842 25.559C120.588 25.3044 120.287 25.1024 119.955 24.9645C119.623 24.8267 119.267 24.7557 118.907 24.7557H51.6028Z" fill="#231F20"></path>
	<path d="M54.9615 45.7056L115.547 45.7056V30.7546L54.9615 30.7546V45.7056Z" fill="white"></path>
	<path d="M115.547 46.213H54.9616C54.827 46.213 54.6979 46.1595 54.6027 46.0644C54.5076 45.9692 54.4541 45.8401 54.4541 45.7055V30.7546C54.4541 30.62 54.5076 30.4909 54.6027 30.3957C54.6979 30.3005 54.827 30.2471 54.9616 30.2471H115.547C115.682 30.2471 115.811 30.3005 115.906 30.3957C116.001 30.4909 116.054 30.62 116.054 30.7546V45.7055C116.054 45.8401 116.001 45.9692 115.906 46.0644C115.811 46.1595 115.682 46.213 115.547 46.213ZM55.4691 45.198H115.039V31.2621H55.4691V45.198Z" fill="#D1D3D4"></path>
	<path d="M62.9602 41.3613C64.6867 41.3613 66.0864 39.9616 66.0864 38.2351C66.0864 36.5085 64.6867 35.1089 62.9602 35.1089C61.2336 35.1089 59.834 36.5085 59.834 38.2351C59.834 39.9616 61.2336 41.3613 62.9602 41.3613Z" fill="#D23228"></path>
	<path d="M110.016 36.4286H83.6764C83.5418 36.4286 83.4128 36.3751 83.3176 36.2799C83.2224 36.1848 83.1689 36.0557 83.1689 35.9211C83.1689 35.7865 83.2224 35.6574 83.3176 35.5622C83.4128 35.467 83.5418 35.4136 83.6764 35.4136H110.016C110.15 35.4136 110.279 35.467 110.375 35.5622C110.47 35.6574 110.523 35.7865 110.523 35.9211C110.523 36.0557 110.47 36.1848 110.375 36.2799C110.279 36.3751 110.15 36.4286 110.016 36.4286Z" fill="#D23228"></path>
	<path d="M110.016 41.0467H83.6764C83.5418 41.0467 83.4128 40.9933 83.3176 40.8981C83.2224 40.8029 83.1689 40.6738 83.1689 40.5392C83.1689 40.4046 83.2224 40.2756 83.3176 40.1804C83.4128 40.0852 83.5418 40.0317 83.6764 40.0317H110.016C110.15 40.0317 110.279 40.0852 110.375 40.1804C110.47 40.2756 110.523 40.4046 110.523 40.5392C110.523 40.6738 110.47 40.8029 110.375 40.8981C110.279 40.9933 110.15 41.0467 110.016 41.0467Z" fill="#D23228"></path>
	<path d="M77.9214 41.5847H69.3141C69.1804 41.5821 69.0528 41.5278 68.9582 41.4332C68.8635 41.3386 68.8092 41.211 68.8066 41.0772V35.3932C68.8066 35.2586 68.8601 35.1296 68.9553 35.0344C69.0505 34.9392 69.1795 34.8857 69.3141 34.8857H77.9214C78.0559 34.8857 78.185 34.9392 78.2802 35.0344C78.3754 35.1296 78.4289 35.2586 78.4289 35.3932V41.0772C78.4289 41.2118 78.3754 41.3409 78.2802 41.4361C78.185 41.5313 78.0559 41.5847 77.9214 41.5847ZM69.8014 40.5697H77.3935V35.921H69.8014V40.5697Z" fill="#D23228"></path>
	<path d="M54.9615 63.7622L115.547 63.7622V48.8113L54.9615 48.8113V63.7622Z" fill="white"></path>
	<path d="M115.547 64.2697H54.9616C54.827 64.2697 54.6979 64.2162 54.6027 64.121C54.5076 64.0258 54.4541 63.8968 54.4541 63.7622V48.8112C54.4567 48.6774 54.511 48.5499 54.6056 48.4552C54.7002 48.3606 54.8278 48.3063 54.9616 48.3037H115.547C115.682 48.3037 115.811 48.3572 115.906 48.4524C116.001 48.5475 116.054 48.6766 116.054 48.8112V63.7622C116.054 63.8968 116.001 64.0258 115.906 64.121C115.811 64.2162 115.682 64.2697 115.547 64.2697ZM55.4691 63.2547H115.039V49.3187H55.4691V63.2547Z" fill="#D1D3D4"></path>
	<path d="M62.9602 59.4179C64.6867 59.4179 66.0864 58.0183 66.0864 56.2917C66.0864 54.5652 64.6867 53.1655 62.9602 53.1655C61.2336 53.1655 59.834 54.5652 59.834 56.2917C59.834 58.0183 61.2336 59.4179 62.9602 59.4179Z" fill="#D23228"></path>
	<path d="M110.016 54.4852H83.6764C83.5418 54.4852 83.4128 54.4317 83.3176 54.3366C83.2224 54.2414 83.1689 54.1123 83.1689 53.9777C83.1689 53.8431 83.2224 53.714 83.3176 53.6189C83.4128 53.5237 83.5418 53.4702 83.6764 53.4702H110.016C110.15 53.4702 110.279 53.5237 110.375 53.6189C110.47 53.714 110.523 53.8431 110.523 53.9777C110.523 54.1123 110.47 54.2414 110.375 54.3366C110.279 54.4317 110.15 54.4852 110.016 54.4852Z" fill="#D23228"></path>
	<path d="M110.016 59.1136H83.6764C83.5418 59.1136 83.4128 59.0602 83.3176 58.965C83.2224 58.8698 83.1689 58.7407 83.1689 58.6061C83.1689 58.4715 83.2224 58.3425 83.3176 58.2473C83.4128 58.1521 83.5418 58.0986 83.6764 58.0986H110.016C110.15 58.0986 110.279 58.1521 110.375 58.2473C110.47 58.3425 110.523 58.4715 110.523 58.6061C110.523 58.7407 110.47 58.8698 110.375 58.965C110.279 59.0602 110.15 59.1136 110.016 59.1136Z" fill="#D23228"></path>
	<path d="M77.9214 59.6414H69.3141C69.1804 59.6388 69.0528 59.5845 68.9582 59.4899C68.8635 59.3952 68.8092 59.2677 68.8066 59.1339V53.4499C68.8066 53.3153 68.8601 53.1862 68.9553 53.091C69.0505 52.9959 69.1795 52.9424 69.3141 52.9424H77.9214C78.0559 52.9424 78.185 52.9959 78.2802 53.091C78.3754 53.1862 78.4289 53.3153 78.4289 53.4499V59.1339C78.4289 59.2685 78.3754 59.3976 78.2802 59.4927C78.185 59.5879 78.0559 59.6414 77.9214 59.6414ZM69.8014 58.6264H77.3935V53.9574H69.8014V58.6264Z" fill="#D23228"></path>
	<path d="M54.9615 81.8291L115.547 81.8291V66.8781H54.9615V81.8291Z" fill="white"></path>
	<path d="M115.547 82.3268H54.9616C54.827 82.3268 54.6979 82.2733 54.6027 82.1781C54.5076 82.083 54.4541 81.9539 54.4541 81.8193V66.8683C54.4567 66.7346 54.511 66.607 54.6056 66.5124C54.7002 66.4177 54.8278 66.3634 54.9616 66.3608H115.547C115.682 66.3608 115.811 66.4143 115.906 66.5095C116.001 66.6047 116.054 66.7337 116.054 66.8683V81.8193C116.054 81.9539 116.001 82.083 115.906 82.1781C115.811 82.2733 115.682 82.3268 115.547 82.3268ZM55.4691 81.3118H115.039V67.386H55.4691V81.3118Z" fill="#D1D3D4"></path>
	<path d="M62.9602 77.4751C64.6867 77.4751 66.0864 76.0754 66.0864 74.3489C66.0864 72.6223 64.6867 71.2227 62.9602 71.2227C61.2336 71.2227 59.834 72.6223 59.834 74.3489C59.834 76.0754 61.2336 77.4751 62.9602 77.4751Z" fill="#D23228"></path>
	<path d="M110.016 72.5419H83.6764C83.5418 72.5419 83.4128 72.4884 83.3176 72.3932C83.2224 72.298 83.1689 72.169 83.1689 72.0344C83.1689 71.8998 83.2224 71.7707 83.3176 71.6755C83.4128 71.5803 83.5418 71.5269 83.6764 71.5269H110.016C110.15 71.5269 110.279 71.5803 110.375 71.6755C110.47 71.7707 110.523 71.8998 110.523 72.0344C110.523 72.169 110.47 72.298 110.375 72.3932C110.279 72.4884 110.15 72.5419 110.016 72.5419Z" fill="#D23228"></path>
	<path d="M110.016 77.1703H83.6764C83.5418 77.1703 83.4128 77.1168 83.3176 77.0216C83.2224 76.9265 83.1689 76.7974 83.1689 76.6628C83.1689 76.5282 83.2224 76.3991 83.3176 76.3039C83.4128 76.2087 83.5418 76.1553 83.6764 76.1553H110.016C110.15 76.1553 110.279 76.2087 110.375 76.3039C110.47 76.3991 110.523 76.5282 110.523 76.6628C110.523 76.7974 110.47 76.9265 110.375 77.0216C110.279 77.1168 110.15 77.1703 110.016 77.1703Z" fill="#D23228"></path>
	<path d="M77.9214 77.698H69.3141C69.1804 77.6954 69.0528 77.6411 68.9582 77.5465C68.8635 77.4519 68.8092 77.3243 68.8066 77.1905V71.5065C68.8066 71.3719 68.8601 71.2428 68.9553 71.1477C69.0505 71.0525 69.1795 70.999 69.3141 70.999H77.9214C78.0559 70.999 78.185 71.0525 78.2802 71.1477C78.3754 71.2428 78.4289 71.3719 78.4289 71.5065V77.1905C78.4289 77.3251 78.3754 77.4542 78.2802 77.5494C78.185 77.6446 78.0559 77.698 77.9214 77.698ZM69.8014 76.683H77.3935V72.014H69.8014V76.683Z" fill="#D23228"></path>
	<path d="M54.9615 99.8862L115.547 99.8862V84.9353H54.9615V99.8862Z" fill="white"></path>
	<path d="M115.547 100.383H54.9616C54.827 100.383 54.6979 100.33 54.6027 100.235C54.5076 100.14 54.4541 100.011 54.4541 99.8759V84.925C54.4567 84.7912 54.511 84.6636 54.6056 84.569C54.7002 84.4744 54.8278 84.4201 54.9616 84.4175H115.547C115.682 84.4175 115.811 84.471 115.906 84.5661C116.001 84.6613 116.054 84.7904 116.054 84.925V99.8658C116.056 99.9333 116.044 100 116.019 100.063C115.994 100.126 115.957 100.183 115.909 100.231C115.862 100.279 115.806 100.318 115.744 100.344C115.681 100.37 115.614 100.383 115.547 100.383ZM55.4691 99.3684H115.039V85.4325H55.4691V99.3684Z" fill="#D1D3D4"></path>
	<path d="M62.9602 95.5317C64.6867 95.5317 66.0864 94.132 66.0864 92.4055C66.0864 90.6789 64.6867 89.2793 62.9602 89.2793C61.2336 89.2793 59.834 90.6789 59.834 92.4055C59.834 94.132 61.2336 95.5317 62.9602 95.5317Z" fill="#D23228"></path>
	<path d="M110.016 90.599H83.6764C83.5418 90.599 83.4128 90.5455 83.3176 90.4503C83.2224 90.3552 83.1689 90.2261 83.1689 90.0915C83.1689 89.9569 83.2224 89.8278 83.3176 89.7326C83.4128 89.6375 83.5418 89.584 83.6764 89.584H110.016C110.15 89.584 110.279 89.6375 110.375 89.7326C110.47 89.8278 110.523 89.9569 110.523 90.0915C110.523 90.2261 110.47 90.3552 110.375 90.4503C110.279 90.5455 110.15 90.599 110.016 90.599Z" fill="#D23228"></path>
	<path d="M110.016 95.2274H83.6764C83.5418 95.2274 83.4128 95.1739 83.3176 95.0788C83.2224 94.9836 83.1689 94.8545 83.1689 94.7199C83.1689 94.5853 83.2224 94.4562 83.3176 94.3611C83.4128 94.2659 83.5418 94.2124 83.6764 94.2124H110.016C110.15 94.2124 110.279 94.2659 110.375 94.3611C110.47 94.4562 110.523 94.5853 110.523 94.7199C110.523 94.8545 110.47 94.9836 110.375 95.0788C110.279 95.1739 110.15 95.2274 110.016 95.2274Z" fill="#D23228"></path>
	<path d="M77.9214 95.8059H69.3141C69.1795 95.8059 69.0505 95.7525 68.9553 95.6573C68.8601 95.5621 68.8066 95.433 68.8066 95.2984V89.6144C68.8066 89.4798 68.8601 89.3508 68.9553 89.2556C69.0505 89.1604 69.1795 89.1069 69.3141 89.1069H77.9214C78.0559 89.1069 78.185 89.1604 78.2802 89.2556C78.3754 89.3508 78.4289 89.4798 78.4289 89.6144V95.2984C78.4289 95.433 78.3754 95.5621 78.2802 95.6573C78.185 95.7525 78.0559 95.8059 77.9214 95.8059ZM69.8014 94.7909H77.3935V90.1219H69.8014V94.7909Z" fill="#D23228"></path>
	<path d="M54.9615 117.933L115.547 117.933V102.982H54.9615V117.933Z" fill="white"></path>
	<path d="M115.547 118.45H54.9616C54.8278 118.448 54.7002 118.393 54.6056 118.299C54.511 118.204 54.4567 118.077 54.4541 117.943V102.992C54.4541 102.857 54.5076 102.728 54.6027 102.633C54.6979 102.538 54.827 102.484 54.9616 102.484H115.547C115.682 102.484 115.811 102.538 115.906 102.633C116.001 102.728 116.054 102.857 116.054 102.992V117.943C116.054 118.077 116.001 118.207 115.906 118.302C115.811 118.397 115.682 118.45 115.547 118.45ZM55.4691 117.435H115.039V103.499H55.4691V117.435Z" fill="#D1D3D4"></path>
	<path d="M62.9602 113.589C64.6867 113.589 66.0864 112.189 66.0864 110.463C66.0864 108.736 64.6867 107.336 62.9602 107.336C61.2336 107.336 59.834 108.736 59.834 110.463C59.834 112.189 61.2336 113.589 62.9602 113.589Z" fill="#D23228"></path>
	<path d="M110.016 108.656H83.6764C83.5418 108.656 83.4128 108.602 83.3176 108.507C83.2224 108.412 83.1689 108.283 83.1689 108.148C83.1689 108.014 83.2224 107.884 83.3176 107.789C83.4128 107.694 83.5418 107.641 83.6764 107.641H110.016C110.15 107.641 110.279 107.694 110.375 107.789C110.47 107.884 110.523 108.014 110.523 108.148C110.523 108.283 110.47 108.412 110.375 108.507C110.279 108.602 110.15 108.656 110.016 108.656Z" fill="#D23228"></path>
	<path d="M110.016 113.284H83.6764C83.5418 113.284 83.4128 113.231 83.3176 113.135C83.2224 113.04 83.1689 112.911 83.1689 112.777C83.1689 112.642 83.2224 112.513 83.3176 112.418C83.4128 112.323 83.5418 112.269 83.6764 112.269H110.016C110.15 112.269 110.279 112.323 110.375 112.418C110.47 112.513 110.523 112.642 110.523 112.777C110.523 112.911 110.47 113.04 110.375 113.135C110.279 113.231 110.15 113.284 110.016 113.284Z" fill="#D23228"></path>
	<path d="M77.9214 113.812H69.3141C69.1795 113.812 69.0505 113.758 68.9553 113.663C68.8601 113.568 68.8066 113.439 68.8066 113.304V107.62C68.8066 107.486 68.8601 107.357 68.9553 107.261C69.0505 107.166 69.1795 107.113 69.3141 107.113H77.9214C78.0559 107.113 78.185 107.166 78.2802 107.261C78.3754 107.357 78.4289 107.486 78.4289 107.62V113.304C78.4289 113.439 78.3754 113.568 78.2802 113.663C78.185 113.758 78.0559 113.812 77.9214 113.812ZM69.8014 112.797H77.3935V108.128H69.8014V112.797Z" fill="#D23228"></path>
	<path d="M203.609 102.079C202.594 101.064 201.721 100.292 200.889 99.4701C199.028 97.5543 196.63 96.2483 194.011 95.7245C191.392 95.2008 188.676 95.484 186.222 96.5367C183.754 97.6197 181.69 99.4509 180.32 101.771C178.95 104.092 178.345 106.784 178.589 109.468C178.68 110.787 178.264 111.203 177.046 111.498C172.315 112.674 168.182 115.549 165.435 119.576C162.687 123.603 161.518 128.5 162.148 133.334C162.779 138.168 165.167 142.601 168.856 145.788C172.545 148.975 177.277 150.694 182.152 150.616C209.09 150.616 236.031 150.616 262.976 150.616C264.012 150.613 265.046 150.538 266.072 150.393C270.268 149.753 274.1 147.64 276.88 144.432C279.661 141.225 281.208 137.132 281.244 132.887C281.281 128.642 279.805 124.523 277.08 121.267C274.356 118.012 270.561 115.833 266.376 115.121C264.397 114.827 262.367 114.837 260.357 114.715C263.778 96.8108 251.933 83.7477 239.956 80.5403C233.634 78.7052 226.872 79.1214 220.823 81.7177C211.769 85.5849 206.319 92.6493 203.609 102.079Z" fill="white"></path>
	<path d="M213.556 151.123H182.152C179.366 151.166 176.602 150.636 174.03 149.565C171.459 148.493 169.135 146.904 167.205 144.896C165.274 142.888 163.777 140.504 162.807 137.893C161.837 135.281 161.415 132.498 161.567 129.717C161.772 125.369 163.372 121.204 166.131 117.838C168.89 114.472 172.661 112.085 176.884 111.031C177.899 110.767 178.112 110.533 178.041 109.529C177.79 106.736 178.426 103.935 179.858 101.524C181.291 99.1136 183.446 97.2156 186.019 96.1001C188.565 94.9965 191.387 94.6968 194.108 95.2409C196.828 95.7851 199.318 97.1472 201.244 99.1451C201.792 99.6932 202.36 100.231 202.979 100.83L203.345 101.175C206.298 91.6138 212.114 84.9351 220.6 81.2709C226.857 78.6229 233.839 78.2299 240.354 80.1589C246.869 82.0879 252.511 86.2194 256.318 91.8472C258.528 95.0931 260.074 98.7449 260.865 102.592C261.656 106.438 261.677 110.404 260.926 114.258L262.245 114.319C263.644 114.353 265.04 114.461 266.427 114.644C270.733 115.374 274.637 117.615 277.441 120.963C280.244 124.312 281.763 128.549 281.725 132.916C281.688 137.283 280.095 141.494 277.234 144.793C274.373 148.092 270.43 150.265 266.112 150.92C265.063 151.067 264.005 151.142 262.946 151.144L213.556 151.123ZM191.388 95.9478C189.684 95.9329 187.996 96.2788 186.435 96.9628C184.055 97.9974 182.061 99.7554 180.736 101.987C179.412 104.219 178.824 106.812 179.056 109.397C179.123 109.693 179.124 110.001 179.06 110.298C178.997 110.595 178.869 110.875 178.687 111.118C178.504 111.361 178.271 111.562 178.004 111.706C177.737 111.851 177.441 111.935 177.138 111.954C173.129 112.963 169.551 115.233 166.931 118.429C164.31 121.625 162.786 125.579 162.582 129.707C162.436 132.352 162.835 134.998 163.757 137.482C164.678 139.965 166.101 142.233 167.937 144.142C169.773 146.051 171.983 147.562 174.428 148.58C176.874 149.598 179.503 150.101 182.152 150.057C209.09 150.057 236.031 150.057 262.976 150.057C263.995 150.055 265.012 149.983 266.021 149.844C270.097 149.222 273.818 147.17 276.518 144.054C279.219 140.939 280.722 136.963 280.758 132.841C280.795 128.718 279.363 124.717 276.718 121.554C274.074 118.391 270.39 116.272 266.326 115.578C264.979 115.397 263.624 115.292 262.266 115.263C261.626 115.263 260.987 115.263 260.357 115.172C260.284 115.168 260.212 115.148 260.147 115.113C260.082 115.078 260.025 115.029 259.982 114.969C259.939 114.911 259.909 114.845 259.894 114.776C259.878 114.706 259.877 114.633 259.89 114.563C263.23 97.1354 252.055 84.2449 239.854 80.9766C233.642 79.1906 227.003 79.5992 221.057 82.1337C212.49 85.808 206.948 92.3649 204.126 102.19C204.1 102.272 204.054 102.347 203.992 102.407C203.93 102.467 203.854 102.511 203.771 102.535C203.686 102.559 203.597 102.56 203.511 102.539C203.426 102.517 203.348 102.474 203.284 102.413L202.32 101.49C201.69 100.891 201.122 100.353 200.564 99.7947C199.362 98.5816 197.934 97.6174 196.359 96.9573C194.785 96.2972 193.095 95.9542 191.388 95.9478V95.9478Z" fill="#231F20"></path>
	<path d="M213.992 0.507324H112.168C109.466 0.507324 107.275 2.69768 107.275 5.39962V153.407C107.275 156.109 109.466 158.299 112.168 158.299H213.992C216.694 158.299 218.885 156.109 218.885 153.407V5.39962C218.885 2.69768 216.694 0.507324 213.992 0.507324Z" fill="white"></path>
	<path d="M213.982 158.817H112.167C110.734 158.814 109.361 158.243 108.349 157.229C107.336 156.215 106.768 154.84 106.768 153.407V5.40995C106.768 3.9769 107.336 2.60239 108.349 1.58812C109.361 0.57385 110.734 0.00268865 112.167 0H213.982C215.415 0.00268865 216.789 0.57385 217.801 1.58812C218.813 2.60239 219.382 3.9769 219.382 5.40995V153.407C219.382 154.84 218.813 156.215 217.801 157.229C216.789 158.243 215.415 158.814 213.982 158.817V158.817ZM112.167 1.015C111.004 1.01769 109.888 1.48191 109.066 2.30584C108.244 3.12976 107.783 4.24609 107.783 5.40995V153.407C107.785 154.57 108.248 155.685 109.069 156.508C109.891 157.332 111.004 157.797 112.167 157.802H213.982C215.145 157.797 216.259 157.332 217.08 156.508C217.902 155.685 218.364 154.57 218.367 153.407V5.40995C218.367 4.24609 217.905 3.12976 217.083 2.30584C216.261 1.48191 215.146 1.01769 213.982 1.015H112.167Z" fill="#231F20"></path>
	<path d="M117.252 32.9468L208.896 32.9468V10.3326L117.252 10.3326V32.9468Z" fill="white"></path>
	<path d="M208.897 33.4646H117.253C117.118 33.4646 116.989 33.4112 116.894 33.316C116.799 33.2208 116.745 33.0917 116.745 32.9571V10.3429C116.745 10.2084 116.799 10.0793 116.894 9.98409C116.989 9.88892 117.118 9.83545 117.253 9.83545H208.897C209.032 9.83545 209.161 9.88892 209.256 9.98409C209.351 10.0793 209.404 10.2084 209.404 10.3429V32.9571C209.404 33.0917 209.351 33.2208 209.256 33.316C209.161 33.4112 209.032 33.4646 208.897 33.4646ZM117.76 32.4496H208.389V10.8504H117.76V32.4496Z" fill="#D1D3D4"></path>
	<path d="M129.341 26.3697C131.947 26.3697 134.061 24.2566 134.061 21.6499C134.061 19.0433 131.947 16.9302 129.341 16.9302C126.734 16.9302 124.621 19.0433 124.621 21.6499C124.621 24.2566 126.734 26.3697 129.341 26.3697Z" fill="#D23228"></path>
	<path d="M200.523 18.6659H160.684C160.55 18.6659 160.421 18.6124 160.325 18.5172C160.23 18.4221 160.177 18.293 160.177 18.1584C160.177 18.0238 160.23 17.8947 160.325 17.7995C160.421 17.7043 160.55 17.6509 160.684 17.6509H200.523C200.658 17.6509 200.787 17.7043 200.882 17.7995C200.977 17.8947 201.03 18.0238 201.03 18.1584C201.03 18.293 200.977 18.4221 200.882 18.5172C200.787 18.6124 200.658 18.6659 200.523 18.6659Z" fill="#D23228"></path>
	<path d="M200.523 25.6493H160.684C160.55 25.6493 160.421 25.5958 160.325 25.5006C160.23 25.4055 160.177 25.2764 160.177 25.1418C160.177 25.0072 160.23 24.8781 160.325 24.7829C160.421 24.6877 160.55 24.6343 160.684 24.6343H200.523C200.658 24.6343 200.787 24.6877 200.882 24.7829C200.977 24.8781 201.03 25.0072 201.03 25.1418C201.03 25.2764 200.977 25.4055 200.882 25.5006C200.787 25.5958 200.658 25.6493 200.523 25.6493Z" fill="#D23228"></path>
	<path d="M151.985 26.4509H139.004C138.869 26.4509 138.74 26.3975 138.645 26.3023C138.55 26.2071 138.496 26.078 138.496 25.9434V17.3464C138.496 17.2118 138.55 17.0827 138.645 16.9875C138.74 16.8923 138.869 16.8389 139.004 16.8389H152.026C152.161 16.8389 152.29 16.8923 152.385 16.9875C152.48 17.0827 152.534 17.2118 152.534 17.3464V25.9434C152.534 26.0136 152.519 26.0831 152.491 26.1475C152.463 26.2119 152.422 26.2697 152.371 26.3174C152.319 26.3651 152.258 26.4016 152.192 26.4246C152.126 26.4476 152.055 26.4565 151.985 26.4509ZM139.471 25.4359H151.478V17.8539H139.471V25.4359Z" fill="#D23228"></path>
	<path d="M117.252 60.2607L208.896 60.2607V37.6465L117.252 37.6465V60.2607Z" fill="white"></path>
	<path d="M208.897 60.7781H117.253C117.118 60.7781 116.989 60.7247 116.894 60.6295C116.799 60.5343 116.745 60.4052 116.745 60.2706V37.6564C116.745 37.5218 116.799 37.3927 116.894 37.2976C116.989 37.2024 117.118 37.1489 117.253 37.1489H208.897C209.032 37.1489 209.161 37.2024 209.256 37.2976C209.351 37.3927 209.404 37.5218 209.404 37.6564V60.2808C209.402 60.4136 209.347 60.5401 209.252 60.6331C209.157 60.7261 209.03 60.7782 208.897 60.7781V60.7781ZM117.76 59.7631H208.389V38.1639H117.76V59.7631Z" fill="#D1D3D4"></path>
	<path d="M129.341 53.6832C131.947 53.6832 134.061 51.57 134.061 48.9634C134.061 46.3568 131.947 44.2437 129.341 44.2437C126.734 44.2437 124.621 46.3568 124.621 48.9634C124.621 51.57 126.734 53.6832 129.341 53.6832Z" fill="#D23228"></path>
	<path d="M200.523 45.9691H160.684C160.55 45.9691 160.421 45.9156 160.325 45.8205C160.23 45.7253 160.177 45.5962 160.177 45.4616C160.177 45.327 160.23 45.1979 160.325 45.1027C160.421 45.0076 160.55 44.9541 160.684 44.9541H200.523C200.658 44.9541 200.787 45.0076 200.882 45.1027C200.977 45.1979 201.03 45.327 201.03 45.4616C201.03 45.5962 200.977 45.7253 200.882 45.8205C200.787 45.9156 200.658 45.9691 200.523 45.9691Z" fill="#D23228"></path>
	<path d="M200.523 52.9628H160.684C160.55 52.9628 160.421 52.9093 160.325 52.8141C160.23 52.7189 160.177 52.5899 160.177 52.4553C160.177 52.3207 160.23 52.1916 160.325 52.0964C160.421 52.0012 160.55 51.9478 160.684 51.9478H200.523C200.658 51.9478 200.787 52.0012 200.882 52.0964C200.977 52.1916 201.03 52.3207 201.03 52.4553C201.03 52.5899 200.977 52.7189 200.882 52.8141C200.787 52.9093 200.658 52.9628 200.523 52.9628Z" fill="#D23228"></path>
	<path d="M151.985 53.7644H139.004C138.869 53.7644 138.74 53.7109 138.645 53.6158C138.55 53.5206 138.496 53.3915 138.496 53.2569V44.6598C138.496 44.5252 138.55 44.3962 138.645 44.301C138.74 44.2058 138.869 44.1523 139.004 44.1523H152.026C152.16 44.1549 152.287 44.2092 152.382 44.3039C152.477 44.3985 152.531 44.5261 152.534 44.6598V53.2569C152.534 53.3271 152.519 53.3966 152.491 53.461C152.463 53.5253 152.422 53.5832 152.371 53.6309C152.319 53.6786 152.258 53.7151 152.192 53.7381C152.126 53.761 152.055 53.77 151.985 53.7644ZM139.471 52.7494H151.478V45.1673H139.471V52.7494Z" fill="#D23228"></path>
	<path d="M117.252 87.5845L208.896 87.5845V64.9703L117.252 64.9703V87.5845Z" fill="white"></path>
	<path d="M208.897 88.0921H117.253C117.118 88.0921 116.989 88.0386 116.894 87.9434C116.799 87.8483 116.745 87.7192 116.745 87.5846V64.9704C116.745 64.8358 116.799 64.7067 116.894 64.6115C116.989 64.5164 117.118 64.4629 117.253 64.4629H208.897C209.032 64.4629 209.161 64.5164 209.256 64.6115C209.351 64.7067 209.404 64.8358 209.404 64.9704V87.5846C209.404 87.7192 209.351 87.8483 209.256 87.9434C209.161 88.0386 209.032 88.0921 208.897 88.0921ZM117.76 87.0771H208.389V65.4779H117.76V87.0771Z" fill="#D1D3D4"></path>
	<path d="M129.341 80.9971C131.947 80.9971 134.061 78.884 134.061 76.2774C134.061 73.6707 131.947 71.5576 129.341 71.5576C126.734 71.5576 124.621 73.6707 124.621 76.2774C124.621 78.884 126.734 80.9971 129.341 80.9971Z" fill="#D23228"></path>
	<path d="M200.523 73.2831H160.684C160.55 73.2831 160.421 73.2296 160.325 73.1344C160.23 73.0393 160.177 72.9102 160.177 72.7756C160.177 72.641 160.23 72.5119 160.325 72.4167C160.421 72.3215 160.55 72.2681 160.684 72.2681H200.523C200.658 72.2681 200.787 72.3215 200.882 72.4167C200.977 72.5119 201.03 72.641 201.03 72.7756C201.03 72.9102 200.977 73.0393 200.882 73.1344C200.787 73.2296 200.658 73.2831 200.523 73.2831Z" fill="#D23228"></path>
	<path d="M200.523 80.2865H160.684C160.55 80.2865 160.421 80.233 160.325 80.1378C160.23 80.0427 160.177 79.9136 160.177 79.779C160.177 79.6444 160.23 79.5153 160.325 79.4201C160.421 79.3249 160.55 79.2715 160.684 79.2715H200.523C200.658 79.2715 200.787 79.3249 200.882 79.4201C200.977 79.5153 201.03 79.6444 201.03 79.779C201.03 79.9136 200.977 80.0427 200.882 80.1378C200.787 80.233 200.658 80.2865 200.523 80.2865Z" fill="#D23228"></path>
	<path d="M151.985 81.0784H139.004C138.869 81.0784 138.74 81.0249 138.645 80.9297C138.55 80.8345 138.496 80.7055 138.496 80.5709V71.9738C138.496 71.8392 138.55 71.7101 138.645 71.6149C138.74 71.5198 138.869 71.4663 139.004 71.4663H152.026C152.16 71.4689 152.287 71.5232 152.382 71.6178C152.477 71.7124 152.531 71.84 152.534 71.9738V80.581C152.532 80.6504 152.517 80.7187 152.488 80.7819C152.46 80.8451 152.419 80.9017 152.367 80.9483C152.316 80.9949 152.255 81.0305 152.19 81.0529C152.124 81.0752 152.055 81.0839 151.985 81.0784ZM139.471 80.0634H151.478V72.461H139.471V80.0634Z" fill="#D23228"></path>
	<path d="M117.252 114.898L208.896 114.898V92.2838L117.252 92.2838V114.898Z" fill="white"></path>
	<path d="M208.897 115.406H117.253C117.118 115.406 116.989 115.352 116.894 115.257C116.799 115.162 116.745 115.033 116.745 114.898V92.2839C116.745 92.1493 116.799 92.0202 116.894 91.925C116.989 91.8298 117.118 91.7764 117.253 91.7764H208.897C209.032 91.7764 209.161 91.8298 209.256 91.925C209.351 92.0202 209.404 92.1493 209.404 92.2839V114.898C209.404 115.033 209.351 115.162 209.256 115.257C209.161 115.352 209.032 115.406 208.897 115.406ZM117.76 114.391H208.389V92.7609H117.76V114.391Z" fill="#D1D3D4"></path>
	<path d="M129.341 108.311C131.947 108.311 134.061 106.197 134.061 103.591C134.061 100.984 131.947 98.8711 129.341 98.8711C126.734 98.8711 124.621 100.984 124.621 103.591C124.621 106.197 126.734 108.311 129.341 108.311Z" fill="#D23228"></path>
	<path d="M200.523 100.597H160.684C160.55 100.597 160.421 100.543 160.325 100.448C160.23 100.353 160.177 100.224 160.177 100.089C160.177 99.9544 160.23 99.8254 160.325 99.7302C160.421 99.635 160.55 99.5815 160.684 99.5815H200.523C200.658 99.5815 200.787 99.635 200.882 99.7302C200.977 99.8254 201.03 99.9544 201.03 100.089C201.03 100.224 200.977 100.353 200.882 100.448C200.787 100.543 200.658 100.597 200.523 100.597Z" fill="#D23228"></path>
	<path d="M200.523 107.6H160.684C160.55 107.6 160.421 107.547 160.325 107.451C160.23 107.356 160.177 107.227 160.177 107.092C160.177 106.958 160.23 106.829 160.325 106.734C160.421 106.638 160.55 106.585 160.684 106.585H200.523C200.658 106.585 200.787 106.638 200.882 106.734C200.977 106.829 201.03 106.958 201.03 107.092C201.03 107.227 200.977 107.356 200.882 107.451C200.787 107.547 200.658 107.6 200.523 107.6Z" fill="#D23228"></path>
	<path d="M151.985 108.392H139.004C138.869 108.392 138.74 108.338 138.645 108.243C138.55 108.148 138.496 108.019 138.496 107.884V99.2873C138.496 99.1527 138.55 99.0236 138.645 98.9284C138.74 98.8333 138.869 98.7798 139.004 98.7798H152.026C152.16 98.7824 152.287 98.8367 152.382 98.9313C152.477 99.0259 152.531 99.1535 152.534 99.2873V107.884C152.534 107.955 152.519 108.024 152.491 108.088C152.463 108.153 152.422 108.211 152.371 108.258C152.319 108.306 152.258 108.343 152.192 108.366C152.126 108.388 152.055 108.397 151.985 108.392ZM139.471 107.377H151.478V99.7948H139.471V107.377Z" fill="#D23228"></path>
	<path d="M117.252 142.211H208.896V119.597L117.252 119.597V142.211Z" fill="white"></path>
	<path d="M208.897 142.719H117.253C117.118 142.719 116.989 142.666 116.894 142.57C116.799 142.475 116.745 142.346 116.745 142.212V119.597C116.745 119.463 116.799 119.334 116.894 119.238C116.989 119.143 117.118 119.09 117.253 119.09H208.897C209.032 119.09 209.161 119.143 209.256 119.238C209.351 119.334 209.404 119.463 209.404 119.597V142.212C209.404 142.346 209.351 142.475 209.256 142.57C209.161 142.666 209.032 142.719 208.897 142.719ZM117.76 141.704H208.389V120.105H117.76V141.704Z" fill="#D1D3D4"></path>
	<path d="M129.341 135.624C131.947 135.624 134.061 133.511 134.061 130.904C134.061 128.298 131.947 126.185 129.341 126.185C126.734 126.185 124.621 128.298 124.621 130.904C124.621 133.511 126.734 135.624 129.341 135.624Z" fill="#D23228"></path>
	<path d="M200.523 127.911H160.684C160.55 127.911 160.421 127.857 160.325 127.762C160.23 127.667 160.177 127.538 160.177 127.403C160.177 127.268 160.23 127.139 160.325 127.044C160.421 126.949 160.55 126.896 160.684 126.896H200.523C200.658 126.896 200.787 126.949 200.882 127.044C200.977 127.139 201.03 127.268 201.03 127.403C201.03 127.538 200.977 127.667 200.882 127.762C200.787 127.857 200.658 127.911 200.523 127.911Z" fill="#D23228"></path>
	<path d="M200.523 134.914H160.684C160.55 134.914 160.421 134.86 160.325 134.765C160.23 134.67 160.177 134.541 160.177 134.406C160.177 134.272 160.23 134.143 160.325 134.048C160.421 133.952 160.55 133.899 160.684 133.899H200.523C200.658 133.899 200.787 133.952 200.882 134.048C200.977 134.143 201.03 134.272 201.03 134.406C201.03 134.541 200.977 134.67 200.882 134.765C200.787 134.86 200.658 134.914 200.523 134.914Z" fill="#D23228"></path>
	<path d="M151.985 135.716H139.004C138.869 135.716 138.74 135.662 138.645 135.567C138.55 135.472 138.496 135.343 138.496 135.208V126.611C138.496 126.476 138.55 126.347 138.645 126.252C138.74 126.157 138.869 126.104 139.004 126.104H152.026C152.161 126.104 152.29 126.157 152.385 126.252C152.48 126.347 152.534 126.476 152.534 126.611V135.208C152.532 135.278 152.517 135.347 152.488 135.41C152.46 135.474 152.419 135.531 152.368 135.579C152.316 135.626 152.256 135.663 152.191 135.686C152.125 135.71 152.055 135.72 151.985 135.716ZM139.471 134.701H151.478V127.119H139.471V134.701Z" fill="#D23228"></path>
	<path d="M51.024 113.995C49.7755 112.787 48.7402 111.833 47.7455 110.838C45.5012 108.517 42.6026 106.935 39.4362 106.304C36.2698 105.673 32.9863 106.022 30.0236 107.306C27.0311 108.603 24.5238 110.811 22.8583 113.616C21.1928 116.42 20.4539 119.678 20.7465 122.927C20.8582 124.52 20.3507 125.018 18.8891 125.383C13.1959 126.83 8.23112 130.314 4.93561 135.177C1.6401 140.04 0.242802 145.942 1.00849 151.766C1.77418 157.59 4.64967 162.931 9.09005 166.777C13.5304 170.622 19.2272 172.705 25.1009 172.631C57.6485 172.631 90.203 172.631 122.764 172.631C124.014 172.621 125.262 172.53 126.499 172.357C131.574 171.589 136.209 169.038 139.573 165.162C142.937 161.286 144.811 156.339 144.857 151.206C144.903 146.074 143.12 141.093 139.826 137.157C136.533 133.221 131.945 130.587 126.885 129.727C124.49 129.362 122.033 129.382 119.608 129.23C123.739 107.6 109.458 91.8169 94.943 87.9294C87.3054 85.7273 79.1418 86.2292 71.8315 89.3504C60.8492 94.06 54.3024 102.596 51.024 113.995Z" fill="white"></path>
	<path d="M63.6504 173.149H25.0804C21.7269 173.21 18.3969 172.578 15.299 171.293C12.201 170.008 9.40189 168.096 7.07692 165.679C4.75194 163.262 2.95121 160.39 1.78755 157.245C0.623881 154.099 0.12235 150.747 0.314371 147.398C0.55997 142.166 2.48578 137.152 5.80611 133.1C9.12644 129.048 13.6644 126.175 18.7468 124.906C20.0561 124.571 20.3099 124.246 20.2185 122.967C19.9201 119.616 20.684 116.256 22.4019 113.363C24.1198 110.47 26.7046 108.191 29.79 106.849C32.8436 105.521 36.2301 105.159 39.4955 105.81C42.7609 106.462 45.7493 108.095 48.06 110.493C48.7299 111.153 49.4201 111.802 50.1712 112.523L50.7294 113.061C54.2819 101.449 61.2956 93.319 71.5978 88.9038C79.1386 85.7112 87.5542 85.2371 95.4059 87.5624C103.258 89.8877 110.058 94.8681 114.644 101.652C117.317 105.579 119.183 109.998 120.132 114.652C121.082 119.306 121.097 124.103 120.176 128.763L121.881 128.844C123.578 128.886 125.272 129.015 126.956 129.23C132.143 130.1 136.85 132.793 140.23 136.823C143.61 140.853 145.441 145.957 145.395 151.217C145.348 156.477 143.427 161.547 139.977 165.517C136.526 169.487 131.772 172.096 126.57 172.875C125.309 173.051 124.038 173.146 122.764 173.159L63.6504 173.149ZM36.2454 106.473C34.1675 106.475 32.1133 106.915 30.2163 107.762C27.3261 109.025 24.9064 111.165 23.2998 113.88C21.6931 116.594 20.9809 119.745 21.264 122.886C21.3959 124.916 20.5433 125.495 19.0208 125.88C14.1519 127.097 9.80456 129.85 6.62334 133.731C3.44213 137.612 1.5964 142.416 1.35982 147.429C1.17319 150.641 1.65246 153.856 2.76754 156.874C3.88263 159.892 5.60945 162.647 7.83965 164.966C10.0699 167.284 12.7553 169.117 15.7274 170.349C18.6995 171.581 21.8941 172.185 25.1108 172.124C57.6585 172.124 90.2129 172.124 122.774 172.124C124.004 172.114 125.231 172.022 126.448 171.85C131.395 171.09 135.91 168.595 139.186 164.811C142.462 161.028 144.285 156.202 144.329 151.197C144.373 146.193 142.635 141.336 139.426 137.495C136.217 133.655 131.746 131.081 126.814 130.235C125.178 130.018 123.531 129.893 121.881 129.859L119.577 129.747C119.505 129.742 119.435 129.721 119.372 129.686C119.309 129.651 119.254 129.603 119.211 129.544C119.168 129.487 119.136 129.422 119.119 129.352C119.101 129.282 119.098 129.209 119.11 129.138C123.17 108.016 109.62 92.3954 94.8312 88.4369C87.2922 86.2592 79.2327 86.7503 72.014 89.8274C61.6305 94.2833 54.9214 102.231 51.4907 114.127C51.4665 114.211 51.4212 114.288 51.359 114.35C51.2969 114.412 51.2199 114.458 51.1354 114.482C51.0504 114.503 50.9616 114.502 50.8767 114.481C50.7918 114.46 50.7134 114.418 50.6482 114.36L49.4911 113.254C48.7299 112.523 48.0397 111.873 47.3698 111.224C45.9205 109.74 44.1928 108.557 42.2857 107.742C40.3786 106.927 38.3294 106.496 36.2555 106.473H36.2454Z" fill="#231F20"></path>
	<path d="M181.796 105.144C175.112 102.291 167.648 101.832 160.664 103.845C147.469 107.397 134.355 121.82 138.131 141.593C135.908 141.735 133.665 141.714 131.483 142.049C126.863 142.839 122.674 145.247 119.667 148.843C116.661 152.438 115.032 156.987 115.074 161.674C115.116 166.361 116.824 170.88 119.894 174.422C122.964 177.964 127.194 180.298 131.828 181.005C132.958 181.162 134.097 181.244 135.238 181.249C165.012 181.249 194.785 181.249 224.558 181.249C229.926 181.315 235.132 179.411 239.19 175.896C243.248 172.381 245.876 167.501 246.576 162.178C247.277 156.856 246.001 151.461 242.991 147.017C239.98 142.572 235.445 139.385 230.242 138.06C228.903 137.726 228.436 137.269 228.537 135.817C228.8 132.849 228.124 129.873 226.603 127.31C225.082 124.747 222.794 122.727 220.062 121.536C217.348 120.356 214.339 120.033 211.437 120.609C208.535 121.186 205.878 122.636 203.822 124.764C202.908 125.677 201.964 126.55 200.777 127.647C197.813 117.243 191.784 109.437 181.796 105.144Z" fill="white"></path>
	<path d="M189.52 181.766H135.238C134.073 181.764 132.91 181.679 131.757 181.513C127.002 180.789 122.661 178.397 119.51 174.763C116.359 171.13 114.605 166.493 114.562 161.684C114.52 156.875 116.191 152.207 119.276 148.518C122.362 144.829 126.661 142.36 131.402 141.552C132.93 141.354 134.469 141.235 136.01 141.197L137.532 141.126C136.697 136.867 136.716 132.485 137.587 128.234C138.459 123.983 140.165 119.947 142.607 116.36C146.804 110.151 153.026 105.593 160.211 103.464C167.396 101.335 175.098 101.767 181.999 104.687C191.408 108.747 197.823 116.137 201.071 126.723L201.538 126.287C202.228 125.627 202.847 125.038 203.456 124.429C205.575 122.232 208.314 120.735 211.307 120.136C214.299 119.538 217.403 119.867 220.204 121.08C223.034 122.308 225.406 124.397 226.982 127.05C228.558 129.703 229.258 132.785 228.984 135.858C228.902 136.995 229.126 137.289 230.303 137.573C234.955 138.741 239.107 141.375 242.145 145.086C245.183 148.797 246.946 153.387 247.173 158.178C247.346 161.244 246.885 164.312 245.819 167.192C244.753 170.072 243.105 172.701 240.976 174.915C238.848 177.128 236.287 178.879 233.451 180.058C230.616 181.237 227.568 181.819 224.497 181.766H189.52ZM169.606 103.134C166.629 103.149 163.667 103.555 160.796 104.342C147.296 107.986 134.944 122.196 138.628 141.481C138.645 141.551 138.645 141.624 138.629 141.695C138.614 141.765 138.582 141.831 138.537 141.887C138.493 141.947 138.437 141.996 138.372 142.031C138.307 142.066 138.235 142.086 138.161 142.09L136.05 142.192C134.546 142.225 133.045 142.341 131.554 142.537C127.054 143.308 122.976 145.656 120.05 149.16C117.123 152.663 115.539 157.094 115.58 161.659C115.622 166.224 117.286 170.625 120.276 174.075C123.266 177.525 127.386 179.798 131.899 180.487C133.005 180.646 134.121 180.727 135.238 180.731C165.012 180.731 194.785 180.731 224.558 180.731C227.493 180.785 230.407 180.232 233.117 179.107C235.828 177.982 238.277 176.31 240.312 174.195C242.346 172.079 243.922 169.567 244.94 166.814C245.958 164.061 246.397 161.128 246.229 158.198C246.01 153.624 244.324 149.243 241.421 145.702C238.518 142.161 234.552 139.649 230.11 138.538C228.699 138.192 227.908 137.624 228.08 135.767C228.34 132.902 227.691 130.028 226.224 127.554C224.757 125.079 222.548 123.13 219.91 121.983C217.294 120.848 214.393 120.54 211.598 121.1C208.802 121.661 206.244 123.063 204.268 125.119C203.649 125.728 203.02 126.327 202.33 126.987L201.264 128.002C201.203 128.063 201.126 128.106 201.042 128.127C200.958 128.149 200.87 128.148 200.787 128.124C200.702 128.104 200.624 128.062 200.561 128.001C200.498 127.94 200.454 127.863 200.432 127.779C197.295 116.918 191.175 109.661 181.695 105.591C177.877 103.95 173.762 103.114 169.606 103.134V103.134Z" fill="#231F20"></path>
	<path d="M80.1546 178.062V144.008H86.2242L74.3589 130.945L62.4834 144.008H68.5531V178.062" fill="white"></path>
	<path d="M80.1343 178.569C79.9997 178.569 79.8706 178.516 79.7754 178.42C79.6803 178.325 79.6268 178.196 79.6268 178.061V144.008C79.6294 143.874 79.6837 143.747 79.7783 143.652C79.8729 143.558 80.0005 143.503 80.1343 143.501H85.057L74.3386 131.696L63.6304 143.511H68.5531C68.6877 143.511 68.8168 143.564 68.912 143.66C69.0072 143.755 69.0606 143.884 69.0606 144.018V178.021C69.0606 178.155 69.0072 178.285 68.912 178.38C68.8168 178.475 68.6877 178.528 68.5531 178.528C68.4185 178.528 68.2895 178.475 68.1943 178.38C68.0991 178.285 68.0456 178.155 68.0456 178.021V144.526H62.4834C62.3855 144.527 62.2893 144.5 62.2065 144.448C62.1236 144.395 62.0577 144.32 62.0165 144.232C61.9768 144.141 61.9643 144.041 61.9805 143.944C61.9968 143.847 62.041 143.756 62.1079 143.683L73.9834 130.62C74.0318 130.569 74.09 130.529 74.1546 130.501C74.2191 130.473 74.2887 130.459 74.3589 130.459C74.4292 130.459 74.4987 130.473 74.5633 130.501C74.6279 130.529 74.6861 130.569 74.7345 130.62L86.5998 143.683C86.6679 143.755 86.7129 143.846 86.7292 143.944C86.7455 144.041 86.7322 144.141 86.6912 144.232C86.6501 144.32 86.5841 144.395 86.5013 144.448C86.4184 144.5 86.3222 144.527 86.2243 144.526H80.6621V178.021C80.6679 178.093 80.6584 178.165 80.6342 178.233C80.61 178.3 80.5717 178.362 80.5218 178.414C80.4719 178.466 80.4115 178.506 80.3447 178.533C80.2779 178.56 80.2062 178.572 80.1343 178.569V178.569Z" fill="#231F20"></path>
	<path d="M175.28 141.938V175.991H169.21L181.075 189.064L192.951 175.991H186.881V141.938" fill="white"></path>
	<path d="M181.075 189.572C181.004 189.571 180.934 189.555 180.869 189.525C180.804 189.496 180.747 189.453 180.7 189.399L168.834 176.336C168.766 176.264 168.721 176.174 168.705 176.076C168.689 175.978 168.702 175.878 168.743 175.788C168.784 175.698 168.849 175.621 168.932 175.567C169.015 175.514 169.111 175.484 169.21 175.483H174.772V141.938C174.772 141.803 174.826 141.674 174.921 141.579C175.016 141.484 175.145 141.43 175.28 141.43C175.413 141.433 175.541 141.487 175.636 141.582C175.73 141.676 175.785 141.804 175.787 141.938V175.991C175.787 176.126 175.734 176.255 175.638 176.35C175.543 176.445 175.414 176.498 175.28 176.498H170.357L181.075 188.303L191.784 176.498H186.861C186.726 176.498 186.597 176.445 186.502 176.35C186.407 176.255 186.353 176.126 186.353 175.991V141.938C186.353 141.803 186.407 141.674 186.502 141.579C186.597 141.484 186.726 141.43 186.861 141.43C186.995 141.43 187.124 141.484 187.22 141.579C187.315 141.674 187.368 141.803 187.368 141.938V175.483H192.93C193.029 175.484 193.126 175.514 193.208 175.567C193.291 175.621 193.357 175.698 193.397 175.788C193.436 175.879 193.448 175.978 193.431 176.075C193.415 176.172 193.372 176.263 193.306 176.336L181.431 189.399C181.387 189.451 181.332 189.493 181.271 189.523C181.21 189.553 181.143 189.569 181.075 189.572V189.572Z" fill="#231F20"></path>
</svg>