<svg width="224" height="222" viewBox="0 0 224 222" fill="none" xmlns="http://www.w3.org/2000/svg">
<path d="M79.6706 169.92C66.3661 163.409 52.2329 158.75 37.6646 156.074C45.1755 151.094 45.5998 138.342 46.8578 129.417C50.9073 100.773 79.3208 82.4758 101.414 67.4018C103.275 66.0912 105.203 64.8787 107.191 63.7692C109.536 62.5112 116.064 58.618 117.776 62.2134C119.421 65.6748 115.342 71.9724 113.31 74.5108C114.658 72.502 116.151 70.5939 117.776 68.8013C118.276 68.1316 118.97 67.6324 119.764 67.372C121.252 67.0296 122.674 68.444 122.898 69.9476C123.121 71.4513 122.496 72.9252 121.811 74.3023C120.161 77.5542 118.105 80.5833 115.692 83.3169C117.315 81.4783 123.314 74.5927 123.188 81.5676C123.084 85.9611 121.251 90.1363 118.089 93.1876C119.477 91.9692 120.972 90.878 122.555 89.9271C122.778 89.7521 123.034 89.6252 123.309 89.5547C123.583 89.4843 123.869 89.4717 124.148 89.5177C124.444 89.6614 124.697 89.8785 124.885 90.1483C125.073 90.4181 125.188 90.7315 125.22 91.0586C126.218 95.525 123.731 98.7259 122.034 102.545C120.709 105.522 119.935 108.321 118.245 111.187C112.141 121.564 105.665 131.762 98.6824 141.566C96.881 144.059 79.76 169.964 79.6706 169.92Z" fill="white"/>
<path d="M79.6482 170.299C79.5979 170.297 79.5491 170.282 79.5067 170.255C66.2334 163.757 52.1325 159.109 37.5974 156.439C37.5258 156.424 37.46 156.39 37.4081 156.338C37.3562 156.287 37.3205 156.222 37.3054 156.15C37.2903 156.079 37.2966 156.005 37.3233 155.937C37.3501 155.869 37.3962 155.811 37.456 155.769C43.7759 151.578 45.0041 141.447 45.9942 133.303C46.1579 131.933 46.3143 130.616 46.4929 129.365C50.4084 101.659 77.1396 83.4733 98.6004 68.8534L101.183 67.0966C103.053 65.7772 104.991 64.5572 106.99 63.4416L107.511 63.1588C109.744 61.9529 113.831 59.7122 116.377 60.5385C116.751 60.6513 117.097 60.8423 117.393 61.099C117.688 61.3556 117.925 61.6721 118.089 62.0273C118.974 63.8957 118.349 66.3969 117.307 68.6896C117.352 68.6301 117.404 68.578 117.456 68.5184C118.014 67.7937 118.784 67.2604 119.659 66.9924C120.012 66.9194 120.376 66.9201 120.728 66.9944C121.08 67.0687 121.413 67.215 121.706 67.4241C122.115 67.7097 122.461 68.0742 122.726 68.4962C122.991 68.9181 123.168 69.3889 123.247 69.8806C123.485 71.4736 122.845 73.0145 122.123 74.4512C121.292 76.0879 120.359 77.6716 119.332 79.193C120.448 78.3593 121.49 77.9126 122.309 78.2253C123.128 78.5379 123.59 79.6545 123.552 81.5602C123.484 84.8172 122.478 87.9855 120.657 90.6864C121.215 90.2993 121.773 89.942 122.347 89.5922C122.613 89.3872 122.92 89.2413 123.248 89.1643C123.575 89.0873 123.915 89.0809 124.245 89.1455C124.608 89.3005 124.923 89.5513 125.155 89.8713C125.387 90.1912 125.528 90.5681 125.562 90.9618C126.381 94.6317 124.974 97.4157 123.485 100.364C123.106 101.108 122.741 101.89 122.354 102.686C121.892 103.721 121.49 104.755 121.103 105.76C120.409 107.694 119.555 109.566 118.55 111.358C111.925 122.628 105.523 132.573 98.9726 141.767C98.1017 142.995 93.4864 149.955 89.0201 156.655L82.7969 165.997C80.3032 169.719 79.9087 170.299 79.6482 170.299ZM38.5875 155.873C52.778 158.557 66.5469 163.123 79.5291 169.451C80.3926 168.207 84.4346 162.133 88.3576 156.245C92.8239 149.546 97.4392 142.585 98.325 141.357C104.861 132.179 111.248 122.249 117.865 111.008C118.849 109.247 119.686 107.407 120.366 105.507C120.754 104.502 121.163 103.453 121.632 102.403C121.989 101.592 122.376 100.81 122.771 100.051C124.208 97.2222 125.555 94.5573 124.796 91.1182C124.684 90.6194 124.446 89.9941 123.977 89.8453C123.748 89.8206 123.516 89.8415 123.295 89.9066C123.074 89.9718 122.868 90.0799 122.689 90.2249C121.129 91.1654 119.654 92.2415 118.282 93.4407C118.208 93.5001 118.114 93.529 118.02 93.5215C117.925 93.514 117.837 93.4706 117.773 93.4003C117.709 93.3299 117.675 93.2379 117.677 93.143C117.679 93.0481 117.717 92.9576 117.783 92.8898C119.319 91.4178 120.549 89.6574 121.403 87.7096C122.258 85.7617 122.72 83.6645 122.763 81.5378C122.763 80.0491 122.525 79.1186 122.019 78.9101C121.044 78.5379 119.041 80.0565 116.012 83.4584L115.945 83.5403C115.91 83.5751 115.869 83.6028 115.824 83.6217C115.778 83.6406 115.73 83.6503 115.681 83.6503C115.631 83.6503 115.583 83.6406 115.537 83.6217C115.492 83.6028 115.451 83.5751 115.416 83.5403C115.381 83.5068 115.352 83.4665 115.333 83.4217C115.313 83.3769 115.303 83.3285 115.303 83.2797C115.303 83.2309 115.313 83.1826 115.333 83.1378C115.352 83.093 115.381 83.0526 115.416 83.0192C117.805 80.3113 119.839 77.3094 121.468 74.0865C122.138 72.7614 122.726 71.3471 122.518 69.9625C122.453 69.5721 122.311 69.1986 122.1 68.8637C121.889 68.5288 121.614 68.2394 121.289 68.0122C121.078 67.856 120.836 67.7467 120.58 67.6915C120.323 67.6363 120.057 67.6365 119.801 67.6921C119.086 67.9406 118.461 68.3968 118.007 69.0023C117.069 70.0519 116.161 71.1387 115.312 72.2627C114.411 73.6398 113.659 74.5852 113.57 74.6969C113.509 74.771 113.422 74.8191 113.327 74.8316C113.231 74.844 113.135 74.8198 113.057 74.7639C112.978 74.7084 112.924 74.624 112.908 74.5292C112.891 74.4343 112.912 74.3368 112.967 74.2577C113.548 73.3867 114.158 72.5381 114.791 71.7118C116.711 68.7343 118.558 64.7294 117.419 62.3325C117.3 62.0639 117.125 61.8238 116.905 61.6287C116.685 61.4335 116.426 61.2876 116.146 61.201C113.913 60.4566 109.826 62.6898 107.868 63.7692L107.347 64.0521C105.374 65.1767 103.463 66.4067 101.623 67.7368L99.0396 69.4936C77.683 84.0241 51.1007 102.113 47.2299 129.492C47.0512 130.735 46.8949 132.052 46.7311 133.415C45.7485 141.372 44.5724 151.235 38.5875 155.873Z" fill="#231F20"/>
<path d="M100.393 16.9057L50.0126 29.3081C47.9807 29.8084 46.739 31.8611 47.2392 33.893L73.7613 141.628C74.2615 143.66 76.3143 144.902 78.3462 144.402L128.726 131.999C130.758 131.499 132 129.446 131.5 127.414L104.977 19.679C104.477 17.6471 102.425 16.4054 100.393 16.9057Z" fill="white"/>
<path d="M77.4228 144.893C76.6644 144.89 75.9208 144.682 75.2715 144.29C74.8022 144.009 74.3939 143.637 74.0704 143.196C73.747 142.755 73.515 142.254 73.3882 141.722L46.8729 33.986C46.61 32.915 46.783 31.7834 47.3539 30.8399C47.9247 29.8963 48.8468 29.218 49.9175 28.9539L100.298 16.5523C101.37 16.2892 102.502 16.462 103.447 17.0327C104.392 17.6035 105.072 18.5256 105.338 19.5969L131.853 127.333C132.114 128.406 131.939 129.538 131.367 130.483C130.795 131.427 129.872 132.106 128.801 132.372L78.4203 144.767C78.0942 144.849 77.7592 144.892 77.4228 144.893ZM101.303 17.1776C101.025 17.1766 100.747 17.2091 100.477 17.2744L50.0961 29.6759C49.2169 29.8925 48.4595 30.4493 47.9906 31.224C47.5216 31.9987 47.3793 32.9278 47.595 33.8073L74.1103 141.543C74.3269 142.423 74.8837 143.18 75.6583 143.649C76.433 144.118 77.3621 144.26 78.2416 144.044L128.622 131.65C129.502 131.432 130.26 130.874 130.73 130.098C131.2 129.323 131.344 128.393 131.131 127.512L104.615 19.7755C104.434 19.0342 104.009 18.3752 103.408 17.9042C102.807 17.4332 102.066 17.1773 101.303 17.1776Z" fill="#231F20"/>
<path d="M103.594 27.1496L51.9199 39.8706L73.7266 128.451L125.4 115.73L103.594 27.1496Z" fill="#D23228"/>
<path d="M105.543 125.191L95.7126 127.611C94.4631 127.919 93.6996 129.181 94.0071 130.431L94.9324 134.189C95.24 135.439 96.5023 136.202 97.7518 135.895L107.582 133.475C108.832 133.167 109.595 131.905 109.287 130.655L108.362 126.897C108.055 125.647 106.792 124.884 105.543 125.191Z" fill="white"/>
<path d="M97.1863 136.348C96.5819 136.346 95.9953 136.143 95.5203 135.769C95.0452 135.395 94.7093 134.873 94.5661 134.286L93.6356 130.526C93.476 129.834 93.5949 129.106 93.9667 128.501C94.3385 127.895 94.9334 127.459 95.6231 127.288L105.457 124.869C106.152 124.7 106.887 124.814 107.499 125.185C108.111 125.556 108.552 126.154 108.724 126.849L109.647 130.571C109.818 131.267 109.705 132.002 109.334 132.615C108.963 133.228 108.363 133.668 107.667 133.839L97.8563 136.266C97.6372 136.32 97.4122 136.348 97.1863 136.348ZM106.119 125.502C105.958 125.503 105.799 125.523 105.643 125.561L95.8167 127.981C95.5671 128.041 95.332 128.151 95.125 128.303C94.918 128.455 94.7432 128.646 94.6107 128.866C94.4775 129.088 94.3892 129.333 94.3509 129.589C94.3126 129.844 94.325 130.104 94.3874 130.355L95.3105 134.077C95.3715 134.327 95.4812 134.562 95.6332 134.77C95.7853 134.977 95.9766 135.152 96.1965 135.286C96.4163 135.419 96.6602 135.508 96.9144 135.547C97.1685 135.586 97.4279 135.575 97.6776 135.514L107.504 133.095C107.753 133.033 107.989 132.924 108.196 132.772C108.403 132.62 108.579 132.428 108.712 132.209C108.846 131.989 108.935 131.745 108.974 131.491C109.013 131.236 109.001 130.977 108.94 130.727L108.017 127.005C107.957 126.756 107.847 126.521 107.695 126.314C107.543 126.107 107.351 125.932 107.131 125.799C106.822 125.604 106.463 125.5 106.097 125.502H106.119Z" fill="#E6E7E8"/>
<path d="M66.934 30.8074C66.8535 30.8017 66.7769 30.7705 66.7153 30.7183C66.6537 30.6661 66.6104 30.5956 66.5916 30.5171C66.5794 30.4692 66.5769 30.4193 66.5841 30.3704C66.5914 30.3215 66.6084 30.2746 66.634 30.2323C66.6597 30.19 66.6935 30.1533 66.7335 30.1242C66.7735 30.0952 66.8189 30.0744 66.867 30.063L81.5762 26.4453C81.6236 26.433 81.673 26.4302 81.7215 26.437C81.77 26.4438 81.8167 26.4601 81.8589 26.485C81.9011 26.5099 81.9379 26.5429 81.9673 26.5821C81.9968 26.6212 82.0181 26.6658 82.0303 26.7133C82.0529 26.8099 82.0367 26.9116 81.9852 26.9965C81.9337 27.0814 81.851 27.1427 81.7549 27.1673L67.0457 30.7851L66.934 30.8074Z" fill="#E6E7E8"/>
<path d="M83.7129 26.6762C83.6301 26.6766 83.5496 26.6488 83.4846 26.5974C83.4197 26.546 83.3742 26.474 83.3556 26.3933C83.3328 26.2977 83.3479 26.1969 83.3979 26.1122C83.4479 26.0275 83.5288 25.9655 83.6236 25.9392L85.6037 25.4554C85.7024 25.4317 85.8065 25.4482 85.893 25.5012C85.9796 25.5543 86.0415 25.6396 86.0652 25.7383C86.0889 25.837 86.0724 25.9411 86.0193 26.0276C85.9663 26.1142 85.881 26.1761 85.7823 26.1998L83.8022 26.6911L83.7129 26.6762Z" fill="#E6E7E8"/>
<path d="M109.723 96.7466L79.1052 104.284C76.3946 104.951 74.7382 107.69 75.4055 110.4L75.9464 112.598C76.6137 115.308 79.352 116.965 82.0625 116.297L112.681 108.76C115.391 108.092 117.048 105.354 116.381 102.644L115.84 100.446C115.172 97.7358 112.434 96.0793 109.723 96.7466Z" fill="white"/>
<path d="M80.8393 116.867C79.6278 116.863 78.4523 116.455 77.4999 115.706C76.5475 114.958 75.873 113.912 75.5839 112.735L75.0479 110.502C74.7061 109.105 74.9317 107.63 75.6754 106.4C76.419 105.169 77.6201 104.283 79.0155 103.937L109.64 96.4033C110.331 96.2331 111.049 96.2007 111.753 96.308C112.456 96.4153 113.132 96.6602 113.741 97.0286C114.35 97.3971 114.88 97.8819 115.302 98.4553C115.723 99.0288 116.028 99.6797 116.198 100.371L116.741 102.604C117.083 104 116.857 105.474 116.113 106.703C115.37 107.933 114.169 108.817 112.774 109.162L82.1494 116.673C81.7219 116.789 81.2821 116.854 80.8393 116.867ZM110.943 97.0211C110.564 97.0242 110.186 97.0716 109.819 97.1626L79.1942 104.659C78.597 104.805 78.0346 105.068 77.5391 105.432C77.0436 105.796 76.6249 106.254 76.3068 106.781C75.9887 107.307 75.7776 107.891 75.6855 108.499C75.5933 109.106 75.6221 109.727 75.77 110.323L76.3059 112.557C76.6052 113.761 77.3694 114.797 78.4311 115.439C79.4928 116.081 80.7656 116.275 81.9708 115.981L112.595 108.44C113.799 108.143 114.835 107.38 115.477 106.319C116.119 105.259 116.314 103.987 116.019 102.783L115.476 100.55C115.223 99.5364 114.64 98.6361 113.82 97.9906C112.999 97.345 111.987 96.9909 110.943 96.9839V97.0211Z" fill="#231F20"/>
<path d="M108.504 70.858L68.0703 80.812L69.8586 88.0763L110.293 78.1223L108.504 70.858Z" fill="white"/>
<path d="M73.6262 84.8281C74.321 84.8281 74.8842 84.2648 74.8842 83.57C74.8842 82.8752 74.321 82.312 73.6262 82.312C72.9314 82.312 72.3682 82.8752 72.3682 83.57C72.3682 84.2648 72.9314 84.8281 73.6262 84.8281Z" fill="#D23228"/>
<path d="M78.2414 83.6967C78.9362 83.6967 79.4994 83.1335 79.4994 82.4387C79.4994 81.7439 78.9362 81.1807 78.2414 81.1807C77.5466 81.1807 76.9834 81.7439 76.9834 82.4387C76.9834 83.1335 77.5466 83.6967 78.2414 83.6967Z" fill="#D23228"/>
<path d="M82.8493 82.5576C83.5441 82.5576 84.1074 81.9943 84.1074 81.2995C84.1074 80.6047 83.5441 80.0415 82.8493 80.0415C82.1545 80.0415 81.5913 80.6047 81.5913 81.2995C81.5913 81.9943 82.1545 82.5576 82.8493 82.5576Z" fill="#D23228"/>
<path d="M87.4646 81.426C88.1593 81.426 88.7226 80.8627 88.7226 80.1679C88.7226 79.4731 88.1593 78.9099 87.4646 78.9099C86.7698 78.9099 86.2065 79.4731 86.2065 80.1679C86.2065 80.8627 86.7698 81.426 87.4646 81.426Z" fill="#D23228"/>
<path d="M111.415 82.7042L70.9805 92.6582L72.7688 99.9225L113.203 89.9684L111.415 82.7042Z" fill="white"/>
<path d="M76.5368 96.6713C77.2316 96.6713 77.7949 96.1081 77.7949 95.4133C77.7949 94.7185 77.2316 94.1553 76.5368 94.1553C75.842 94.1553 75.2788 94.7185 75.2788 95.4133C75.2788 96.1081 75.842 96.6713 76.5368 96.6713Z" fill="#D23228"/>
<path d="M81.1521 95.5324C81.8469 95.5324 82.4101 94.9692 82.4101 94.2744C82.4101 93.5796 81.8469 93.0164 81.1521 93.0164C80.4573 93.0164 79.894 93.5796 79.894 94.2744C79.894 94.9692 80.4573 95.5324 81.1521 95.5324Z" fill="#D23228"/>
<path d="M85.7673 94.4011C86.4621 94.4011 87.0253 93.8378 87.0253 93.143C87.0253 92.4482 86.4621 91.885 85.7673 91.885C85.0725 91.885 84.5093 92.4482 84.5093 93.143C84.5093 93.8378 85.0725 94.4011 85.7673 94.4011Z" fill="#D23228"/>
<path d="M90.3752 93.2695C91.07 93.2695 91.6332 92.7062 91.6332 92.0114C91.6332 91.3167 91.07 90.7534 90.3752 90.7534C89.6804 90.7534 89.1172 91.3167 89.1172 92.0114C89.1172 92.7062 89.6804 93.2695 90.3752 93.2695Z" fill="#D23228"/>
<path d="M91.0207 48.6165L73.0371 53.0437L75.861 64.5147L93.8446 60.0876L91.0207 48.6165Z" fill="white"/>
<path d="M77.7578 53.2062C77.6947 53.2049 77.633 53.1869 77.5791 53.1541C77.5031 53.1062 77.4475 53.032 77.4228 52.9456L76.5444 49.3726C76.3877 48.7391 76.3577 48.0809 76.456 47.4357C76.5542 46.7906 76.7789 46.1712 77.1171 45.6131C77.4553 45.055 77.9003 44.5691 78.4267 44.1834C78.9531 43.7977 79.5504 43.5197 80.1845 43.3653C81.4628 43.0507 82.8137 43.2567 83.9402 43.9379C85.0667 44.6191 85.8766 45.7198 86.1917 46.9979L87.0701 50.571C87.0905 50.6578 87.0763 50.7492 87.0304 50.8256C86.9846 50.9021 86.9107 50.9576 86.8245 50.9804L77.8397 53.2136L77.7578 53.2062ZM81.3755 43.9162C81.0296 43.9153 80.6848 43.9553 80.3483 44.0353C79.7994 44.1703 79.2825 44.4123 78.8274 44.7475C78.3722 45.0827 77.9877 45.5044 77.6959 45.9885C77.404 46.4726 77.2106 47.0095 77.1267 47.5685C77.0428 48.1275 77.0701 48.6976 77.2069 49.246L78.0034 52.4916L86.3332 50.437L85.5367 47.1989C85.3126 46.2639 84.7802 45.4315 84.0253 44.836C83.2705 44.2405 82.337 43.9164 81.3755 43.9162Z" fill="white"/>
<path d="M82.9982 56.556C83.9767 56.556 84.7699 55.7628 84.7699 54.7843C84.7699 53.8059 83.9767 53.0127 82.9982 53.0127C82.0198 53.0127 81.2266 53.8059 81.2266 54.7843C81.2266 55.7628 82.0198 56.556 82.9982 56.556Z" fill="#D23228"/>
<path d="M83.559 54.9901L82.5977 55.2268L83.5852 59.2384L84.5466 59.0018L83.559 54.9901Z" fill="#D23228"/>
<path d="M86.7724 71.2874H86.6831H86.5491L86.3035 71.2279C80.5181 70.2695 75.1928 67.4803 71.1104 63.2703C69.178 61.221 67.6052 58.8604 66.458 56.2879C65.8003 54.8579 65.3011 53.3602 64.9692 51.8216C64.9195 51.6381 64.942 51.4425 65.032 51.275C65.122 51.1075 65.2726 50.9808 65.453 50.9209C65.7582 50.7869 66.0858 50.6231 66.4803 50.4072C68.0558 49.6241 69.2727 48.2688 69.8822 46.6183C70.3145 45.4007 70.3354 44.0748 69.9417 42.8442C69.907 42.7551 69.8913 42.6596 69.8958 42.5641C69.9002 42.4685 69.9245 42.375 69.9673 42.2894C70.0101 42.2038 70.0703 42.1282 70.1441 42.0673C70.2179 42.0065 70.3037 41.9617 70.3958 41.936L72.5471 40.9386C73.4627 40.5366 74.3857 40.1272 75.3162 39.7401C77.2443 38.8942 79.2857 38.335 81.3756 38.0801C82.8644 37.9238 84.3532 37.8047 85.8419 37.693L88.1793 37.5143C88.2626 37.4983 88.3481 37.4992 88.431 37.5169C88.5139 37.5345 88.5924 37.5687 88.6618 37.6173C88.7313 37.6659 88.7902 37.728 88.8352 37.7998C88.8802 37.8716 88.9103 37.9517 88.9237 38.0354L89.0056 38.3481C89.0859 38.7144 89.198 39.0731 89.3406 39.42C89.6635 40.162 90.1315 40.8319 90.7169 41.3906C91.3024 41.9492 91.9936 42.3852 92.7499 42.673C93.9538 43.1237 95.2439 43.2967 96.524 43.1792C96.6411 43.1569 96.7616 43.1586 96.8781 43.1844C96.9945 43.2102 97.1045 43.2594 97.2013 43.329C97.2981 43.3987 97.3797 43.4873 97.4412 43.5895C97.5026 43.6917 97.5426 43.8054 97.5587 43.9236C98.2144 46.3268 98.4659 48.8222 98.3031 51.3079C97.916 58.067 95.0724 63.9626 89.8542 68.9501C89.2959 69.4711 88.7079 69.9699 88.1347 70.4388L87.3382 71.1088C87.2947 71.146 87.244 71.1739 87.1893 71.1907L86.832 71.2726L86.7724 71.2874ZM70.6861 42.5762C71.116 43.9575 71.0873 45.4408 70.6042 46.8044C69.9382 48.6218 68.6083 50.1193 66.8823 50.9953C66.5299 51.1979 66.1671 51.3818 65.7954 51.5462C65.7639 51.5571 65.7338 51.5721 65.7061 51.5908C66.0459 53.0889 66.5321 54.55 67.1577 55.953C68.269 58.4507 69.797 60.7413 71.6761 62.7269C75.6492 66.8195 80.8315 69.5281 86.4598 70.4537C86.564 70.4537 86.6608 70.4984 86.7575 70.5207H86.7948H86.9734L87.7178 69.8954C88.2836 69.4265 88.8716 68.9352 89.4076 68.4066C94.4843 63.5979 97.2535 57.8288 97.5959 51.2856C97.7434 48.8813 97.4919 46.4691 96.8515 44.1469C96.8415 44.0857 96.8187 44.0274 96.7845 43.9757C96.7158 43.9612 96.6448 43.9612 96.5761 43.9757C95.1843 44.0981 93.7829 43.9074 92.4745 43.4174C90.7744 42.7558 89.4063 41.4466 88.6706 39.7773C88.5128 39.391 88.3858 38.9927 88.291 38.5863L88.2166 38.3108L85.8792 38.4969C84.435 38.6086 82.9016 38.7277 81.4724 38.884C79.452 39.1332 77.4785 39.6748 75.614 40.4919C74.6909 40.879 73.7753 41.2735 72.8597 41.6755C72.1401 41.9931 71.4181 42.3058 70.6935 42.6134L70.6861 42.5762Z" fill="white"/>
<path d="M45.0566 141.833C45.0566 141.833 50.8703 93.2023 56.565 87.8799C63.3389 81.56 69.5099 77.2723 70.6414 80.8826C71.7729 84.4929 72.8225 90.515 63.5622 97.2592L64.917 109.296C64.917 109.296 74.0358 115.616 69.2866 135.476" fill="white"/>
<path d="M45.0563 142.176H45.0042C44.9145 142.165 44.8329 142.119 44.7771 142.048C44.7213 141.977 44.6959 141.886 44.7064 141.796C44.9446 139.809 50.602 92.9866 56.3264 87.6419C62.8771 81.5304 67.3211 78.7092 69.5245 79.3121C69.8747 79.4086 70.1923 79.5979 70.4439 79.8599C70.6955 80.122 70.8716 80.4471 70.9537 80.8009C73.5219 88.9893 68.5866 94.0139 63.9192 97.4604L65.2368 109.155C66.3831 110.033 74.0951 116.763 69.6064 135.573C69.5968 135.617 69.5784 135.659 69.5525 135.695C69.5265 135.732 69.4935 135.763 69.4553 135.787C69.4171 135.81 69.3745 135.826 69.3302 135.833C69.2858 135.84 69.2405 135.837 69.197 135.826C69.1104 135.804 69.0359 135.748 68.9888 135.672C68.9417 135.596 68.9256 135.505 68.9439 135.417C73.5814 116.003 64.805 109.683 64.7157 109.624C64.6769 109.594 64.6444 109.557 64.6202 109.515C64.5959 109.473 64.5803 109.426 64.5743 109.378L63.2195 97.3413C63.2126 97.2821 63.2214 97.222 63.2449 97.1672C63.2684 97.1124 63.3058 97.0646 63.3535 97.0287C71.981 90.7162 71.6013 85.1184 70.3061 81.0019C70.253 80.7614 70.1367 80.5394 69.9692 80.3589C69.8017 80.1783 69.5891 80.0457 69.3533 79.9747C67.4402 79.4685 62.9813 82.3716 56.7954 88.163C51.2496 93.3365 45.4434 141.417 45.3838 141.901C45.3699 141.978 45.3296 142.047 45.2698 142.098C45.21 142.148 45.1344 142.176 45.0563 142.176Z" fill="#231F20"/>
<path d="M16.1592 174.334L38.4537 147.282L84.5093 167.597L70.939 197.514L16.1592 174.334Z" fill="#231F20"/>
<path d="M187.451 164.776C187.451 164.776 170.122 130.675 157.065 115.311C155.279 113.212 153.008 112.862 151.4 113.949C149.509 115.229 149.435 119.524 149.435 119.524C149.435 119.524 144.477 116.651 142.103 117.246C139.728 117.842 139.453 121.601 139.453 121.601C139.453 121.601 134.16 119.852 132.009 121.735C129.858 123.618 129.776 127.05 129.776 127.05C129.776 127.05 101.868 104.621 98.794 102.723C95.7196 100.825 90.2037 104.212 92.9282 108.172C94.6179 110.644 108.702 124.668 113.258 129.127C117.813 133.586 128.413 145.682 129.634 149.225C130.855 152.769 131.83 156.841 124.595 157.339C117.359 157.838 110.92 159.126 107.749 161.806C104.578 164.485 102.494 168.542 104.079 169.339C105.665 170.135 131.242 167.21 140.956 171.17C150.671 175.13 163.288 189.616 163.288 189.616L187.451 164.776Z" fill="white"/>
<path d="M163.281 190.018C163.229 190.017 163.178 190.005 163.13 189.983C163.083 189.961 163.041 189.93 163.006 189.892C162.879 189.743 150.306 175.428 140.793 171.55C134.138 168.833 119.764 169.391 111.174 169.726C106.521 169.905 104.474 169.972 103.893 169.726C103.684 169.621 103.505 169.464 103.375 169.27C103.245 169.075 103.167 168.85 103.149 168.617C102.948 166.92 104.891 163.764 107.474 161.582C110.37 159.141 116.109 157.615 124.543 157.034C127.111 156.856 128.801 156.201 129.553 155.076C130.528 153.588 129.94 151.481 129.255 149.412C128.108 145.987 117.747 134.085 112.997 129.44C108.248 124.795 94.3279 110.912 92.6456 108.396C92.0805 107.681 91.7972 106.784 91.8494 105.874C91.9015 104.965 92.2855 104.106 92.9285 103.46C94.3131 102.016 97.0226 101.227 99.0102 102.418C101.869 104.167 125.421 123.075 129.456 126.321C129.618 124.478 130.434 122.754 131.756 121.46C133.714 119.762 137.815 120.715 139.2 121.117C139.356 120.038 139.944 117.395 142.073 116.882C144.202 116.368 147.79 118.177 149.152 118.906C149.257 117.634 149.659 114.723 151.252 113.644C153.128 112.371 155.599 112.944 157.408 115.073C170.345 130.288 187.667 164.262 187.846 164.605C187.88 164.675 187.891 164.754 187.879 164.831C187.867 164.908 187.832 164.98 187.779 165.036L163.609 189.907C163.565 189.948 163.514 189.979 163.457 189.999C163.401 190.018 163.34 190.025 163.281 190.018ZM122.689 168.691C129.62 168.691 136.833 169.131 141.061 170.858C150.083 174.535 161.368 186.936 163.296 189.095L186.997 164.709C185.427 161.649 169.095 130.035 156.775 115.579C155.234 113.763 153.157 113.242 151.609 114.284C150.195 115.251 149.83 118.415 149.808 119.561C149.807 119.625 149.789 119.688 149.756 119.743C149.724 119.798 149.677 119.843 149.621 119.874C149.565 119.907 149.501 119.924 149.435 119.924C149.37 119.924 149.306 119.907 149.249 119.874C149.197 119.874 144.396 117.083 142.192 117.641C140.108 118.162 139.833 121.631 139.825 121.661C139.821 121.717 139.804 121.771 139.776 121.82C139.748 121.869 139.709 121.91 139.663 121.942C139.616 121.973 139.563 121.994 139.507 122.002C139.452 122.01 139.395 122.005 139.341 121.988C139.289 121.988 134.22 120.336 132.225 122.055C130.23 123.775 130.118 127.058 130.118 127.095C130.116 127.164 130.094 127.231 130.056 127.289C130.018 127.346 129.965 127.393 129.902 127.422C129.84 127.452 129.771 127.464 129.702 127.456C129.634 127.448 129.569 127.421 129.515 127.378C129.233 127.154 101.616 104.942 98.6008 103.088C96.9333 102.068 94.6257 102.775 93.4496 104.011C92.9232 104.531 92.6095 105.229 92.5696 105.968C92.5297 106.707 92.7664 107.435 93.2337 108.009C94.8862 110.428 108.866 124.385 113.518 128.911C117.784 133.087 128.689 145.384 129.962 149.181C130.706 151.414 131.339 153.759 130.17 155.493C129.27 156.841 127.446 157.593 124.588 157.786C116.317 158.352 110.727 159.826 107.958 162.156C105.375 164.337 103.737 167.27 103.886 168.535C103.887 168.646 103.918 168.754 103.975 168.848C104.033 168.943 104.115 169.02 104.213 169.071C104.638 169.272 107.794 169.146 111.136 169.019C114.479 168.892 118.491 168.691 122.689 168.691Z" fill="#231F20"/>
<path d="M184.935 154.92L149.726 183.639L167.189 209.484L207.84 175.726L184.935 154.92Z" fill="#231F20"/>
<path d="M179.137 34.3284H133.989V67.64H179.137V34.3284Z" fill="white"/>
<path d="M179.136 68.0123H133.989C133.89 68.0123 133.796 67.9731 133.726 67.9033C133.656 67.8335 133.617 67.7388 133.617 67.6401V34.3285C133.617 34.2298 133.656 34.1351 133.726 34.0653C133.796 33.9955 133.89 33.9563 133.989 33.9563H179.136C179.235 33.9563 179.33 33.9955 179.4 34.0653C179.469 34.1351 179.509 34.2298 179.509 34.3285V67.6401C179.509 67.7388 179.469 67.8335 179.4 67.9033C179.33 67.9731 179.235 68.0123 179.136 68.0123ZM134.361 67.2679H178.764V34.7007H134.331L134.361 67.2679Z" fill="#E6E7E8"/>
<path d="M172.035 44.9063C171.903 45.1151 171.757 45.3141 171.596 45.5018L156.001 61.0745C155.922 61.2006 155.812 61.3046 155.682 61.3767C155.552 61.4488 155.405 61.4866 155.257 61.4866C155.108 61.4866 154.961 61.4488 154.831 61.3767C154.701 61.3046 154.591 61.2006 154.512 61.0745L145.758 52.0078C145.647 51.9249 145.558 51.8163 145.499 51.6914C145.439 51.5665 145.411 51.429 145.416 51.2907C145.421 51.1524 145.459 51.0174 145.528 50.8972C145.597 50.7771 145.694 50.6754 145.81 50.6009L148.044 48.6208C148.121 48.5203 148.221 48.439 148.336 48.3831C148.45 48.3271 148.575 48.2981 148.702 48.2981C148.829 48.2981 148.955 48.3271 149.069 48.3831C149.183 48.439 149.283 48.5203 149.361 48.6208L154.572 53.906C154.651 54.0321 154.761 54.1361 154.891 54.2082C155.021 54.2803 155.167 54.3181 155.316 54.3181C155.465 54.3181 155.611 54.2803 155.742 54.2082C155.872 54.1361 155.982 54.0321 156.061 53.906L168.179 41.8468C168.259 41.7286 168.367 41.6318 168.492 41.5648C168.618 41.4979 168.759 41.4629 168.901 41.4629C169.044 41.4629 169.184 41.4979 169.31 41.5648C169.436 41.6318 169.544 41.7286 169.623 41.8468C170.308 42.5391 170.993 43.224 171.671 43.9162C171.824 44.1004 171.966 44.2943 172.095 44.4969L172.035 44.9063Z" fill="#D23228"/>
<path d="M133.587 85.9224C133.495 85.9195 133.406 85.8833 133.338 85.8204C133.269 85.7576 133.226 85.6722 133.215 85.58C133.209 85.4828 133.24 85.3869 133.302 85.3121C133.365 85.2373 133.453 85.1893 133.55 85.178C137.384 84.8207 140.391 83.2724 142.483 80.5851C147.344 74.3471 145.803 63.9107 145.788 63.8065C145.781 63.7581 145.783 63.7087 145.795 63.6612C145.806 63.6137 145.827 63.5689 145.856 63.5295C145.885 63.4901 145.922 63.4568 145.964 63.4315C146.006 63.4062 146.052 63.3895 146.101 63.3822C146.198 63.3693 146.297 63.3946 146.376 63.4529C146.455 63.5112 146.508 63.598 146.525 63.6949C146.592 64.1341 148.133 74.5481 143.071 81.0392C140.838 83.8977 137.659 85.5056 133.617 85.9224H133.587Z" fill="#E6E7E8"/>
<path d="M73.5741 177.445C73.5225 177.456 73.4694 177.456 73.4177 177.445L35.1336 159.58C35.0837 159.564 35.0379 159.537 34.9992 159.501C34.9604 159.466 34.9297 159.422 34.9089 159.374C34.888 159.326 34.8777 159.274 34.8785 159.221C34.8792 159.169 34.8911 159.117 34.9133 159.069C34.9356 159.022 34.9676 158.979 35.0074 158.945C35.0471 158.911 35.0937 158.885 35.1441 158.87C35.1944 158.855 35.2474 158.851 35.2995 158.858C35.3515 158.865 35.4016 158.882 35.4463 158.91L73.7304 176.775C73.7751 176.796 73.8152 176.826 73.8484 176.862C73.8817 176.898 73.9073 176.941 73.924 176.988C73.9406 177.034 73.9478 177.083 73.9453 177.132C73.9427 177.182 73.9304 177.23 73.909 177.274C73.874 177.331 73.8243 177.376 73.7653 177.406C73.7063 177.437 73.6402 177.45 73.5741 177.445Z" fill="white"/>
<path d="M157.132 188.328C157.075 188.328 157.018 188.314 156.966 188.288C156.915 188.263 156.87 188.225 156.835 188.18C156.775 188.101 156.75 188.001 156.764 187.904C156.778 187.806 156.83 187.718 156.909 187.658L187.228 164.508C187.306 164.448 187.405 164.421 187.503 164.434C187.6 164.446 187.689 164.497 187.749 164.575C187.809 164.653 187.836 164.752 187.823 164.849C187.811 164.947 187.76 165.036 187.682 165.096L157.356 188.291C157.287 188.327 157.209 188.341 157.132 188.328Z" fill="white"/>
</svg>
