<svg width="952" height="222" viewBox="0 0 952 222" fill="none" xmlns="http://www.w3.org/2000/svg">
<rect width="952" height="221.572" fill="#F2F0EF"/>
<path d="M541.805 17.6973H510.277V39.1503H541.805V17.6973Z" fill="#D1D3D4"/>
<path d="M440.116 22.7441H407.106V45.9034H440.116V22.7441Z" fill="white"/>
<path d="M440.116 46.3522H407.097C406.978 46.3522 406.864 46.3049 406.779 46.2207C406.695 46.1365 406.648 46.0223 406.648 45.9032V22.7439C406.648 22.6248 406.695 22.5106 406.779 22.4264C406.864 22.3422 406.978 22.2949 407.097 22.2949H440.116C440.235 22.2949 440.349 22.3422 440.434 22.4264C440.518 22.5106 440.565 22.6248 440.565 22.7439V45.9032C440.565 46.0223 440.518 46.1365 440.434 46.2207C440.349 46.3049 440.235 46.3522 440.116 46.3522ZM407.546 45.4542H439.667V23.1929H407.528L407.546 45.4542Z" fill="#231F20"/>
<path d="M556.038 200.429H396.483L415.179 179.596H537.342L556.038 200.429Z" fill="white"/>
<path d="M556.038 200.878H396.483C396.396 200.879 396.311 200.855 396.238 200.809C396.164 200.763 396.106 200.696 396.07 200.618C396.036 200.537 396.025 200.449 396.039 200.363C396.054 200.277 396.092 200.197 396.15 200.133L414.847 179.299C414.887 179.251 414.938 179.212 414.996 179.186C415.053 179.159 415.116 179.146 415.179 179.147H537.306C537.371 179.146 537.434 179.159 537.493 179.186C537.552 179.212 537.605 179.251 537.647 179.299L556.344 200.133C556.4 200.198 556.437 200.279 556.45 200.365C556.463 200.451 556.451 200.538 556.415 200.618C556.382 200.691 556.329 200.754 556.263 200.799C556.196 200.845 556.119 200.872 556.038 200.878ZM397.488 199.98H555.032L537.144 180.044H415.376L397.488 199.98Z" fill="#D1D3D4"/>
<path d="M420.19 183.458L410.024 194.791C409.216 195.689 410.105 196.883 411.587 196.883H540.898C542.38 196.883 543.26 195.689 542.452 194.791L532.349 183.458C532.055 183.162 531.703 182.929 531.315 182.775C530.928 182.62 530.512 182.547 530.095 182.56H422.453C422.034 182.547 421.617 182.62 421.228 182.774C420.839 182.929 420.485 183.162 420.19 183.458Z" fill="white"/>
<path d="M540.943 197.331H411.632C411.191 197.362 410.751 197.264 410.364 197.051C409.977 196.838 409.659 196.517 409.45 196.128C409.327 195.857 409.289 195.555 409.34 195.262C409.392 194.969 409.53 194.698 409.737 194.485L419.858 183.188C420.195 182.844 420.599 182.575 421.046 182.395C421.493 182.216 421.972 182.131 422.453 182.146H530.077C530.557 182.132 531.034 182.217 531.48 182.396C531.925 182.576 532.328 182.845 532.664 183.188L542.829 194.512C543.039 194.723 543.18 194.994 543.232 195.287C543.285 195.581 543.248 195.883 543.125 196.155C542.91 196.538 542.591 196.851 542.205 197.06C541.818 197.268 541.381 197.362 540.943 197.331ZM420.531 183.754L410.357 195.086C410.269 195.172 410.21 195.282 410.186 195.402C410.162 195.522 410.174 195.647 410.222 195.76C410.364 195.989 410.567 196.173 410.808 196.292C411.049 196.411 411.319 196.46 411.587 196.433H540.898C541.166 196.459 541.435 196.41 541.676 196.291C541.918 196.172 542.121 195.988 542.263 195.76C542.312 195.647 542.325 195.521 542.299 195.4C542.273 195.279 542.211 195.17 542.119 195.086L531.954 183.754C531.436 183.264 530.745 182.999 530.032 183.017H422.453C422.099 183.005 421.747 183.064 421.417 183.191C421.087 183.317 420.786 183.509 420.531 183.754Z" fill="#D1D3D4"/>
<path d="M461.893 161.969C458.355 157.785 457.25 154.193 456.765 148.67C456.593 147.506 456.666 146.319 456.981 145.186C457.732 143.477 459.097 142.112 460.806 141.36C463.91 139.749 467.406 139.049 470.891 139.34C474.662 139.645 477.536 141.755 480.831 143.489C483.642 144.97 487.225 146.65 487.961 149.927C488.464 152.136 488.051 163.864 488.051 166.091C488.051 173.724 488.051 188.442 488.051 188.442H462.701L462.431 166.136C462.431 166.136 462.773 163.002 461.893 161.969Z" fill="white"/>
<path d="M488.06 188.919H462.701C462.642 188.92 462.584 188.909 462.53 188.888C462.475 188.866 462.426 188.834 462.384 188.793C462.342 188.752 462.309 188.703 462.286 188.649C462.264 188.595 462.252 188.537 462.252 188.479L461.982 166.181C462.108 164.969 462.099 162.904 461.551 162.257C457.771 157.767 456.774 153.915 456.316 148.706C456.144 147.481 456.226 146.234 456.559 145.043C457.106 143.462 458.462 142.088 460.6 140.966C463.779 139.319 467.358 138.6 470.927 138.891C474.007 139.143 476.44 140.517 479.008 141.971C479.673 142.349 480.346 142.726 481.029 143.094L481.541 143.354C484.235 144.773 487.647 146.542 488.392 149.82C488.797 151.616 488.635 158.935 488.545 163.29C488.545 164.565 488.491 165.58 488.491 166.092C488.491 173.724 488.491 188.434 488.491 188.434C488.489 188.555 488.441 188.67 488.357 188.757C488.283 188.847 488.176 188.905 488.06 188.919ZM463.141 188.021H487.611C487.611 185.506 487.611 172.97 487.611 166.127C487.611 165.607 487.611 164.592 487.665 163.299C487.746 159.24 487.908 151.67 487.539 150.026C486.884 147.153 483.831 145.536 481.146 144.154L480.634 143.884C479.933 143.516 479.26 143.139 478.586 142.762C476.099 141.352 473.746 140.068 470.864 139.789C467.451 139.505 464.027 140.19 460.986 141.765C459.064 142.771 457.852 143.974 457.394 145.357C457.1 146.427 457.03 147.545 457.187 148.644C457.645 153.798 458.579 157.399 462.225 161.691C463.195 162.85 462.898 165.894 462.863 166.235L463.141 188.021Z" fill="#231F20"/>
<path d="M491.868 191.352H459.432L460.537 172.449H490.772L491.868 191.352Z" fill="#231F20"/>
<path d="M491.868 191.8H459.432C459.371 191.8 459.311 191.788 459.255 191.763C459.199 191.738 459.15 191.702 459.109 191.656C459.027 191.565 458.982 191.447 458.983 191.324L460.088 172.412C460.092 172.299 460.141 172.191 460.223 172.113C460.305 172.034 460.414 171.99 460.528 171.99H490.772C490.886 171.992 490.995 172.036 491.078 172.114C491.161 172.193 491.212 172.299 491.221 172.412L492.317 191.315C492.321 191.376 492.312 191.438 492.29 191.495C492.269 191.552 492.235 191.604 492.191 191.647C492.151 191.694 492.102 191.732 492.046 191.759C491.99 191.785 491.929 191.799 491.868 191.8ZM459.908 190.902H491.392L490.35 172.897H460.95L459.908 190.902Z" fill="#231F20"/>
<path d="M509.765 92.2207V124.126C509.765 133.012 506.235 141.534 499.952 147.817C493.668 154.101 485.146 157.631 476.26 157.631C467.375 157.631 458.853 154.101 452.569 147.817C446.286 141.534 442.756 133.012 442.756 124.126V92.2207H454.278V124.126C454.278 127.016 454.847 129.877 455.952 132.546C457.058 135.215 458.679 137.64 460.722 139.683C462.764 141.726 465.19 143.347 467.859 144.453C470.528 145.558 473.389 146.127 476.278 146.127C479.168 146.127 482.029 145.558 484.698 144.453C487.367 143.347 489.792 141.726 491.835 139.683C493.878 137.64 495.499 135.215 496.605 132.546C497.71 129.877 498.279 127.016 498.279 124.126V92.2207H509.765Z" fill="#D23228"/>
<path d="M476.26 158.045C467.259 158.036 458.63 154.455 452.266 148.09C445.902 141.724 442.323 133.093 442.316 124.092V92.2224C442.315 92.1639 442.326 92.1057 442.347 92.0513C442.369 91.9969 442.401 91.9473 442.442 91.9055C442.483 91.8637 442.532 91.8304 442.586 91.8078C442.64 91.7851 442.698 91.7734 442.756 91.7734H454.278C454.397 91.7734 454.511 91.8207 454.595 91.905C454.679 91.9892 454.727 92.1034 454.727 92.2224V124.128C454.727 129.844 456.997 135.326 461.039 139.368C465.081 143.409 470.562 145.68 476.278 145.68C481.994 145.68 487.476 143.409 491.518 139.368C495.56 135.326 497.83 129.844 497.83 124.128V92.2224C497.83 92.1034 497.878 91.9892 497.962 91.905C498.046 91.8207 498.16 91.7734 498.279 91.7734H509.792C509.911 91.7734 510.025 91.8207 510.109 91.905C510.193 91.9892 510.241 92.1034 510.241 92.2224V124.128C510.221 133.129 506.633 141.754 500.263 148.112C493.893 154.471 485.261 158.043 476.26 158.045ZM443.205 92.6714V124.101C443.205 132.868 446.688 141.276 452.887 147.475C459.086 153.674 467.494 157.156 476.26 157.156C485.027 157.156 493.435 153.674 499.634 147.475C505.833 141.276 509.316 132.868 509.316 124.101V92.6714H498.692V124.101C498.692 130.055 496.327 135.765 492.117 139.976C487.907 144.186 482.197 146.551 476.242 146.551C470.288 146.551 464.578 144.186 460.368 139.976C456.158 135.765 453.793 130.055 453.793 124.101V92.6714H443.205Z" fill="#D23228"/>
<path d="M454.278 103.742V92.2207H442.756V103.742H448.521H454.278Z" fill="#231F20"/>
<path d="M454.278 104.166H442.756C442.64 104.166 442.528 104.119 442.445 104.037C442.363 103.954 442.316 103.842 442.316 103.726V92.2224C442.315 92.1639 442.326 92.1057 442.347 92.0513C442.369 91.9969 442.401 91.9473 442.442 91.9055C442.483 91.8637 442.532 91.8304 442.586 91.8078C442.64 91.7851 442.698 91.7734 442.756 91.7734H454.278C454.397 91.7734 454.511 91.8207 454.595 91.905C454.679 91.9892 454.727 92.1034 454.727 92.2224V103.753C454.717 103.865 454.666 103.971 454.583 104.047C454.5 104.124 454.391 104.166 454.278 104.166ZM443.205 103.268H453.829V92.6714H443.205V103.268Z" fill="#231F20"/>
<path d="M509.774 92.2207H498.252V103.751H509.774V92.2207Z" fill="#231F20"/>
<path d="M509.765 104.166H498.225C498.167 104.167 498.109 104.156 498.054 104.135C498 104.113 497.95 104.081 497.908 104.04C497.867 103.999 497.833 103.95 497.811 103.896C497.788 103.842 497.776 103.784 497.776 103.726V92.2224C497.776 92.1034 497.824 91.9892 497.908 91.905C497.992 91.8207 498.106 91.7734 498.225 91.7734H509.738C509.857 91.7734 509.971 91.8207 510.055 91.905C510.139 91.9892 510.187 92.1034 510.187 92.2224V103.753C510.18 103.862 510.133 103.964 510.055 104.041C509.977 104.117 509.874 104.162 509.765 104.166ZM498.692 103.268H509.316V92.6714H498.692V103.268Z" fill="#231F20"/>
<path d="M470.989 136.295C466.428 136.762 461.462 137.875 458.768 141.467C457.421 143.263 456.873 145.867 458.193 147.69C459.675 149.72 462.683 149.899 465.233 149.756C470.41 149.603 475.511 148.469 480.266 146.415C483.615 144.844 487.405 140.129 482.825 137.345C481.631 136.627 479.987 136.717 478.64 136.519C476.109 136.128 473.539 136.053 470.989 136.295Z" fill="white"/>
<path d="M463.949 150.241C461.767 150.241 459.217 149.855 457.834 147.951C456.316 145.868 457.07 142.994 458.408 141.198C461.363 137.256 466.975 136.259 470.98 135.81C473.578 135.561 476.197 135.639 478.775 136.044C479.125 136.089 479.493 136.124 479.861 136.151C480.996 136.161 482.114 136.428 483.13 136.933C485.151 138.145 485.51 139.627 485.456 140.713C485.33 143.219 482.825 145.706 480.526 146.784C476.422 148.705 471.447 149.819 465.26 150.169C464.847 150.223 464.407 150.241 463.949 150.241ZM473.827 136.6C472.888 136.599 471.95 136.647 471.016 136.744C467.218 137.13 461.848 138.082 459.109 141.737C457.959 143.273 457.313 145.706 458.543 147.421C459.962 149.37 463.033 149.433 465.197 149.307C471.214 148.957 476.09 147.879 480.086 146.011C482.169 145.033 484.396 142.779 484.495 140.704C484.499 140.08 484.324 139.468 483.989 138.941C483.655 138.414 483.176 137.994 482.609 137.732C481.708 137.307 480.724 137.086 479.727 137.085L478.586 136.969C477.017 136.731 475.432 136.608 473.845 136.6H473.827Z" fill="#231F20"/>
<path d="M488.051 169.565C488.051 169.565 492.478 142.023 490.548 136.186C489.919 134.265 486.471 137.165 484.971 142.966C484.105 146.095 483.575 149.307 483.391 152.548C483.391 152.548 475.838 152.88 475.659 160.854C475.524 167.05 476.844 168.936 476.844 168.936" fill="white"/>
<path d="M488.051 170.015H487.979C487.921 170.005 487.865 169.984 487.815 169.952C487.764 169.921 487.721 169.88 487.687 169.831C487.652 169.783 487.628 169.728 487.615 169.67C487.602 169.612 487.601 169.553 487.611 169.494C487.611 169.225 492.002 141.998 490.125 136.331C490.027 136.035 489.901 136.044 489.82 136.044C488.922 136.044 486.587 138.522 485.402 143.084C484.557 146.179 484.039 149.355 483.858 152.558C483.858 152.672 483.814 152.781 483.735 152.863C483.656 152.945 483.549 152.993 483.435 152.998C481.427 153.084 479.534 153.959 478.166 155.431C476.798 156.903 476.065 158.855 476.126 160.864C476 166.764 477.212 168.641 477.23 168.659C477.294 168.758 477.317 168.877 477.296 168.992C477.274 169.107 477.209 169.21 477.114 169.279C477.066 169.313 477.012 169.337 476.955 169.35C476.898 169.363 476.839 169.365 476.781 169.355C476.723 169.345 476.668 169.324 476.619 169.292C476.57 169.26 476.527 169.219 476.494 169.171C476.431 169.09 475.093 167.114 475.228 160.846C475.389 153.663 481.343 152.36 482.977 152.145C483.202 149.007 483.728 145.897 484.549 142.86C485.77 138.163 488.231 135.2 489.811 135.146C490.083 135.133 490.35 135.215 490.567 135.38C490.784 135.544 490.936 135.779 490.997 136.044C492.936 141.926 488.698 168.515 488.509 169.638C488.494 169.747 488.438 169.845 488.353 169.915C488.269 169.985 488.161 170.021 488.051 170.015Z" fill="#231F20"/>
<path d="M430.373 59.1494H395.513V82.6589H430.373V59.1494Z" fill="#D1D3D4"/>
<path d="M547.04 47.124H531.873V62.2911H547.04V47.124Z" fill="white"/>
<path d="M547.04 62.7309H531.873C531.754 62.7309 531.64 62.6836 531.556 62.5994C531.472 62.5152 531.424 62.401 531.424 62.2819V47.1238C531.424 47.0047 531.472 46.8905 531.556 46.8063C531.64 46.7221 531.754 46.6748 531.873 46.6748H547.04C547.159 46.6748 547.274 46.7221 547.358 46.8063C547.442 46.8905 547.489 47.0047 547.489 47.1238V62.2819C547.489 62.401 547.442 62.5152 547.358 62.5994C547.274 62.6836 547.159 62.7309 547.04 62.7309ZM532.322 61.8329H546.591V47.5908H532.349L532.322 61.8329Z" fill="#231F20"/>
<path d="M556.038 200.43H396.483V204.902H556.038V200.43Z" fill="white"/>
<path d="M556.038 205.351H396.483C396.364 205.351 396.249 205.304 396.165 205.219C396.081 205.135 396.034 205.021 396.034 204.902V200.412C396.034 200.293 396.081 200.179 396.165 200.094C396.249 200.01 396.364 199.963 396.483 199.963H556.038C556.157 199.963 556.272 200.01 556.356 200.094C556.44 200.179 556.487 200.293 556.487 200.412V204.902C556.487 205.021 556.44 205.135 556.356 205.219C556.272 205.304 556.157 205.351 556.038 205.351ZM396.932 204.453H555.589V200.861H396.932V204.453Z" fill="#D1D3D4"/>
<path d="M502.168 41.8799H469.822V67.5266H502.168V41.8799Z" fill="white"/>
<path d="M502.168 67.9754H469.84C469.722 67.9731 469.609 67.925 469.525 67.8413C469.441 67.7576 469.393 67.6447 469.391 67.5264V41.8797C469.393 41.7613 469.441 41.6484 469.525 41.5647C469.609 41.481 469.722 41.433 469.84 41.4307H502.168C502.287 41.4307 502.401 41.478 502.485 41.5622C502.569 41.6464 502.617 41.7606 502.617 41.8797V67.5264C502.617 67.6454 502.569 67.7596 502.485 67.8439C502.401 67.9281 502.287 67.9754 502.168 67.9754ZM470.271 67.0774H501.701V42.3287H470.271V67.0774Z" fill="#231F20"/>
<path d="M449.42 26.8037H435.15V37.6156H449.42V26.8037Z" fill="#D1D3D4"/>
<path d="M521.717 75.0967H508.471V88.3421H521.717V75.0967Z" fill="#D1D3D4"/>
<path d="M457.439 55.3408H445.971V66.8082H457.439V55.3408Z" fill="white"/>
<path d="M457.439 67.248H445.971C445.852 67.248 445.738 67.2007 445.654 67.1165C445.57 67.0323 445.522 66.9181 445.522 66.799V55.3406C445.522 55.2215 445.57 55.1073 445.654 55.0231C445.738 54.9389 445.852 54.8916 445.971 54.8916H457.439C457.558 54.8916 457.672 54.9389 457.756 55.0231C457.84 55.1073 457.888 55.2215 457.888 55.3406V66.799C457.888 66.9181 457.84 67.0323 457.756 67.1165C457.672 67.2007 457.558 67.248 457.439 67.248ZM446.42 66.35H456.99V55.7896H446.42V66.35Z" fill="#D1D3D4"/>
<path d="M499.142 28.4277H489.048V35.9978H499.142V28.4277Z" fill="white"/>
<path d="M499.123 36.4485H489.048C488.93 36.4462 488.817 36.3982 488.733 36.3145C488.649 36.2308 488.601 36.1179 488.599 35.9996V28.4295C488.599 28.3104 488.646 28.1962 488.73 28.112C488.815 28.0278 488.929 27.9805 489.048 27.9805H499.123C499.242 27.9805 499.357 28.0278 499.441 28.112C499.525 28.1962 499.572 28.3104 499.572 28.4295V35.9996C499.572 36.1186 499.525 36.2328 499.441 36.317C499.357 36.4012 499.242 36.4485 499.123 36.4485ZM489.479 35.5506H498.674V28.8785H489.497L489.479 35.5506Z" fill="#D1D3D4"/>
<path d="M491.93 78.833H486.174V84.5891H491.93V78.833Z" fill="white"/>
<path d="M491.94 85.0469H486.183C486.064 85.0469 485.95 84.9996 485.866 84.9154C485.782 84.8312 485.734 84.717 485.734 84.5979V78.8328C485.734 78.7137 485.782 78.5995 485.866 78.5153C485.95 78.4311 486.064 78.3838 486.183 78.3838H491.94C492.059 78.3838 492.173 78.4311 492.257 78.5153C492.341 78.5995 492.389 78.7137 492.389 78.8328V84.5979C492.389 84.717 492.341 84.8312 492.257 84.9154C492.173 84.9996 492.059 85.0469 491.94 85.0469ZM486.632 84.1489H491.491V79.2818H486.632V84.1489Z" fill="#231F20"/>
<path d="M462.171 81.7148H447.758V88.3331H462.171V81.7148Z" fill="#D1D3D4"/>
<path d="M439.928 77.8887H435.15V82.666H439.928V77.8887Z" fill="white"/>
<path d="M439.919 83.1078H435.15C435.031 83.1078 434.917 83.0604 434.833 82.9762C434.749 82.892 434.701 82.7778 434.701 82.6588V77.8904C434.701 77.7713 434.749 77.6571 434.833 77.5729C434.917 77.4887 435.031 77.4414 435.15 77.4414H439.919C440.038 77.4414 440.152 77.4887 440.236 77.5729C440.32 77.6571 440.368 77.7713 440.368 77.8904V82.6588C440.368 82.7778 440.32 82.892 440.236 82.9762C440.152 83.0604 440.038 83.1078 439.919 83.1078ZM435.599 82.2098H439.47V78.3394H435.599V82.2098Z" fill="#D1D3D4"/>
<path d="M479.691 16H469.822V25.869H479.691V16Z" fill="#D1D3D4"/>
<path d="M523.881 59.1494H515.099V65.9921H523.881V59.1494Z" fill="white"/>
<path d="M523.881 66.4499H515.099C514.98 66.4499 514.865 66.4026 514.781 66.3184C514.697 66.2342 514.65 66.12 514.65 66.0009V59.1492C514.65 59.0301 514.697 58.9159 514.781 58.8317C514.865 58.7475 514.98 58.7002 515.099 58.7002H523.881C524 58.7002 524.114 58.7475 524.199 58.8317C524.283 58.9159 524.33 59.0301 524.33 59.1492V65.9919C524.331 66.0516 524.321 66.111 524.298 66.1665C524.276 66.222 524.244 66.2726 524.202 66.3152C524.16 66.3579 524.11 66.3917 524.055 66.4149C524 66.438 523.941 66.4499 523.881 66.4499ZM515.548 65.5519H523.432V59.5982H515.548V65.5519Z" fill="#D1D3D4"/>
</svg>
