<svg width="241" height='0' viewBox="0 0 241 200" fill="none"
    xmlns="http://www.w3.org/2000/svg">
    <g clip-path="url(#clip0_1907_47653)">
        <path d="M30.6152 130.945V136.519L98.952 199.567L239.715 151.357V145.853L30.6152 130.945Z" fill="black"/>
        <path d="M98.9258 200.002C98.8176 200.002 98.7132 199.962 98.6325 199.89L30.3216 136.842C30.2785 136.801 30.2441 136.751 30.2204 136.696C30.1967 136.642 30.1842 136.583 30.1836 136.523V130.95C30.1844 130.891 30.197 130.834 30.2207 130.78C30.2445 130.727 30.2788 130.679 30.3216 130.639C30.3621 130.596 30.4122 130.564 30.4677 130.544C30.5232 130.525 30.5826 130.519 30.6408 130.527L239.74 145.426C239.85 145.433 239.954 145.481 240.029 145.561C240.104 145.642 240.146 145.747 240.146 145.858V151.362C240.144 151.451 240.115 151.538 240.063 151.61C240.01 151.683 239.937 151.737 239.853 151.767L99.0898 199.977L98.9258 200.002ZM31.0204 136.333L99.0294 199.079L239.257 151.051V146.263L31.0463 131.415L31.0204 136.333Z" fill="black"/>
        <path d="M30.6149 130.943L1.27344 30.1766L146.083 0.429688L166.719 89.0924L30.6149 130.943Z" fill="white"/>
        <path d="M30.6156 131.379C30.5434 131.378 30.4725 131.36 30.4085 131.327C30.358 131.3 30.3136 131.264 30.2779 131.219C30.2423 131.174 30.2163 131.123 30.2014 131.068L0.868655 30.3012C0.852222 30.2452 0.84757 30.1863 0.854994 30.1284C0.862418 30.0705 0.881757 30.0148 0.911791 29.9647C0.943212 29.9131 0.984552 29.8682 1.03342 29.8327C1.08229 29.7971 1.13771 29.7716 1.19649 29.7577L145.997 0.0107504C146.052 -0.00189427 146.109 -0.0034007 146.164 0.0063174C146.22 0.0160355 146.273 0.0367834 146.321 0.0673368C146.368 0.0978902 146.409 0.137632 146.441 0.184218C146.473 0.230805 146.495 0.283292 146.506 0.338588L167.142 88.9926C167.169 89.099 167.153 89.2115 167.099 89.3064C167.044 89.4014 166.954 89.4714 166.849 89.5016L30.7708 131.361C30.7212 131.379 30.668 131.385 30.6156 131.379ZM1.81766 30.5169L30.9089 130.412L166.219 88.7856L145.755 0.9425L1.81766 30.5169Z" fill="black"/>
        <path d="M34.8257 122.672L8.71094 35.6574L140.924 7.4375L159.887 86.0149L34.8257 122.672Z" fill="white"/>
        <path d="M34.834 123.104C34.7403 123.106 34.6488 123.076 34.5739 123.02C34.4989 122.964 34.4448 122.884 34.4199 122.794L8.33961 35.7788C8.31657 35.7257 8.30469 35.6685 8.30469 35.6106C8.30469 35.5527 8.31657 35.4955 8.33961 35.4424C8.37025 35.3901 8.41136 35.3448 8.46035 35.3091C8.50934 35.2735 8.56516 35.2484 8.62431 35.2353L140.838 7.01545C140.948 6.99456 141.063 7.01691 141.157 7.0779C141.252 7.13889 141.32 7.23387 141.347 7.34328L160.327 85.912C160.354 86.0195 160.338 86.1331 160.283 86.2295C160.229 86.3259 160.139 86.3975 160.033 86.4297L34.9375 123.087L34.834 123.104ZM9.26273 35.9859L35.1446 122.138L159.378 85.7136L140.605 7.9472L9.26273 35.9859Z" fill="black"/>
        <path d="M166.719 89.0938L30.6152 130.945L99.0383 192.371L239.715 145.853L166.719 89.0938Z" fill="white"/>
        <path d="M99.0381 192.808C98.9328 192.806 98.8318 192.766 98.7534 192.696L30.3303 131.278C30.2734 131.227 30.2309 131.163 30.2071 131.09C30.1834 131.018 30.1791 130.941 30.1949 130.866C30.2107 130.792 30.2459 130.723 30.2969 130.666C30.348 130.61 30.4131 130.568 30.4856 130.545L166.59 88.6851C166.657 88.6635 166.728 88.6584 166.797 88.6704C166.866 88.6825 166.931 88.7112 166.987 88.7541L239.982 145.513C240.042 145.563 240.087 145.627 240.114 145.7C240.142 145.772 240.15 145.851 240.137 145.927C240.126 146.004 240.094 146.077 240.044 146.136C239.993 146.196 239.927 146.24 239.853 146.264L99.1761 192.782C99.1323 192.8 99.0854 192.809 99.0381 192.808ZM31.4691 131.14L99.1416 191.885L238.809 145.729L166.633 89.5996L31.4691 131.14Z" fill="black"/>
        <path d="M164.468 97.0078L46.7227 135.347L78.057 162.912L199.193 122.674L164.468 97.0078Z" fill="white"/>
        <path d="M78.0564 163.34C77.9511 163.337 77.8501 163.298 77.7717 163.227L46.4374 135.672C46.3789 135.622 46.3351 135.557 46.3108 135.484C46.2864 135.411 46.2825 135.333 46.2993 135.258C46.3149 135.184 46.3494 135.116 46.3993 135.06C46.4493 135.004 46.5129 134.962 46.584 134.939L164.338 96.5902C164.403 96.5702 164.472 96.5652 164.539 96.5756C164.606 96.5861 164.67 96.6117 164.726 96.6506L199.451 122.325C199.514 122.372 199.563 122.436 199.592 122.509C199.621 122.582 199.629 122.662 199.615 122.74C199.605 122.817 199.573 122.89 199.522 122.95C199.472 123.01 199.405 123.053 199.33 123.076L78.2203 163.314C78.1686 163.336 78.1123 163.344 78.0564 163.34ZM47.5762 135.525L78.1513 162.416L198.269 122.524L164.39 97.5047L47.5762 135.525Z" fill="#EAE6E5"/>
        <path d="M138.922 77.2113C138.922 77.2113 101.971 91.7396 67.0479 83.121C32.1246 74.5023 11.3242 44.3672 11.3242 44.3672L30.0282 106.673C30.0282 106.673 43.2624 114.852 76.003 114.438C117.768 113.946 145.936 93.1373 145.936 93.1373L136.446 76.7972" fill="white"/>
        <path d="M73.8218 114.905C42.9016 114.905 29.9348 107.141 29.8226 107.037C29.7338 106.981 29.6669 106.895 29.6328 106.796L10.9288 44.4808C10.9026 44.3831 10.9115 44.2794 10.954 44.1876C10.9965 44.0958 11.0699 44.0219 11.1613 43.9788C11.2528 43.9356 11.3565 43.9259 11.4543 43.9515C11.5522 43.977 11.638 44.0361 11.6967 44.1185C11.9037 44.4118 32.8077 74.2191 67.1702 82.6911C96.5461 89.938 127.725 80.6119 136.421 77.6527L136.059 77.0402C136.03 76.9917 136.011 76.9378 136.003 76.8818C135.995 76.8258 135.998 76.7687 136.013 76.714C136.027 76.6593 136.052 76.6081 136.087 76.5633C136.122 76.5186 136.165 76.4812 136.214 76.4535C136.263 76.4238 136.317 76.404 136.373 76.3953C136.43 76.3865 136.487 76.3891 136.543 76.4027C136.598 76.4164 136.65 76.4408 136.696 76.4747C136.742 76.5086 136.78 76.5513 136.81 76.6002L137.25 77.3594L138.785 76.8073C138.837 76.7852 138.893 76.7739 138.95 76.7742C139.006 76.7744 139.062 76.7863 139.114 76.8089C139.165 76.8315 139.212 76.8645 139.25 76.9057C139.289 76.947 139.318 76.9957 139.337 77.0488C139.358 77.1015 139.369 77.1578 139.368 77.2145C139.367 77.2712 139.355 77.3272 139.333 77.3793C139.311 77.4314 139.278 77.4785 139.237 77.5181C139.197 77.5576 139.149 77.5887 139.096 77.6096L137.69 78.1186L146.317 92.9489C146.371 93.0405 146.389 93.149 146.366 93.2529C146.344 93.3568 146.283 93.4485 146.196 93.5097C145.92 93.7167 117.441 114.414 76.0131 114.897L73.8218 114.905ZM30.392 106.382C31.8845 107.244 45.507 114.379 75.9959 114.034C114.819 113.577 142.15 95.2869 145.368 93.0352L136.887 78.4292C128.338 81.3538 96.7531 90.8956 67.0062 83.5452C37.5009 76.2724 17.8307 53.4273 12.499 46.5772L30.392 106.382Z" fill="black"/>
        <path d="M129.674 79.469L141.226 97.3706L151.216 93.9715L136.886 71.7734L129.674 79.469Z" fill="white"/>
        <path d="M141.2 97.8046C141.128 97.8037 141.058 97.7852 140.994 97.7506C140.931 97.716 140.878 97.6664 140.838 97.6062L129.286 79.7132C129.234 79.6308 129.211 79.5337 129.221 79.4369C129.23 79.3401 129.271 79.2492 129.338 79.1783L136.55 71.4827C136.596 71.4353 136.651 71.3983 136.712 71.3744C136.773 71.3506 136.838 71.3404 136.904 71.3447C136.969 71.3521 137.031 71.3738 137.086 71.4081C137.141 71.4424 137.188 71.4885 137.223 71.5431L151.553 93.7411C151.588 93.7962 151.61 93.8584 151.617 93.923C151.624 93.9877 151.617 94.0532 151.595 94.1146C151.574 94.1761 151.539 94.2318 151.493 94.2777C151.446 94.3236 151.39 94.3584 151.329 94.3796L141.338 97.7787C141.295 97.7965 141.248 97.8053 141.2 97.8046ZM130.192 79.5234L141.407 96.8556L150.552 93.7411L136.826 72.4749L130.192 79.5234Z" fill="black"/>
        <path d="M183.835 85.6094C183.835 85.6094 184.025 98.7746 176.364 108.342C168.703 117.91 145.004 122.672 145.004 122.672L152.492 93.6586L183.835 85.6094Z" fill="#03C7E8"/>
        <path d="M145.004 123.106C144.887 123.103 144.775 123.053 144.694 122.968C144.644 122.915 144.608 122.85 144.59 122.779C144.571 122.708 144.572 122.633 144.59 122.563L152.07 93.5577C152.091 93.4836 152.13 93.4162 152.185 93.3618C152.239 93.3074 152.307 93.2679 152.381 93.2471L183.732 85.1978C183.796 85.1784 183.863 85.1745 183.928 85.1864C183.993 85.1984 184.055 85.2258 184.107 85.2664C184.159 85.3069 184.201 85.3595 184.229 85.4196C184.257 85.4798 184.27 85.5457 184.267 85.6119C184.267 85.7413 184.371 99.036 176.692 108.612C169.014 118.189 146.066 122.899 145.091 123.098L145.004 123.106ZM152.847 94.0235L145.6 122.105C149.516 121.243 169.264 116.506 176.028 108.069C182.628 99.8383 183.327 88.7523 183.396 86.1727L152.847 94.0235Z" fill="black"/>
        <path d="M157.661 45.0557C157.661 45.0557 145.738 39.4566 133.867 42.4676C121.995 45.4785 107.898 65.1315 107.898 65.1315L137.412 70.2561L157.661 45.0557Z" fill="#03C7E8"/>
        <path d="M137.413 70.7284H137.335L107.821 65.5952C107.75 65.5835 107.683 65.5535 107.627 65.5081C107.571 65.4628 107.528 65.4035 107.502 65.3363C107.473 65.2695 107.462 65.1962 107.469 65.1236C107.477 65.051 107.503 64.9817 107.545 64.9222C108.123 64.1199 121.875 45.1399 133.763 42.0858C145.652 39.0317 157.721 44.605 157.842 44.674C157.902 44.7005 157.954 44.7411 157.995 44.7921C158.035 44.8432 158.063 44.9033 158.075 44.9673C158.091 45.0296 158.092 45.0947 158.078 45.1574C158.065 45.2202 158.037 45.2791 157.998 45.3297L137.749 70.5731C137.708 70.6224 137.657 70.6619 137.599 70.6887C137.54 70.7156 137.477 70.7291 137.413 70.7284ZM108.658 64.8705L137.24 69.8053L156.971 45.2003C154.59 44.1995 144.194 40.2741 133.979 42.8968C123.506 45.6489 111.065 61.6611 108.658 64.8705Z" fill="black"/>
        <path d="M130.898 69.6413C139.051 57.7788 153.329 44.3979 171.335 32.7855C198.605 15.1772 222.52 21.0524 230.621 23.9253C231.498 24.2357 232.248 24.8266 232.755 25.6065C233.262 26.3864 233.497 27.3116 233.425 28.239C232.7 36.8059 228.249 61.0227 200.926 78.6223C182.93 90.2433 164.855 97.749 150.689 100.285C150.689 100.285 145.341 97.1538 138.447 86.4818C131.554 75.8098 130.898 69.6413 130.898 69.6413Z" fill="#F0CC00"/>
        <path d="M150.691 100.731C150.612 100.732 150.534 100.711 150.467 100.67C150.251 100.541 144.962 97.3659 138.086 86.7198C131.21 76.0737 130.494 69.9397 130.468 69.6895C130.459 69.5857 130.487 69.482 130.546 69.3962C139.009 57.0678 153.788 43.5833 171.094 32.4196C198.219 14.9148 221.857 20.3414 230.769 23.5163C231.739 23.857 232.568 24.5108 233.126 25.3745C233.684 26.2382 233.938 27.2629 233.849 28.2871C233.056 37.7081 228.285 61.4936 201.169 78.9984C183.863 90.2138 165.487 98.0906 150.76 100.722L150.691 100.731ZM131.348 69.7499C131.504 70.7507 132.651 76.7121 138.811 86.2453C144.971 95.7784 149.923 99.2897 150.777 99.8505C165.366 97.202 183.561 89.3425 200.695 78.2823C227.5 61.0277 232.21 37.5184 232.995 28.244C233.065 27.4094 232.856 26.5752 232.402 25.8714C231.948 25.1677 231.274 24.6338 230.485 24.3531C221.693 21.2387 198.365 15.8725 171.569 33.1616C154.418 44.2045 139.769 57.5423 131.348 69.7499Z" fill="black"/>
        <path d="M233.426 28.2535C232.36 38.8742 228.626 49.0531 222.573 57.8451L199.193 21.6104C209.696 19.7104 220.509 20.5029 230.623 23.9139C231.504 24.2254 232.257 24.8203 232.765 25.6055C233.272 26.3907 233.505 27.3219 233.426 28.2535Z" fill="white"/>
        <path d="M222.582 58.2797C222.511 58.2789 222.441 58.2604 222.38 58.2257C222.318 58.191 222.266 58.1414 222.228 58.0813L198.839 21.8467C198.808 21.7838 198.791 21.7144 198.791 21.6439C198.791 21.5735 198.808 21.504 198.839 21.4412C198.868 21.3743 198.913 21.3156 198.971 21.2704C199.028 21.2252 199.095 21.195 199.167 21.1824C209.742 19.2637 220.632 20.0653 230.812 23.5117C231.782 23.8525 232.611 24.5062 233.169 25.37C233.726 26.2337 233.981 27.2584 233.892 28.2826C232.842 38.9807 229.086 49.2354 222.979 58.0813C222.937 58.1479 222.878 58.2017 222.808 58.2368C222.738 58.2718 222.66 58.2867 222.582 58.2797ZM199.909 21.9329L222.582 57.0633C228.395 48.4638 231.973 38.5516 232.995 28.2222C233.064 27.3876 232.856 26.5534 232.402 25.8497C231.948 25.1459 231.273 24.6121 230.484 24.3313C220.651 20.9983 210.142 20.1739 199.909 21.9329Z" fill="black"/>
        <path d="M190.031 68.5732C199.222 68.5732 206.673 61.1223 206.673 51.9311C206.673 42.74 199.222 35.2891 190.031 35.2891C180.84 35.2891 173.389 42.74 173.389 51.9311C173.389 61.1223 180.84 68.5732 190.031 68.5732Z" fill="white"/>
        <path d="M190.057 68.9968C185.953 68.9987 181.985 67.521 178.881 64.8346C175.777 62.1482 173.746 58.4332 173.16 54.3705C172.573 50.3079 173.47 46.1699 175.687 42.7154C177.904 39.2608 181.292 36.7211 185.23 35.5618C189.168 34.4026 193.391 34.7016 197.126 36.4039C200.861 38.1062 203.858 41.0979 205.566 44.8303C207.274 48.5627 207.58 52.7858 206.427 56.7253C205.274 60.6648 202.74 64.0567 199.289 66.2792C196.536 68.0518 193.331 68.9952 190.057 68.9968ZM189.997 35.7127C187.083 35.7164 184.224 36.5054 181.721 37.9966C179.218 39.4878 177.163 41.6262 175.772 44.1866C174.382 46.7471 173.707 49.6351 173.819 52.5466C173.931 55.4582 174.826 58.2858 176.409 60.7318C177.856 62.9721 179.834 64.8209 182.166 66.1145C184.498 67.4081 187.114 68.1065 189.78 68.148C192.447 68.1895 195.083 67.5728 197.454 66.3524C199.826 65.132 201.86 63.3456 203.376 61.1515C204.892 58.9573 205.844 56.4232 206.147 53.7734C206.45 51.1236 206.095 48.4399 205.113 45.9602C204.131 43.4804 202.553 41.281 200.518 39.5567C198.484 37.8325 196.055 36.6366 193.448 36.075C192.313 35.8351 191.157 35.7137 189.997 35.7127Z" fill="black"/>
        <path d="M190.03 62.197C195.7 62.197 200.297 57.6006 200.297 51.9305C200.297 46.2605 195.7 41.6641 190.03 41.6641C184.36 41.6641 179.764 46.2605 179.764 51.9305C179.764 57.6006 184.36 62.197 190.03 62.197Z" fill="black"/>
        <path d="M190.048 62.63C187.475 62.641 184.984 61.724 183.032 60.0473C181.08 58.3706 179.798 56.0465 179.42 53.501C179.043 50.9556 179.596 48.3594 180.977 46.1885C182.359 44.0176 184.477 42.4174 186.943 41.6813C189.408 40.9453 192.057 41.1227 194.402 42.181C196.748 43.2394 198.633 45.1077 199.713 47.4435C200.793 49.7793 200.994 52.426 200.281 54.8984C199.567 57.3708 197.987 59.5031 195.829 60.9045C194.107 62.0218 192.101 62.6207 190.048 62.63ZM190.048 42.097C188.159 42.0926 186.31 42.6382 184.725 43.6672C182.733 44.9509 181.27 46.9098 180.605 49.1847C179.94 51.4597 180.117 53.8981 181.104 56.0529C182.091 58.2077 183.822 59.9344 185.979 60.9164C188.137 61.8983 190.575 62.0698 192.849 61.3992C195.122 60.7286 197.078 59.261 198.356 57.2655C199.635 55.27 200.152 52.8803 199.812 50.5347C199.471 48.1891 198.297 46.0448 196.504 44.495C194.71 42.9452 192.418 42.0939 190.048 42.097Z" fill="black"/>
        <path d="M196.915 47.9116C196.838 47.9112 196.764 47.8901 196.698 47.8506C196.633 47.8111 196.58 47.7547 196.544 47.6873C196.406 47.4543 193.222 41.9243 186.588 44.9611C186.494 44.9986 186.39 45.0019 186.293 44.9704C186.197 44.9389 186.115 44.8745 186.062 44.7885C186.037 44.7377 186.023 44.6824 186.02 44.626C186.017 44.5696 186.026 44.5132 186.045 44.4601C186.064 44.407 186.094 44.3584 186.132 44.317C186.171 44.2756 186.217 44.2423 186.269 44.2191C193.645 40.8545 197.303 47.2559 197.338 47.3163C197.39 47.4174 197.402 47.5351 197.37 47.6445C197.338 47.754 197.264 47.8466 197.165 47.903C197.084 47.9305 196.997 47.9335 196.915 47.9116Z" fill="white"/>
        <path d="M198.045 51.4806C197.989 51.4762 197.935 51.4609 197.886 51.4356C197.836 51.4102 197.792 51.3752 197.756 51.3328C197.72 51.2903 197.692 51.241 197.675 51.1879C197.658 51.1348 197.652 51.0789 197.657 51.0233C197.688 50.4811 197.587 49.9395 197.363 49.4445C197.316 49.3415 197.311 49.2239 197.35 49.1174C197.389 49.0108 197.468 48.9238 197.571 48.8751C197.622 48.8511 197.679 48.8378 197.736 48.8361C197.793 48.8344 197.85 48.8444 197.903 48.8654C197.956 48.8863 198.005 48.9179 198.046 48.9581C198.086 48.9984 198.118 49.0465 198.14 49.0995C198.424 49.7327 198.551 50.4253 198.511 51.1182C198.496 51.2275 198.439 51.3265 198.352 51.3942C198.265 51.4619 198.155 51.4929 198.045 51.4806Z" fill="white"/>
        <path d="M136.126 69.0956C136.029 69.0944 135.935 69.061 135.859 69.0007C135.77 68.9295 135.713 68.8261 135.7 68.713C135.687 68.5998 135.719 68.4862 135.79 68.3968C141.929 60.9983 148.509 53.9773 155.495 47.3721C155.579 47.3028 155.686 47.2678 155.794 47.2742C155.903 47.2805 156.005 47.3277 156.081 47.4063C156.156 47.4849 156.199 47.5891 156.201 47.698C156.202 47.8068 156.163 47.9123 156.09 47.9933C149.132 54.5738 142.577 61.5689 136.463 68.9403C136.422 68.9901 136.371 69.0299 136.313 69.0568C136.254 69.0837 136.191 69.097 136.126 69.0956Z" fill="white"/>
        <path d="M155.513 80.9532C143.495 88.7178 128.001 96.3184 126.655 94.2306C125.309 92.1428 138.612 81.1603 150.639 73.3957C162.665 65.6311 170.188 66.1315 170.188 66.1315C170.188 66.1315 167.54 73.1973 155.513 80.9532Z" fill="#03C7E8"/>
        <path d="M127.639 94.9683C127.39 95.0029 127.136 94.9745 126.901 94.8856C126.666 94.7966 126.457 94.65 126.293 94.4593C126 94.0107 125.111 92.6389 133.35 85.6077C138.771 81.07 144.467 76.872 150.406 73.0377C162.407 65.2732 169.904 65.6786 170.249 65.6959C170.317 65.7015 170.382 65.7222 170.44 65.7566C170.498 65.7909 170.548 65.838 170.586 65.8943C170.62 65.9521 170.642 66.0167 170.65 66.0837C170.657 66.1507 170.65 66.2186 170.629 66.2826C170.517 66.5759 167.79 73.564 155.781 81.3113C147.784 86.4532 132.47 94.9683 127.639 94.9683ZM169.507 66.5673C167.454 66.6535 160.638 67.43 150.872 73.7538C144.965 77.5686 139.3 81.7465 133.911 86.2634C127.872 91.4397 126.75 93.5793 127.009 94.0279C127.967 95.5204 141.848 89.2829 155.272 80.6211C165.047 74.2887 168.584 68.4049 169.507 66.5673Z" fill="black"/>
        <path d="M172.706 138.039L127.258 152.067L147.808 168.105L192.506 153.068L172.706 138.039Z" fill="white"/>
        <path d="M147.809 168.533C147.712 168.532 147.618 168.499 147.542 168.438L127 152.409C126.937 152.36 126.889 152.295 126.86 152.22C126.831 152.146 126.823 152.065 126.837 151.986C126.851 151.909 126.887 151.837 126.941 151.779C126.994 151.721 127.063 151.679 127.138 151.658L172.578 137.622C172.644 137.601 172.713 137.596 172.781 137.608C172.849 137.62 172.912 137.648 172.967 137.691L192.766 152.719C192.83 152.766 192.88 152.829 192.909 152.903C192.938 152.976 192.945 153.056 192.93 153.133C192.922 153.213 192.89 153.287 192.84 153.349C192.789 153.41 192.722 153.455 192.646 153.479L147.948 168.507C147.903 168.524 147.857 168.533 147.809 168.533ZM128.182 152.236L147.896 167.619L191.602 152.952L172.622 138.545L128.182 152.236Z" fill="#EAE6E5"/>
        <path d="M86.632 99.2992C73.3373 99.2992 58.0152 97.1165 44.1167 89.7401C44.0663 89.7146 44.0215 89.6793 43.985 89.6363C43.9485 89.5932 43.921 89.5432 43.9041 89.4894C43.8872 89.4355 43.8813 89.3788 43.8867 89.3225C43.8921 89.2663 43.9087 89.2118 43.9355 89.1621C43.9619 89.1114 43.998 89.0665 44.0418 89.0299C44.0857 88.9933 44.1364 88.9658 44.191 88.9489C44.2455 88.932 44.3029 88.9262 44.3598 88.9317C44.4166 88.9372 44.4718 88.9539 44.5222 88.9809C78.2808 106.874 120.537 93.9157 120.96 93.7863C121.015 93.7635 121.075 93.7523 121.134 93.7536C121.194 93.7549 121.253 93.7686 121.307 93.7939C121.361 93.8192 121.41 93.8554 121.449 93.9004C121.489 93.9453 121.518 93.998 121.536 94.055C121.554 94.112 121.56 94.1721 121.554 94.2316C121.547 94.291 121.529 94.3485 121.499 94.4003C121.469 94.4521 121.429 94.4971 121.38 94.5325C121.332 94.5679 121.277 94.5929 121.219 94.6059C109.955 97.7262 98.32 99.305 86.632 99.2992Z" fill="#EAE6E5"/>
        <path d="M79.1518 107.507C51.3806 107.507 33.2288 94.6527 33.0217 94.4974C32.9751 94.4648 32.9353 94.4232 32.9049 94.375C32.8744 94.3269 32.8537 94.2732 32.8441 94.2171C32.8345 94.1609 32.8361 94.1034 32.8488 94.0479C32.8615 93.9924 32.8851 93.9399 32.9182 93.8935C32.9869 93.8025 33.0883 93.7418 33.201 93.7241C33.3136 93.7064 33.4288 93.7331 33.5221 93.7986C33.7723 93.9798 58.7828 111.683 95.026 105.238C95.0827 105.229 95.1407 105.23 95.1967 105.243C95.2527 105.256 95.3057 105.28 95.3525 105.313C95.3994 105.346 95.4393 105.388 95.4699 105.437C95.5004 105.486 95.5211 105.54 95.5308 105.596C95.5404 105.653 95.5388 105.711 95.526 105.767C95.5132 105.823 95.4895 105.876 95.4563 105.923C95.423 105.97 95.3809 106.01 95.3322 106.04C95.2836 106.071 95.2294 106.092 95.1727 106.101C89.8841 107.04 84.5231 107.511 79.1518 107.507Z" fill="#EAE6E5"/>
        <path d="M51.6136 86.0405C51.5568 86.0535 51.4979 86.0535 51.4411 86.0405C24.2737 73.738 17.6393 58.5195 17.5703 58.3728C17.5456 58.3203 17.5318 58.2633 17.5296 58.2053C17.5274 58.1473 17.537 58.0894 17.5577 58.0352C17.5785 57.9809 17.6099 57.9315 17.6502 57.8897C17.6905 57.8479 17.7389 57.8147 17.7923 57.792C17.8458 57.7694 17.9032 57.7577 17.9613 57.7578C18.0193 57.7579 18.0768 57.7697 18.1302 57.7925C18.1835 57.8153 18.2318 57.8487 18.272 57.8906C18.3122 57.9325 18.3435 57.982 18.364 58.0363C18.364 58.0363 19.9946 61.8237 24.9035 67.0346C29.4329 71.84 37.7754 78.9057 51.7948 85.2554C51.8988 85.3025 51.9798 85.3889 52.0202 85.4956C52.0607 85.6023 52.0572 85.7207 52.0105 85.8248C51.9693 85.8927 51.9109 85.9484 51.8412 85.9863C51.7715 86.0241 51.6929 86.0429 51.6136 86.0405Z" fill="#EAE6E5"/>
        <path d="M100.16 90.961C100.045 90.961 99.9358 90.9156 99.8549 90.8347C99.774 90.7538 99.7285 90.6441 99.7285 90.5297C99.7307 90.416 99.7769 90.3075 99.8573 90.2271C99.9377 90.1467 100.046 90.1005 100.16 90.0983C100.315 90.0983 115.275 90.0983 122.108 86.7595C122.159 86.7302 122.216 86.7119 122.275 86.7056C122.334 86.6993 122.394 86.7052 122.45 86.7229C122.507 86.7406 122.559 86.7698 122.604 86.8086C122.648 86.8474 122.685 86.8951 122.71 86.9485C122.736 87.002 122.75 87.0601 122.752 87.1193C122.754 87.1785 122.744 87.2375 122.722 87.2927C122.701 87.3478 122.668 87.3978 122.626 87.4397C122.584 87.4816 122.534 87.5143 122.479 87.536C115.473 90.9265 100.79 90.961 100.16 90.961Z" fill="#EAE6E5"/>
        <path d="M81.2143 75.5119L79.092 73.2429L76.0293 73.7088L77.5218 70.9826L76.1414 68.2046L79.1869 68.7999L81.3955 66.6172L81.7837 69.6971L84.5358 71.1293L81.7233 72.4492L81.2143 75.5119Z" fill="#F0CC00"/>
        <path d="M109.444 78.2534L108.132 76.8558L106.234 77.1405L107.166 75.4582L106.303 73.7413L108.193 74.1037L109.556 72.7578L109.797 74.6644L111.497 75.5444L109.763 76.364L109.444 78.2534Z" fill="#F0CC00"/>
        <path d="M96.6495 131.523L92.1288 128.874L87.3837 131.1L88.5139 125.984L84.9336 122.153L90.1445 121.644L92.6809 117.055L94.7773 121.851L99.9192 122.844L96.0024 126.329L96.6495 131.523Z" fill="#F0CC00"/>
        <path d="M65.1326 99.3943L62.3201 96.392L58.248 97.0045L60.241 93.3983L58.3947 89.7231L62.4409 90.4995L65.3656 87.6094L65.8746 91.6987L69.5325 93.5881L65.8056 95.3394L65.1326 99.3943Z" fill="#F0CC00"/>
        <path d="M11.3252 44.788C11.2108 44.8006 11.096 44.7672 11.0063 44.6952C10.9165 44.6232 10.8589 44.5185 10.8464 44.4041C10.8338 44.2897 10.8671 44.175 10.9391 44.0852C11.0111 43.9954 11.1159 43.9379 11.2303 43.9253L142.788 15.1188C142.844 15.1069 142.903 15.1063 142.96 15.117C143.017 15.1276 143.071 15.1494 143.119 15.1811C143.168 15.2127 143.21 15.2536 143.242 15.3014C143.275 15.3492 143.298 15.4029 143.31 15.4596C143.322 15.5162 143.322 15.5746 143.312 15.6315C143.301 15.6884 143.279 15.7426 143.247 15.7911C143.216 15.8396 143.175 15.8813 143.127 15.914C143.079 15.9467 143.026 15.9696 142.969 15.9815L11.4201 44.788H11.3252Z" fill="black"/>
        <path d="M17.433 40.0652C18.4002 40.0652 19.1843 39.2811 19.1843 38.3138C19.1843 37.3466 18.4002 36.5625 17.433 36.5625C16.4657 36.5625 15.6816 37.3466 15.6816 38.3138C15.6816 39.2811 16.4657 40.0652 17.433 40.0652Z" fill="#F0CC00"/>
        <path d="M23.6967 38.4714C24.6639 38.4714 25.448 37.6873 25.448 36.7201C25.448 35.7529 24.6639 34.9688 23.6967 34.9688C22.7294 34.9688 21.9453 35.7529 21.9453 36.7201C21.9453 37.6873 22.7294 38.4714 23.6967 38.4714Z" fill="#EAE6E5"/>
        <path d="M29.6576 37.0964C30.6248 37.0964 31.4089 36.3123 31.4089 35.3451C31.4089 34.3779 30.6248 33.5938 29.6576 33.5938C28.6904 33.5938 27.9062 34.3779 27.9062 35.3451C27.9062 36.3123 28.6904 37.0964 29.6576 37.0964Z" fill="#EAE6E5"/>
        <path d="M121.981 32.0275L43.9068 50.3683C41.4298 50.9502 39.8936 53.4298 40.4754 55.9068L40.4774 55.9152C41.0593 58.3921 43.5389 59.9283 46.0159 59.3465L124.09 41.0056C126.567 40.4238 128.103 37.9441 127.521 35.4672L127.519 35.4588C126.937 32.9819 124.458 31.4456 121.981 32.0275Z" fill="#EAE6E5"/>
    </g>
    <defs>
        <clipPath id="clip0_1907_47653">
            <rect width="239.295" height="200" fill="white" transform="translate(0.851562)"/>
        </clipPath>
    </defs>
</svg>
