<svg width="1148" height="276" viewBox="0 0 1148 276" fill="none" xmlns="http://www.w3.org/2000/svg">
<rect width="1249" height="276" transform="translate(-50.5)" fill="#F2F0EF"/>
<path d="M506.078 251.578C526.651 251.578 543.328 249.338 543.328 246.574C543.328 243.811 526.651 241.57 506.078 241.57C485.505 241.57 468.827 243.811 468.827 246.574C468.827 249.338 485.505 251.578 506.078 251.578Z" fill="#E6E7E8"/>
<path d="M667.859 251.578C688.432 251.578 705.109 249.338 705.109 246.574C705.109 243.811 688.432 241.57 667.859 241.57C647.286 241.57 630.608 243.811 630.608 246.574C630.608 249.338 647.286 251.578 667.859 251.578Z" fill="#E6E7E8"/>
<path d="M503.977 229.635C503.977 229.635 510.452 249.448 511.599 249.073C512.746 248.697 535.797 235.35 535.036 233.066C534.274 230.782 518.268 235.543 518.268 235.543L514.665 224.875" fill="white"/>
<path d="M511.62 249.58C511.514 249.582 511.409 249.558 511.315 249.509C509.884 248.789 505.408 235.482 503.55 229.798C503.528 229.734 503.519 229.666 503.524 229.599C503.528 229.531 503.546 229.465 503.576 229.405C503.606 229.344 503.648 229.29 503.7 229.246C503.751 229.202 503.811 229.169 503.875 229.148C504.004 229.11 504.144 229.123 504.263 229.186C504.382 229.249 504.473 229.355 504.515 229.483C507.276 237.928 510.655 247.236 511.691 248.504C514.827 247.165 534.457 235.167 534.589 233.178C534.315 232.366 527.352 233.381 518.461 236.03C518.334 236.064 518.2 236.049 518.084 235.989C517.967 235.929 517.877 235.828 517.832 235.705L514.218 225.038C514.176 224.91 514.185 224.77 514.244 224.649C514.302 224.528 514.406 224.434 514.533 224.388C514.662 224.349 514.801 224.361 514.922 224.421C515.043 224.481 515.136 224.586 515.182 224.713L518.644 234.863C533.087 230.61 535.29 232.031 535.564 232.833C535.767 233.432 536.183 234.67 524.399 242.14C518.593 245.805 512.513 249.245 511.863 249.479C511.79 249.529 511.707 249.564 511.62 249.58Z" fill="#231F20"/>
<path d="M476.542 196.484C476.542 196.484 463.204 196.677 462.829 197.814C462.453 198.951 458.444 220.144 462.068 218.398C465.691 216.652 471.588 204.675 471.588 204.675L478.257 203.66L476.542 196.484Z" fill="white"/>
<path d="M461.671 218.997C461.395 218.996 461.128 218.895 460.92 218.713C458.433 216.5 462.097 198.413 462.341 197.651C462.463 197.286 462.838 196.169 476.551 195.977C476.665 195.981 476.774 196.021 476.865 196.09C476.956 196.159 477.023 196.254 477.058 196.362L478.774 203.518C478.802 203.654 478.777 203.796 478.703 203.914C478.664 203.974 478.614 204.024 478.554 204.063C478.495 204.101 478.428 204.127 478.358 204.137L471.943 205.152C471.07 206.908 465.792 217.221 462.3 218.875C462.102 218.962 461.887 219.003 461.671 218.997ZM463.285 198.057C462.747 199.915 459.864 216.419 461.6 217.951C461.6 217.951 461.671 218.022 461.844 217.951C464.686 216.612 469.507 207.801 471.131 204.472C471.165 204.398 471.217 204.334 471.283 204.286C471.349 204.238 471.426 204.208 471.506 204.198L477.596 203.183L476.104 196.971C470.359 197.093 464.137 197.509 463.285 198.057Z" fill="#231F20"/>
<path d="M552.433 40.3977L558.137 37.1294C558.137 37.1294 559.741 31.9935 561.354 30.7552C562.968 29.5169 565.191 31.2018 565.191 31.2018C565.191 31.2018 571.088 26.279 572.509 26.4414C573.93 26.6038 572.053 29.121 570.601 30.3898L567.556 33.0592C567.556 33.0592 570.226 38.4996 568.683 40.6413C567.14 42.7829 554.716 49.4007 554.716 49.4007L552.433 40.3977Z" fill="white"/>
<path d="M554.696 49.8992C554.625 49.9088 554.553 49.9088 554.483 49.8992C554.413 49.8654 554.352 49.8171 554.303 49.7576C554.254 49.698 554.218 49.6286 554.198 49.5541L551.945 40.5612C551.917 40.4554 551.925 40.3434 551.967 40.2425C552.009 40.1416 552.084 40.0574 552.179 40.003L557.71 36.8463C558.055 35.8313 559.476 31.6089 561.009 30.3909C562.542 29.1729 564.369 30.1372 565.13 30.6041C566.815 29.2135 571.108 25.8234 572.529 25.9757C572.733 25.9854 572.93 26.0565 573.093 26.1797C573.256 26.3028 573.378 26.4723 573.443 26.6659C573.829 27.894 571.687 30.127 570.916 30.8172L568.155 33.2329C568.774 34.5727 570.56 38.9169 569.068 40.9875C567.576 43.0581 556.208 49.209 554.929 49.8891C554.854 49.9122 554.773 49.9157 554.696 49.8992ZM553.021 40.6526L555.051 48.6406C558.817 46.6106 567.119 41.9315 568.246 40.3379C569.373 38.7444 567.779 34.7148 567.079 33.2329C567.031 33.1319 567.016 33.0179 567.038 32.9081C567.06 32.7983 567.117 32.6986 567.201 32.6239L570.246 29.9646C571.616 28.7568 572.58 27.2343 572.479 26.9196C571.697 26.8486 568.246 29.2947 565.495 31.5886C565.406 31.6594 565.295 31.6979 565.181 31.6979C565.067 31.6979 564.956 31.6594 564.866 31.5886C564.866 31.5886 562.907 30.1372 561.649 31.1319C560.39 32.1266 559.06 35.8821 558.604 37.2219C558.562 37.344 558.48 37.448 558.37 37.5162L553.021 40.6526Z" fill="#231F20"/>
<path d="M483.342 73.8315C487.808 76.3284 552.22 38.7227 552.22 38.7227L561.811 48.6494L496.598 95.8875L483.342 73.8315Z" fill="#D23228"/>
<path d="M505.042 73.2031C505.042 73.2031 466.726 73.2031 456.85 81.0694C449.532 86.8955 448.151 127.516 448.151 127.516L521.313 121.811C521.313 121.811 525.515 78.9886 505.042 73.2031Z" fill="#D23228"/>
<path d="M510.605 96.9227C510.481 96.9227 510.362 96.8735 510.274 96.7859C510.187 96.6984 510.138 96.5796 510.138 96.4558V76.5314C510.138 76.4075 510.187 76.2888 510.274 76.2012C510.362 76.1136 510.481 76.0645 510.605 76.0645C510.728 76.0645 510.847 76.1136 510.935 76.2012C511.022 76.2888 511.072 76.4075 511.072 76.5314V96.4558C511.072 96.5796 511.022 96.6984 510.935 96.7859C510.847 96.8735 510.728 96.9227 510.605 96.9227Z" fill="#231F20"/>
<path d="M593.56 180.549C592.931 180.052 570.215 177.727 568.805 178.164C567.394 178.6 561.7 197.378 561.811 198.981C561.994 202.189 574.539 189.339 574.539 189.339L593.56 193.155" fill="white"/>
<path d="M562.217 199.987C562.117 200.008 562.013 200.008 561.913 199.987C561.727 199.917 561.568 199.79 561.459 199.624C561.349 199.458 561.295 199.262 561.304 199.063C561.233 197.866 566.693 178.347 568.662 177.748C570.144 177.292 593.022 179.535 593.875 180.225C593.98 180.309 594.047 180.43 594.062 180.563C594.077 180.697 594.039 180.83 593.956 180.935C593.88 181.033 593.771 181.098 593.649 181.121C593.528 181.143 593.402 181.121 593.296 181.057C591.703 180.458 570.236 178.388 568.936 178.723C567.718 179.657 562.197 197.449 562.298 199.023C563.313 199.337 569.261 194.059 574.154 189.055C574.213 188.994 574.287 188.948 574.368 188.923C574.45 188.898 574.537 188.895 574.62 188.913L593.631 192.699C593.764 192.726 593.88 192.804 593.956 192.916C594.032 193.028 594.061 193.165 594.037 193.298C594.024 193.363 593.998 193.425 593.961 193.481C593.923 193.536 593.876 193.583 593.82 193.62C593.764 193.657 593.702 193.682 593.637 193.695C593.571 193.708 593.504 193.707 593.439 193.694L574.691 189.959C571.504 193.156 564.541 199.987 562.217 199.987Z" fill="#231F20"/>
<path d="M677.714 225.757C677.714 226.417 683.895 246.25 685.702 246.565C687.509 246.879 712.965 238.851 710.864 237.43C708.763 236.009 697.242 237.054 697.242 237.054L691.102 220.561" fill="white"/>
<path d="M685.712 247.073H685.611C683.216 246.647 677.217 225.992 677.207 225.758C677.196 225.624 677.239 225.49 677.327 225.388C677.414 225.285 677.539 225.221 677.674 225.21C677.808 225.2 677.942 225.243 678.044 225.33C678.147 225.418 678.211 225.543 678.222 225.677C678.506 227.474 684.312 245.257 685.844 246.048C686.524 246.14 691.853 244.708 698.44 242.526C705.545 240.161 709.453 238.466 710.336 237.705C708.438 236.903 701.628 237.157 697.294 237.543C697.183 237.554 697.073 237.528 696.979 237.469C696.885 237.41 696.814 237.322 696.776 237.218L690.686 220.744C690.653 220.681 690.635 220.611 690.631 220.54C690.627 220.468 690.639 220.397 690.664 220.33C690.69 220.264 690.73 220.203 690.781 220.153C690.831 220.103 690.892 220.064 690.959 220.038C691.026 220.013 691.097 220.002 691.169 220.007C691.24 220.011 691.31 220.031 691.373 220.064C691.436 220.097 691.492 220.143 691.536 220.199C691.58 220.255 691.612 220.32 691.63 220.389L697.628 236.497C699.892 236.314 709.169 235.634 711.199 236.994C711.348 237.085 711.458 237.227 711.51 237.393C711.563 237.559 711.553 237.738 711.483 237.898C710.438 240.405 687.874 247.073 685.712 247.073Z" fill="#231F20"/>
<path d="M650.928 130.946C650.928 130.946 640.9 206.168 630.628 203.874C620.356 201.58 579.259 192.841 579.259 192.841L582.974 176.601C582.974 176.601 612.216 179.707 616.113 179.991C620.011 180.275 617.271 127.525 617.271 127.525L650.928 130.946Z" fill="#231F20"/>
<path d="M631.075 204.432C630.88 204.432 630.687 204.412 630.496 204.371C620.346 202.118 579.543 193.42 579.137 193.338C579.004 193.309 578.888 193.229 578.812 193.115C578.739 193.001 578.714 192.862 578.741 192.729L582.456 176.489C582.487 176.37 582.559 176.264 582.659 176.192C582.759 176.12 582.881 176.085 583.004 176.093C583.299 176.093 612.287 179.21 616.134 179.484C618.164 178.469 618.032 152.292 616.753 127.546C616.747 127.474 616.758 127.402 616.784 127.335C616.811 127.268 616.852 127.209 616.905 127.16C616.959 127.108 617.022 127.069 617.093 127.044C617.163 127.02 617.238 127.011 617.311 127.018L650.979 130.449C651.048 130.454 651.116 130.474 651.177 130.508C651.238 130.541 651.292 130.587 651.334 130.642C651.376 130.694 651.406 130.755 651.423 130.819C651.441 130.884 651.445 130.951 651.436 131.017C651.08 133.717 642.524 197.094 632.902 203.813C632.37 204.201 631.733 204.417 631.075 204.432ZM579.848 192.455C584.588 193.47 621.168 201.255 630.72 203.387C631.001 203.434 631.29 203.422 631.566 203.35C631.842 203.278 632.1 203.149 632.323 202.971C641.134 196.81 649.507 137.595 650.36 131.393L617.789 128.084C618.154 135.28 620.113 176.977 616.845 180.174C616.743 180.28 616.62 180.364 616.483 180.418C616.347 180.472 616.2 180.496 616.053 180.488C612.46 180.225 587.054 177.535 583.35 177.139L579.848 192.455Z" fill="#231F20"/>
<path d="M641.793 136.844L677.074 236.649L696.907 226.012L666.508 130.947L641.793 136.844Z" fill="#231F20"/>
<path d="M677.065 237.156C677.005 237.168 676.943 237.168 676.882 237.156C676.812 237.131 676.749 237.091 676.696 237.038C676.643 236.985 676.603 236.922 676.578 236.852L641.306 137.047C641.279 136.981 641.265 136.91 641.265 136.839C641.265 136.767 641.279 136.697 641.306 136.631C641.382 136.506 641.501 136.416 641.641 136.377L666.347 130.48C666.472 130.448 666.604 130.467 666.716 130.531C666.827 130.596 666.91 130.701 666.945 130.825L697.395 225.89C697.431 226.002 697.426 226.124 697.381 226.233C697.337 226.342 697.256 226.433 697.152 226.489L677.309 237.126C677.232 237.158 677.147 237.168 677.065 237.156ZM642.453 137.209L677.339 235.928L696.289 225.778L666.164 131.546L642.453 137.209Z" fill="#231F20"/>
<path d="M670.792 91.2284L683.145 87.1684C682.576 86.3361 676.344 67.1932 668.935 63.5493C662.469 59.266 650.523 60.078 637.003 61.022C632.665 61.2356 628.388 62.126 624.326 63.661C609.101 69.751 606.908 89.7972 606.908 89.7972L620.966 94.6997C620.966 94.6997 618.692 121.973 616.551 136.233C616.551 136.233 633.684 142.729 671.98 136.386C671.99 136.315 670.863 95.2579 670.792 91.2284Z" fill="#D23228"/>
<path d="M654.745 68.7266L641.032 100.019L637.673 69.8329L654.745 68.7266Z" fill="#231F20"/>
<path d="M641.032 100.527H640.961C640.851 100.509 640.75 100.456 640.672 100.376C640.595 100.295 640.547 100.191 640.535 100.08L637.175 69.8838C637.165 69.7492 637.205 69.6154 637.287 69.5083C637.331 69.4554 637.385 69.4119 637.446 69.3805C637.507 69.3491 637.574 69.3304 637.642 69.3256L654.735 68.2192C654.821 68.2156 654.907 68.2331 654.985 68.2702C655.063 68.3074 655.13 68.3631 655.182 68.4324C655.232 68.5038 655.263 68.5872 655.272 68.6744C655.281 68.7615 655.267 68.8495 655.232 68.9297L641.54 100.222C641.497 100.319 641.425 100.4 641.334 100.454C641.243 100.509 641.138 100.534 641.032 100.527ZM638.241 70.3406L641.286 98.1313L653.953 69.3256L638.241 70.3406Z" fill="#231F20"/>
<path d="M661.911 29.3548C660.21 27.4211 657.98 26.0275 655.496 25.3457C653.013 24.664 650.384 24.7239 647.934 25.5181C643.59 26.9188 639.631 29.3447 635.277 30.7352C630.923 32.1258 625.787 32.3085 622.184 29.5071C622.206 30.5541 622.452 31.5843 622.905 32.5285C623.357 33.4728 624.007 34.3093 624.809 34.9821C625.612 35.6549 626.549 36.1484 627.558 36.4295C628.567 36.7106 629.624 36.7729 630.659 36.6121C630.496 37.6271 629.116 37.7793 628.132 37.5662C627.147 37.353 625.888 37.1094 625.279 37.9214C625.119 38.1918 625.024 38.4957 625.001 38.8093C624.978 39.1228 625.028 39.4373 625.147 39.7281C625.888 42.1743 628.121 43.7881 630.222 45.27C633.267 47.3711 636.312 47.8075 639.418 49.259C642.707 50.8119 645.163 52.9637 648.939 53.4915C652.373 53.9538 655.855 53.0979 658.683 51.0961C660.459 49.8375 664.073 48.1222 663.362 45.4223C663.017 44.1434 665.27 41.7074 665.392 39.8296C665.569 37.9378 665.35 36.0299 664.751 34.2268C664.152 32.4237 663.185 30.7647 661.911 29.3548Z" fill="white"/>
<path d="M650.674 54.1006C650.056 54.1025 649.439 54.0584 648.827 53.9687C646.397 53.5184 644.081 52.5867 642.016 51.2282C641.113 50.7004 640.169 50.2132 639.154 49.6854C638.037 49.1764 636.892 48.7324 635.723 48.3557C633.66 47.7368 631.695 46.8278 629.887 45.6558C627.543 44.0318 625.381 42.3672 624.619 39.85C624.474 39.4827 624.418 39.0861 624.455 38.6928C624.492 38.2994 624.621 37.9204 624.832 37.5866C625.125 37.2548 625.503 37.0101 625.926 36.8793C626.349 36.7486 626.799 36.737 627.228 36.8456C626.226 36.5163 625.296 35.9997 624.487 35.3231C623.606 34.6185 622.896 33.724 622.409 32.7064C621.922 31.6888 621.672 30.5743 621.676 29.4463C621.676 29.3526 621.703 29.261 621.754 29.182C621.804 29.103 621.875 29.0398 621.96 28.9997C622.045 28.9612 622.139 28.9465 622.232 28.9573C622.325 28.968 622.414 29.0037 622.488 29.0606C626.761 32.3796 632.749 30.9688 635.125 30.2075C637.275 29.5054 639.38 28.6715 641.428 27.7106C643.491 26.7094 645.612 25.8349 647.782 25.0919C650.323 24.2647 653.05 24.1998 655.628 24.905C658.205 25.6103 660.52 27.0549 662.286 29.0606C663.604 30.5178 664.606 32.2327 665.228 34.0968C665.85 35.9609 666.079 37.9337 665.899 39.8906C665.701 40.9736 665.294 42.0077 664.702 42.9356C664.225 43.8085 663.687 44.8032 663.819 45.2803C664.509 47.899 661.85 49.6143 659.911 50.8628C659.566 51.0861 659.231 51.2992 658.947 51.5022C656.52 53.194 653.633 54.1008 650.674 54.1006ZM626.639 37.8606C626.463 37.8408 626.285 37.8626 626.12 37.9244C625.954 37.9861 625.805 38.0859 625.685 38.2159C625.582 38.4264 625.524 38.6563 625.515 38.8906C625.507 39.1248 625.547 39.3584 625.634 39.576C626.294 41.7785 628.314 43.3213 630.506 44.8438C632.238 45.964 634.121 46.8288 636.099 47.4118C637.299 47.8107 638.478 48.2715 639.631 48.7922C640.646 49.2794 641.661 49.8072 642.565 50.3654C644.516 51.6612 646.708 52.5517 649.01 52.9841C652.314 53.4147 655.66 52.5927 658.388 50.6801C658.683 50.4669 659.028 50.2436 659.403 50.0102C661.18 48.8632 663.382 47.4422 662.875 45.5442C662.651 44.6713 663.199 43.6461 663.89 42.4992C664.381 41.6589 664.717 40.7377 664.884 39.779C665.049 37.9652 664.837 36.1369 664.26 34.4093C663.684 32.6817 662.756 31.0921 661.535 29.7406C659.899 27.8822 657.755 26.5431 655.367 25.8884C652.979 25.2337 650.451 25.292 648.096 26.0562C645.964 26.7848 643.879 27.6459 641.854 28.6343C639.769 29.638 637.627 30.5192 635.439 31.2733C630.547 32.8364 625.99 32.5623 622.752 30.5628C623.028 32.1608 623.875 33.6039 625.137 34.6228C625.867 35.2688 626.734 35.7413 627.673 36.005C628.611 36.2686 629.597 36.3166 630.557 36.1453C630.637 36.13 630.719 36.1341 630.796 36.157C630.874 36.18 630.945 36.2212 631.004 36.2772C631.066 36.3315 631.114 36.4014 631.14 36.4799C631.167 36.5584 631.172 36.6426 631.156 36.7238C631.121 36.9304 631.044 37.1274 630.928 37.3022C630.813 37.477 630.662 37.6257 630.486 37.7388C629.736 38.1597 628.853 38.276 628.02 38.0636C627.567 37.9524 627.105 37.8844 626.639 37.8606Z" fill="#231F20"/>
<path d="M640.139 60.1897L637.683 69.8322C637.683 69.8322 640.413 76.1252 646.929 74.9072C653.446 73.6892 654.745 68.8172 654.755 68.8172L655.851 58.4337L656.531 52.0494C656.702 51.3936 656.781 50.7172 656.765 50.0397C656.359 48.5882 654.542 47.7965 654.014 46.2943C652.958 43.2853 653.1 39.9855 654.41 37.0781C651.69 39.2705 648.563 41.5035 645.072 41.2701C645.777 40.5314 646.412 39.7296 646.97 38.8747L640.139 41.3107C639.252 41.6028 638.342 41.8201 637.419 41.9603C636.404 42.1531 636.8 41.5137 636.028 42.752C634.12 45.797 633.856 51.0547 634.242 54.5564C634.79 59.5299 640.139 60.1897 640.139 60.1897Z" fill="white"/>
<path d="M645.255 75.5365C639.682 75.5365 637.236 70.0859 637.216 70.0352C637.175 69.9272 637.175 69.8082 637.216 69.7002L639.54 60.5652C638.089 60.21 634.242 58.8702 633.765 54.4752C633.369 50.9126 633.633 45.594 635.632 42.346L635.683 42.2546C636.16 41.4934 636.312 41.2396 636.881 41.331C637.038 41.3689 637.201 41.3689 637.358 41.331C638.253 41.1945 639.136 40.9841 639.997 40.7017L646.828 38.2555C646.929 38.2209 647.038 38.219 647.14 38.25C647.242 38.2809 647.332 38.3433 647.396 38.4281C647.456 38.5146 647.488 38.6173 647.488 38.7224C647.488 38.8276 647.456 38.9303 647.396 39.0168C647.03 39.5727 646.634 40.1081 646.209 40.6205C649.112 40.3566 651.771 38.4078 654.065 36.5605C654.154 36.4897 654.265 36.4512 654.379 36.4512C654.494 36.4512 654.604 36.4897 654.694 36.5605C654.787 36.6278 654.853 36.7258 654.881 36.8372C654.909 36.9486 654.897 37.0663 654.846 37.1695C653.594 39.9631 653.459 43.1306 654.471 46.0203C654.761 46.6848 655.198 47.2748 655.75 47.7458C656.421 48.3089 656.935 49.0363 657.242 49.857C657.318 50.4002 657.28 50.9534 657.13 51.481C657.13 51.684 657.059 51.8667 657.039 52.0088L655.262 68.7766C655.262 68.7766 653.943 74.0241 647.041 75.3639C646.452 75.4789 645.854 75.5367 645.255 75.5365ZM638.21 69.7814C638.677 70.7254 641.255 75.4451 646.828 74.3692C652.969 73.1817 654.247 68.6446 654.258 68.5939L656.024 51.9073C656.024 51.7347 656.085 51.5216 656.125 51.2881C656.231 50.912 656.276 50.5213 656.257 50.131C655.992 49.4803 655.566 48.9076 655.019 48.4664C654.37 47.9106 653.853 47.2171 653.507 46.4364C652.62 43.8896 652.546 41.1306 653.293 38.5397C650.878 40.3566 648.107 41.9501 645.021 41.7471C644.925 41.7412 644.832 41.7074 644.755 41.6497C644.677 41.592 644.618 41.513 644.585 41.4223C644.55 41.3321 644.541 41.2339 644.559 41.1388C644.576 41.0438 644.621 40.9556 644.686 40.8844C645.001 40.5596 645.305 40.2246 645.59 39.8694L640.301 41.7573C639.416 42.0573 638.506 42.2781 637.581 42.417C637.319 42.4586 637.052 42.4586 636.789 42.417L636.515 42.8535L636.465 42.9347C634.719 45.7767 634.343 50.7502 634.739 54.4245C635.237 58.9818 639.997 59.672 640.2 59.6923C640.271 59.7027 640.34 59.7279 640.401 59.7664C640.462 59.8048 640.515 59.8557 640.555 59.9156C640.596 59.974 640.623 60.0406 640.636 60.1108C640.648 60.1809 640.645 60.2529 640.626 60.3216L638.21 69.7814Z" fill="#231F20"/>
<path d="M638.84 65.2655C639.938 65.5332 641.086 65.5289 642.182 65.253C643.279 64.9771 644.292 64.4379 645.133 63.6821C648.097 61.0736 647.985 58.7695 647.985 58.7695C645.649 60.2326 642.84 60.7414 640.139 60.1905L638.84 65.2655Z" fill="#231F20"/>
<path d="M640.524 65.9865C639.925 65.9954 639.327 65.9202 638.748 65.7632C638.623 65.7254 638.518 65.6411 638.454 65.5278C638.389 65.4144 638.371 65.2806 638.403 65.1542L639.692 60.0792C639.709 60.0145 639.738 59.9537 639.778 59.9003C639.818 59.8469 639.868 59.8019 639.926 59.768C639.983 59.7341 640.047 59.7118 640.113 59.7025C640.179 59.6932 640.246 59.6971 640.311 59.7138C642.876 60.209 645.534 59.7159 647.751 58.3334C647.825 58.2821 647.911 58.2516 648.001 58.2454C648.09 58.2391 648.18 58.2572 648.26 58.2978C648.34 58.3384 648.408 58.4 648.456 58.4759C648.504 58.5519 648.53 58.6395 648.533 58.7293C648.533 58.8308 648.624 61.3074 645.488 64.0479C644.129 65.2847 642.361 65.9753 640.524 65.9865ZM639.509 64.9005C640.461 65.0489 641.434 64.9838 642.357 64.7099C643.28 64.436 644.131 63.9603 644.848 63.3171C646.002 62.3846 646.871 61.1466 647.355 59.7443C645.266 60.8337 642.879 61.2149 640.555 60.8303L639.509 64.9005Z" fill="#231F20"/>
<path d="M644.179 45.0273C644.179 45.0273 640.403 49.7775 641.134 50.7215C641.865 51.6654 644.179 51.2594 644.179 51.2594" fill="white"/>
<path d="M643.093 51.8569C642.664 51.898 642.232 51.8478 641.824 51.7096C641.416 51.5713 641.043 51.3483 640.728 51.055C639.926 50.04 641.946 46.995 643.773 44.7316C643.813 44.6787 643.864 44.6345 643.922 44.6016C643.98 44.5687 644.044 44.5479 644.111 44.5403C644.177 44.5327 644.244 44.5386 644.308 44.5575C644.372 44.5764 644.432 44.608 644.483 44.6504C644.588 44.7341 644.655 44.8558 644.67 44.9889C644.685 45.122 644.647 45.2557 644.564 45.3609C642.808 47.5736 641.387 49.9588 641.519 50.4359C641.905 50.9332 643.387 50.8723 644.026 50.7607C644.159 50.7399 644.295 50.7718 644.405 50.8494C644.515 50.9271 644.59 51.0446 644.615 51.1769C644.627 51.2429 644.625 51.3105 644.61 51.3759C644.596 51.4413 644.568 51.5032 644.53 51.5579C644.491 51.6127 644.442 51.6592 644.385 51.6948C644.328 51.7305 644.265 51.7545 644.199 51.7655C643.833 51.8207 643.463 51.8512 643.093 51.8569Z" fill="#231F20"/>
<path d="M648.259 46.1794C648.719 46.1775 649.089 45.6488 649.087 44.9985C649.084 44.3483 648.709 43.8227 648.249 43.8246C647.79 43.8266 647.419 44.3553 647.422 45.0055C647.425 45.6558 647.799 46.1813 648.259 46.1794Z" fill="#231F20"/>
<path d="M641.178 44.65C641.367 44.0278 641.164 43.4151 640.724 43.2816C640.284 43.148 639.774 43.5442 639.585 44.1664C639.396 44.7886 639.6 45.4012 640.04 45.5348C640.479 45.6683 640.989 45.2722 641.178 44.65Z" fill="#231F20"/>
<path d="M643.458 55.6237C640.938 55.5126 638.505 54.6618 636.465 53.1775C636.408 53.1387 636.359 53.0885 636.322 53.03C636.284 52.9716 636.26 52.9061 636.249 52.8377C636.238 52.7693 636.241 52.6994 636.258 52.6322C636.275 52.5651 636.306 52.5022 636.348 52.4473C636.39 52.3925 636.443 52.3469 636.504 52.3134C636.565 52.2799 636.632 52.2591 636.701 52.2524C636.769 52.2457 636.839 52.2532 636.905 52.2744C636.971 52.2956 637.032 52.3301 637.084 52.3757C637.317 52.5584 642.859 56.7605 647.65 53.208C647.703 53.1597 647.765 53.1229 647.832 53.1002C647.9 53.0774 647.971 53.0691 648.042 53.0759C648.113 53.0827 648.182 53.1044 648.244 53.1395C648.306 53.1747 648.36 53.2225 648.403 53.2799C648.445 53.3373 648.475 53.403 648.49 53.4727C648.505 53.5423 648.506 53.6144 648.491 53.6842C648.477 53.7541 648.448 53.8201 648.406 53.8779C648.364 53.9358 648.311 53.9842 648.249 54.02C646.871 55.0654 645.188 55.6289 643.458 55.6237Z" fill="#231F20"/>
<path d="M653.964 49.1677C654.349 48.7902 654.807 48.4934 655.309 48.2948C655.811 48.0961 656.347 47.9995 656.887 48.0106C657.428 48.0351 657.952 48.2146 658.394 48.5276C658.837 48.8407 659.18 49.2742 659.384 49.7767C659.526 50.3699 659.515 50.9896 659.352 51.5774C659.188 52.1652 658.878 52.7017 658.45 53.1364C657.838 53.8357 657.087 54.3993 656.244 54.7909C655.402 55.1824 654.487 55.3933 653.558 55.41" fill="white"/>
<path d="M653.557 55.9371C653.423 55.9371 653.294 55.8836 653.199 55.7884C653.103 55.6933 653.05 55.5642 653.05 55.4296C653.049 55.3634 653.06 55.2977 653.085 55.2361C653.109 55.1746 653.146 55.1186 653.192 55.0713C653.238 55.0241 653.294 54.9865 653.355 54.9609C653.416 54.9353 653.481 54.9221 653.547 54.9221C654.406 54.91 655.252 54.7166 656.03 54.3545C656.809 53.9924 657.502 53.4698 658.064 52.821C658.432 52.4525 658.702 51.997 658.847 51.4967C658.993 50.9963 659.01 50.4673 658.896 49.9587C658.728 49.5531 658.448 49.2039 658.089 48.9521C657.729 48.7004 657.305 48.5566 656.866 48.5377C656.395 48.5262 655.927 48.6102 655.489 48.7846C655.051 48.9591 654.653 49.2204 654.319 49.5527C654.222 49.6464 654.093 49.6987 653.958 49.6987C653.824 49.6987 653.695 49.6464 653.598 49.5527C653.55 49.5056 653.513 49.4494 653.487 49.3876C653.461 49.3257 653.448 49.2594 653.448 49.1924C653.448 49.1254 653.461 49.0591 653.487 48.9972C653.513 48.9354 653.55 48.8793 653.598 48.8321C654.036 48.4094 654.555 48.0793 655.123 47.8613C655.692 47.6433 656.298 47.542 656.907 47.5633C657.545 47.5971 658.161 47.8128 658.681 48.1851C659.2 48.5574 659.603 49.0707 659.84 49.6644C660.019 50.3418 660.02 51.0539 659.842 51.7316C659.664 52.4092 659.314 53.0293 658.825 53.5315C658.165 54.2856 657.355 54.8929 656.446 55.3143C655.537 55.7356 654.549 55.9616 653.547 55.9777L653.557 55.9371Z" fill="#231F20"/>
<path d="M519.862 148.78C519.862 148.78 531.382 196.079 523.78 199.367C516.177 202.656 472.918 208.98 472.918 208.98L470.959 195.338C470.959 195.338 504.241 188.05 506.058 186.396C507.875 184.741 494.893 144.547 494.588 144.223C494.284 143.898 519.862 148.78 519.862 148.78Z" fill="#231F20"/>
<path d="M472.918 209.487C472.812 209.484 472.709 209.449 472.624 209.385C472.569 209.346 472.523 209.296 472.488 209.238C472.454 209.181 472.431 209.117 472.421 209.05L470.451 195.409C470.433 195.281 470.464 195.152 470.537 195.047C470.611 194.941 470.722 194.867 470.847 194.84C483.667 192.039 504.464 187.157 505.713 186.02C506.728 183.817 495.278 146.831 494.162 144.486C494.114 144.408 494.089 144.319 494.089 144.227C494.089 144.136 494.114 144.047 494.162 143.969C494.395 143.522 494.456 143.4 519.973 148.282C520.069 148.3 520.157 148.344 520.227 148.411C520.298 148.478 520.347 148.563 520.369 148.658C521.567 153.54 531.778 196.464 524.003 199.834C516.421 203.123 474.786 209.223 473.019 209.477L472.918 209.487ZM471.527 195.734L473.354 208.38C478.206 207.66 516.563 201.925 523.577 198.88C525.221 198.17 527.474 193.856 524.175 172.906C522.44 161.934 519.912 151.165 519.446 149.196C510.869 147.562 498.557 145.258 495.37 144.781C497.582 150.546 506.849 180.742 506.738 185.685C506.757 185.877 506.736 186.071 506.676 186.254C506.617 186.437 506.52 186.606 506.393 186.751C504.596 188.415 476.572 194.627 471.527 195.734Z" fill="#231F20"/>
<path d="M466.727 147.156L502.749 232.243L518.268 229.249L494.69 139.432L466.727 147.156Z" fill="#231F20"/>
<path d="M502.748 232.74C502.65 232.739 502.553 232.71 502.47 232.656C502.388 232.602 502.322 232.525 502.281 232.435L466.259 147.338C466.232 147.271 466.219 147.199 466.222 147.127C466.224 147.054 466.242 146.984 466.274 146.919C466.305 146.854 466.35 146.796 466.405 146.749C466.46 146.703 466.525 146.668 466.594 146.648L494.547 138.934C494.61 138.907 494.677 138.893 494.745 138.893C494.813 138.893 494.881 138.907 494.943 138.934C495.056 139.002 495.14 139.111 495.176 139.238L518.724 229.127C518.745 229.193 518.75 229.263 518.74 229.332C518.729 229.4 518.703 229.465 518.664 229.522C518.627 229.583 518.579 229.635 518.521 229.675C518.463 229.715 518.398 229.743 518.329 229.756L502.85 232.74H502.748ZM467.426 147.48L503.053 231.654L517.638 228.842L494.293 140.05L467.426 147.48Z" fill="#231F20"/>
<path d="M479.454 35.5978C476.86 33.7703 473.749 32.8234 470.577 32.8965C467.405 32.9696 464.34 34.0588 461.834 36.0038C459.929 37.494 458.482 39.4908 457.66 41.7654C456.838 44.0399 456.673 46.5 457.185 48.8638C457.837 51.1848 459.206 53.2403 461.097 54.7369C462.987 56.2334 465.302 57.0944 467.711 57.197C472.369 57.4305 477.272 53.4415 479.748 49.7875C482.743 45.3723 484.752 39.2518 479.454 35.5978Z" fill="white"/>
<path d="M468.106 57.7137H467.68C465.164 57.6136 462.745 56.7188 460.77 55.1577C458.795 53.5966 457.366 51.4497 456.687 49.0253C456.162 46.5652 456.336 44.0072 457.19 41.6411C458.044 39.2749 459.544 37.1952 461.519 35.6374C464.113 33.6095 467.293 32.4735 470.585 32.3985C473.877 32.3235 477.105 33.3136 479.789 35.2213C486.244 39.6365 482.184 47.0765 480.154 50.0403C477.647 53.8059 472.836 57.7137 468.106 57.7137ZM470.816 33.3537C467.666 33.3589 464.61 34.4323 462.148 36.3987C460.326 37.8342 458.941 39.7506 458.15 41.9315C457.359 44.1124 457.193 46.471 457.672 48.7411C458.29 50.9608 459.597 52.9268 461.405 54.3553C463.213 55.7838 465.428 56.6008 467.731 56.6885C471.994 56.8814 476.805 53.2375 479.332 49.5023C481.19 46.7517 484.894 39.9512 479.17 36.0231C476.716 34.3213 473.803 33.4046 470.816 33.3943V33.3537Z" fill="#231F20"/>
<path d="M470.086 43.3314C468.406 44.8066 467.133 46.6875 466.386 48.7949C465.64 50.9023 465.446 53.1657 465.823 55.3693C465.963 56.591 466.532 57.7236 467.427 58.5666C469.223 60.0282 471.944 59.1756 473.872 57.8967C476.987 55.7151 479.554 52.8421 481.373 49.5026C482.723 47.1478 484.763 41.8394 481.109 40.53C477.455 39.2207 472.766 41.0172 470.086 43.3314Z" fill="#231F20"/>
<path d="M469.72 59.8358C468.772 59.8596 467.845 59.5508 467.101 58.9629C466.1 58.0485 465.468 56.7993 465.325 55.451C464.928 53.1606 465.127 50.8066 465.902 48.615C466.677 46.4235 468.002 44.4679 469.75 42.9361C472.542 40.5305 477.536 38.7035 481.281 40.0433C481.766 40.1997 482.209 40.4635 482.578 40.8149C482.947 41.1664 483.233 41.5965 483.412 42.0733C484.427 44.9559 482.093 49.2392 481.809 49.7163C479.957 53.1274 477.337 56.0604 474.156 58.2829C472.853 59.2088 471.315 59.7472 469.72 59.8358ZM478.51 40.6219C475.534 40.7214 472.677 41.8109 470.39 43.7176C468.782 45.1374 467.565 46.9454 466.854 48.9692C466.143 50.993 465.963 53.1652 466.33 55.2785C466.445 56.3808 466.949 57.4062 467.751 58.1712C469.344 59.4603 471.811 58.6483 473.607 57.4709C476.659 55.3374 479.171 52.5226 480.946 49.2494C481.849 47.666 483.199 44.4586 482.468 42.4692C482.346 42.125 482.144 41.8144 481.88 41.5623C481.615 41.3102 481.296 41.1237 480.946 41.0177C480.163 40.7447 479.339 40.6107 478.51 40.6219Z" fill="#231F20"/>
<path d="M488.863 72.1367C488.063 72.9118 487.219 73.6405 486.336 74.3189C484.586 75.3435 482.605 75.9079 480.578 75.9594C478.551 76.0109 476.544 75.5477 474.745 74.6133C466.168 70.198 466.371 60.1698 468.147 52.0092C468.868 48.6902 471.294 41.7679 475.77 45.229C474.46 44.214 479.83 40.8544 480.652 40.5397C486.356 38.2154 492.416 41.5547 495.755 46.1933C497.73 48.8452 499.405 51.7081 500.749 54.7294C502.068 58.0586 500.627 62.6261 498.719 65.458C497.245 67.6524 495.203 69.4063 492.812 70.533C491.705 71.0506 490.284 71.1826 489.259 71.822L488.863 72.1367Z" fill="white"/>
<path d="M480.368 76.4305C478.335 76.4328 476.33 75.9491 474.522 75.0196C467.417 71.3657 465.102 63.5806 467.65 51.8675C467.995 50.2841 469.345 45.0264 472.339 43.9302C472.809 43.7676 473.307 43.7088 473.802 43.7578C474.296 43.8069 474.773 43.9627 475.202 44.2144C476.024 42.4686 480.165 40.1544 480.459 40.0326C486.62 37.5256 492.923 41.2912 496.171 45.8587C498.185 48.5364 499.887 51.4342 501.246 54.4964C502.637 57.9879 501.165 62.7483 499.216 65.6614C497.702 67.9344 495.596 69.752 493.126 70.9191C492.595 71.1518 492.045 71.3385 491.482 71.4773C490.839 71.6323 490.219 71.8676 489.635 72.1776C489.503 72.269 489.371 72.3603 489.249 72.4618C488.893 72.7281 488.554 73.0162 488.234 73.3246C487.749 73.83 487.211 74.2825 486.63 74.6745C484.747 75.8308 482.578 76.4388 480.368 76.4305ZM473.435 44.7524C473.179 44.7508 472.925 44.7955 472.684 44.8843C470.654 45.6151 469.264 49.2184 468.624 52.0807C466.188 63.2457 468.32 70.7059 474.958 74.1163C476.679 75.0118 478.599 75.4572 480.539 75.411C482.479 75.3649 484.375 74.8287 486.052 73.8524C486.57 73.4965 487.052 73.092 487.493 72.6445C487.815 72.3122 488.154 71.9972 488.508 71.7006C488.661 71.5799 488.82 71.4681 488.985 71.3657C489.644 70.9878 490.356 70.7107 491.096 70.5435C491.607 70.4159 492.106 70.2462 492.589 70.036C494.899 68.949 496.871 67.2545 498.293 65.1336C500.1 62.4032 501.48 58.0286 500.231 54.8719C498.932 51.9049 497.305 49.0927 495.38 46.488C492.335 42.2352 486.519 38.7131 480.875 41.0172C479.86 41.4232 476.054 44.0622 476.105 44.8234C476.157 44.8634 476.201 44.9132 476.233 44.9701C476.266 45.0269 476.287 45.0896 476.296 45.1547C476.304 45.2197 476.3 45.2858 476.283 45.3491C476.266 45.4124 476.236 45.4718 476.196 45.5238C476.156 45.5757 476.106 45.6193 476.05 45.6521C475.993 45.6848 475.93 45.706 475.865 45.7145C475.8 45.723 475.734 45.7185 475.671 45.7015C475.607 45.6844 475.548 45.6551 475.496 45.6151C474.92 45.1191 474.195 44.8297 473.435 44.793V44.7524Z" fill="#231F20"/>
<path d="M495.247 52.9026C495.247 52.9026 498.607 60.2208 497.795 66.0976C497.608 67.7265 496.951 69.2658 495.903 70.5274C494.856 71.7891 493.464 72.7187 491.898 73.2026L492.781 83.3526C492.781 83.3526 493.288 88.5494 486.843 88.3058C484.973 88.2331 483.152 87.684 481.554 86.7106C479.955 85.7372 478.631 84.3717 477.708 82.7436L475.384 64.1285C475.384 64.1285 482.245 59.3479 481.027 52.6895C481.027 52.6895 489.969 56.1303 495.247 52.9026Z" fill="white"/>
<path d="M487.26 88.8234H486.803C484.845 88.7506 482.94 88.1755 481.269 87.1534C479.598 86.1313 478.218 84.6966 477.262 82.9871C477.257 82.9331 477.257 82.8788 477.262 82.8247L474.917 64.1893C474.902 64.0977 474.915 64.0038 474.953 63.919C474.99 63.8343 475.052 63.7624 475.13 63.7123C475.191 63.7123 481.697 59.0331 480.561 52.7807C480.547 52.6916 480.556 52.6005 480.586 52.5155C480.616 52.4305 480.667 52.3543 480.733 52.2935C480.804 52.2387 480.888 52.2026 480.977 52.1884C481.065 52.1742 481.156 52.1824 481.241 52.2123C481.332 52.2123 490.02 55.4908 495.014 52.4661C495.078 52.4387 495.147 52.4246 495.217 52.4246C495.287 52.4246 495.356 52.4387 495.42 52.4661C495.489 52.4862 495.553 52.5212 495.608 52.5685C495.662 52.6158 495.705 52.6744 495.735 52.7401C495.877 53.0446 499.155 60.2613 498.333 66.199C498.13 67.8538 497.476 69.4208 496.441 70.7278C495.406 72.0349 494.031 73.0316 492.467 73.6085L493.319 83.3728C493.362 84.0677 493.268 84.7642 493.041 85.4225C492.815 86.0808 492.461 86.6881 492 87.2095C491.366 87.7948 490.617 88.2408 489.801 88.5188C488.984 88.7968 488.119 88.9005 487.26 88.8234ZM478.206 82.6014C479.086 84.1305 480.34 85.4107 481.851 86.3216C483.362 87.2324 485.08 87.7441 486.843 87.8084C487.623 87.9124 488.416 87.8465 489.167 87.6152C489.919 87.384 490.612 86.9928 491.198 86.4686C491.922 85.6257 492.286 84.5323 492.213 83.4236L491.33 73.2736C491.321 73.153 491.355 73.0332 491.425 72.9349C491.496 72.8366 491.598 72.7661 491.715 72.7356C493.19 72.2823 494.498 71.4056 495.478 70.2145C496.458 69.0235 497.066 67.5706 497.227 66.0366C497.897 61.256 495.664 55.3791 494.943 53.6435C490.396 55.978 483.849 54.2017 481.586 53.4709C482.114 59.2767 477.079 63.4687 475.861 64.3923L478.206 82.6014Z" fill="#231F20"/>
<path d="M478.795 62.5057C478.795 62.5057 475.029 55.7255 471.882 60.4757C468.736 65.2259 474.318 69.6107 477.424 68.9611" fill="white"/>
<path d="M476.734 69.5485C475.683 69.4757 474.663 69.1635 473.752 68.6357C472.841 68.1079 472.062 67.3786 471.476 66.5035C470.816 65.5815 470.461 64.4759 470.461 63.3418C470.461 62.2077 470.816 61.1021 471.476 60.1801C471.766 59.6174 472.202 59.1428 472.737 58.8054C473.273 58.468 473.889 58.2803 474.521 58.2617C477.089 58.3632 479.18 62.0781 479.272 62.2405C479.303 62.2992 479.324 62.3635 479.331 62.43C479.338 62.4964 479.332 62.5636 479.313 62.6277C479.294 62.6918 479.263 62.7515 479.221 62.8035C479.179 62.8555 479.127 62.8987 479.069 62.9307C479.01 62.9627 478.945 62.9828 478.879 62.9899C478.813 62.9971 478.745 62.991 478.681 62.9722C478.617 62.9533 478.558 62.922 478.506 62.8801C478.454 62.8381 478.41 62.7864 478.378 62.7277C477.861 61.7939 476.135 59.3376 474.481 59.2767C474.027 59.3125 473.591 59.4662 473.215 59.7226C472.84 59.979 472.538 60.3291 472.339 60.7383C471.79 61.4917 471.495 62.3997 471.495 63.3316C471.495 64.2636 471.79 65.1716 472.339 65.925C473.547 67.6708 475.78 68.8076 477.343 68.4625C477.478 68.4329 477.618 68.4579 477.735 68.5322C477.851 68.6064 477.933 68.7237 477.962 68.8583C477.992 68.9929 477.967 69.1338 477.892 69.2499C477.818 69.366 477.701 69.4479 477.566 69.4775C477.293 69.5341 477.013 69.5579 476.734 69.5485Z" fill="#231F20"/>
<path d="M491.949 66.9811C491.477 66.9796 491.005 66.9388 490.539 66.8593C490.472 66.8479 490.408 66.8236 490.351 66.7876C490.294 66.7516 490.244 66.7048 490.205 66.6496C490.166 66.5945 490.138 66.5322 490.123 66.4663C490.108 66.4004 490.106 66.3321 490.117 66.2655C490.129 66.1988 490.153 66.1351 490.189 66.0778C490.225 66.0206 490.272 65.971 490.327 65.9319C490.382 65.8928 490.444 65.8649 490.51 65.8499C490.576 65.8348 490.644 65.8329 490.711 65.8443C491.655 66.0322 492.633 65.9656 493.543 65.6514C493.543 65.0627 492.031 62.8805 490.214 60.8606C490.166 60.8143 490.129 60.759 490.103 60.698C490.078 60.637 490.064 60.5715 490.064 60.5054C490.064 60.4392 490.078 60.3737 490.103 60.3127C490.129 60.2517 490.166 60.1964 490.214 60.1501C490.261 60.1025 490.317 60.0648 490.379 60.039C490.441 60.0133 490.507 60 490.574 60C490.641 60 490.707 60.0133 490.769 60.039C490.831 60.0648 490.887 60.1025 490.934 60.1501C491.817 61.1651 494.69 64.4436 494.497 65.8037C494.484 65.9334 494.442 66.0585 494.373 66.1694C494.305 66.2803 494.212 66.3739 494.101 66.4431C493.444 66.8101 492.702 66.9957 491.949 66.9811Z" fill="#231F20"/>
<path d="M489.797 70.34C489.458 70.3423 489.118 70.3185 488.782 70.2689C486.959 70.0023 485.299 69.0693 484.124 67.6502C484.058 67.5331 484.041 67.3947 484.077 67.2653C484.113 67.1359 484.199 67.0261 484.316 66.96C484.434 66.897 484.572 66.8818 484.7 66.9177C484.829 66.9537 484.939 67.0379 485.007 67.1529C486.065 68.3217 487.504 69.077 489.067 69.2844C491.097 69.5178 493.005 68.7058 494.862 66.8991C494.908 66.8464 494.964 66.8036 495.028 66.7737C495.091 66.7437 495.159 66.7271 495.229 66.7249C495.299 66.7227 495.369 66.7349 495.434 66.7609C495.499 66.7869 495.558 66.826 495.607 66.8758C495.656 66.9256 495.694 66.985 495.719 67.0503C495.744 67.1156 495.755 67.1853 495.752 67.2552C495.749 67.3251 495.731 67.3935 495.701 67.4562C495.67 67.519 495.626 67.5747 495.573 67.6198C494.082 69.2527 492.006 70.2304 489.797 70.34Z" fill="#231F20"/>
<path d="M491.898 73.2031C491.898 73.2031 486.529 74.3602 483.342 73.8324C483.342 73.8324 487.402 81.5464 492.599 81.0491L491.898 73.2031Z" fill="#231F20"/>
<path d="M492.121 81.5764C486.945 81.5764 483.057 74.3902 482.895 74.0755C482.845 73.9945 482.819 73.9014 482.819 73.8065C482.819 73.7117 482.845 73.6186 482.895 73.5376C482.952 73.4623 483.028 73.4038 483.116 73.3681C483.203 73.3324 483.299 73.3208 483.392 73.3346C486.437 73.8319 491.705 72.7154 491.756 72.7053C491.827 72.6894 491.902 72.6894 491.974 72.7052C492.046 72.7209 492.113 72.7521 492.172 72.7966C492.229 72.8381 492.277 72.8912 492.312 72.9524C492.347 73.0137 492.368 73.0816 492.375 73.1519L493.075 80.9978C493.082 81.0645 493.076 81.132 493.057 81.1962C493.037 81.2605 493.006 81.3203 492.963 81.3722C492.921 81.4241 492.868 81.4671 492.809 81.4987C492.75 81.5302 492.685 81.5497 492.618 81.5561L492.121 81.5764ZM484.295 74.4714C485.463 76.3187 488.498 80.5614 492.05 80.5614L491.441 73.8116C489.09 74.2867 486.694 74.5011 484.295 74.4511V74.4714Z" fill="#231F20"/>
<path d="M487.144 61.1661C487.583 61.1036 487.849 60.4322 487.74 59.6663C487.631 58.9005 487.187 58.3303 486.749 58.3927C486.31 58.4552 486.044 59.1267 486.153 59.8925C486.262 60.6584 486.706 61.2286 487.144 61.1661Z" fill="#231F20"/>
<path d="M494.464 60.1134C494.903 60.0509 495.17 59.3794 495.061 58.6136C494.952 57.8477 494.508 57.2775 494.069 57.34C493.631 57.4025 493.364 58.074 493.473 58.8398C493.582 59.6057 494.026 60.1759 494.464 60.1134Z" fill="#231F20"/>
<path d="M665.301 90.9046L582.234 47.4423C581.443 47.0281 580.552 46.8444 579.663 46.9122C578.773 46.98 577.92 47.2965 577.201 47.8256C576.483 48.3547 575.927 49.0752 575.599 49.9047C575.27 50.7343 575.181 51.6396 575.342 52.5173L578.58 70.7873L439.423 95.4518C439.042 95.5191 438.677 95.6611 438.351 95.8696C438.024 96.0781 437.742 96.349 437.52 96.6668C437.299 96.9846 437.142 97.343 437.059 97.7215C436.976 98.1 436.969 98.4911 437.038 98.8723L449.553 169.384C449.689 170.153 450.125 170.836 450.764 171.283C451.404 171.73 452.195 171.905 452.963 171.77L592.13 147.075L595.368 165.345C595.525 166.218 595.924 167.031 596.519 167.69C597.113 168.349 597.881 168.829 598.734 169.075C599.587 169.321 600.492 169.323 601.346 169.082C602.2 168.841 602.97 168.365 603.569 167.71L666.621 98.3141C667.106 97.7746 667.462 97.1314 667.661 96.4335C667.861 95.7357 667.898 95.0015 667.771 94.287C667.644 93.5725 667.355 92.8965 666.927 92.3103C666.499 91.7242 665.943 91.2434 665.301 90.9046Z" fill="white"/>
<path d="M452.445 172.328C451.74 172.323 451.053 172.104 450.476 171.698C450.103 171.441 449.786 171.112 449.542 170.73C449.298 170.348 449.132 169.922 449.055 169.476L436.51 98.9533C436.431 98.5068 436.441 98.0491 436.539 97.6063C436.637 97.1636 436.821 96.7446 437.082 96.3732C437.342 96.0018 437.673 95.6853 438.055 95.4418C438.438 95.1984 438.864 95.0327 439.311 94.9542L577.99 70.3405L574.844 52.5678C574.676 51.6004 574.782 50.6053 575.15 49.6949C575.518 48.7845 576.133 47.995 576.926 47.4156C577.718 46.8361 578.657 46.4897 579.636 46.4155C580.615 46.3412 581.596 46.5421 582.467 46.9955L665.544 90.4679C666.257 90.8405 666.876 91.3718 667.351 92.0208C667.826 92.6699 668.147 93.4194 668.287 94.2116C668.427 95.0039 668.384 95.8177 668.16 96.5905C667.936 97.3633 667.538 98.0744 666.996 98.6691L603.985 168.065C603.321 168.79 602.469 169.316 601.522 169.582C600.576 169.848 599.575 169.844 598.631 169.57C597.687 169.297 596.838 168.765 596.18 168.034C595.523 167.303 595.083 166.403 594.911 165.436L591.754 147.663L453.054 172.267C452.854 172.307 452.65 172.328 452.445 172.328ZM580.01 47.3913C579.111 47.3985 578.237 47.6898 577.513 48.2236C576.866 48.6874 576.365 49.3263 576.068 50.0653C575.771 50.8043 575.692 51.6126 575.839 52.3953L579.087 70.6653C579.107 70.7983 579.076 70.9341 578.998 71.044C578.92 71.1539 578.803 71.2292 578.671 71.254L439.555 95.9489C438.918 96.0694 438.354 96.4336 437.981 96.9639C437.598 97.4792 437.434 98.1248 437.525 98.7605L450.04 169.273C450.153 169.91 450.515 170.477 451.046 170.848C451.577 171.219 452.234 171.364 452.871 171.252L592.028 146.557C592.159 146.536 592.294 146.566 592.404 146.642C592.513 146.717 592.59 146.832 592.617 146.963L595.854 165.233C595.992 166.016 596.346 166.745 596.877 167.336C597.408 167.928 598.095 168.358 598.859 168.578C599.623 168.798 600.433 168.799 601.198 168.581C601.962 168.363 602.65 167.934 603.183 167.344L666.235 97.9485C666.67 97.4673 666.989 96.893 667.168 96.2695C667.347 95.646 667.381 94.9898 667.267 94.3511C667.154 93.7124 666.895 93.1082 666.512 92.5847C666.129 92.0612 665.632 91.6322 665.057 91.3307L581.99 47.8887C581.381 47.5632 580.701 47.3924 580.01 47.3913Z" fill="#231F20"/>
<path d="M578.326 64.7778C577.209 64.4023 576.072 64.0673 574.935 63.7628C574.23 63.5138 573.465 63.4854 572.743 63.6816C571.728 64.0775 571.21 65.2853 570.845 66.3511C570.307 67.9852 569.749 69.731 570.216 71.4261C570.896 73.8418 573.474 75.1714 575.89 75.8312C577.072 76.2061 578.323 76.3169 579.554 76.156C586.73 74.8568 583.096 66.3815 578.326 64.7778Z" fill="white"/>
<path d="M578.549 76.7351C577.603 76.7124 576.665 76.5657 575.757 76.2986C573.859 75.7911 570.55 74.4919 569.728 71.5484C569.2 69.6808 569.85 67.7625 570.368 66.2095C570.763 65.022 571.301 63.7025 572.56 63.2254C573.379 62.9861 574.253 63.011 575.057 63.2965C576.214 63.5807 577.371 63.9258 578.488 64.3115C581.644 65.3265 584.304 69.2139 584.07 72.3706C583.979 73.6901 583.268 75.9941 579.645 76.6539C579.282 76.7107 578.916 76.7379 578.549 76.7351ZM573.534 64.078C573.32 64.0745 573.107 64.1089 572.905 64.1795C572.053 64.4942 571.636 65.5599 571.312 66.5343C570.723 68.27 570.297 69.8229 570.682 71.2744C571.372 73.7307 574.316 74.8675 576.001 75.3344C577.111 75.6883 578.285 75.7991 579.442 75.6592C581.665 75.2633 582.903 74.0961 583.035 72.2995C583.238 69.6098 580.853 66.2095 578.143 65.2757C577.046 64.9103 575.92 64.5855 574.793 64.2607C574.383 64.1465 573.96 64.0851 573.534 64.078Z" fill="#231F20"/>
<path d="M452.333 101.938C452.603 101.938 452.87 101.879 453.115 101.766C455.703 100.639 455.338 95.8584 455.561 93.5239C455.683 92.2145 455.652 90.6311 454.546 89.9511C452.049 88.4387 448.578 89.0985 446.314 90.7631C444.051 92.4277 443.553 95.5742 443.807 98.2741C443.899 99.35 443.98 101.735 444.954 102.405C446.253 103.319 447.786 100.801 447.756 99.6849V100.588C447.741 101.005 447.799 101.42 447.928 101.816C447.991 102.017 448.103 102.199 448.254 102.346C448.404 102.493 448.589 102.6 448.791 102.659C449.44 102.791 450.029 102.222 450.293 101.644C450.48 101.012 450.704 100.392 450.963 99.7864C450.766 100.063 450.681 100.404 450.724 100.741C450.768 101.077 450.936 101.385 451.196 101.603C451.52 101.852 451.926 101.972 452.333 101.938Z" fill="white"/>
<path d="M448.994 103.186C448.893 103.196 448.791 103.196 448.69 103.186C448.403 103.112 448.139 102.967 447.923 102.765C447.707 102.563 447.545 102.31 447.452 102.029C447.452 102.029 447.452 101.957 447.452 101.917C447.189 102.323 446.843 102.669 446.437 102.932C446.161 103.102 445.839 103.182 445.516 103.162C445.192 103.142 444.883 103.023 444.63 102.82C443.564 102.079 443.402 100.039 443.3 98.6892V98.3238C443.067 95.7761 443.3 92.3251 446.021 90.356C448.223 88.7219 451.918 87.7678 454.81 89.5136C456.221 90.3662 456.211 92.2338 456.089 93.5736C456.089 93.9999 456.028 94.4972 455.998 95.0352C455.896 97.6336 455.744 101.186 453.339 102.242C453.019 102.384 452.673 102.457 452.324 102.455C451.789 102.476 451.264 102.307 450.842 101.978L450.72 101.805C450.589 102.173 450.358 102.497 450.053 102.741C449.749 102.984 449.382 103.138 448.994 103.186ZM448.243 99.6737V100.567C448.232 100.931 448.28 101.294 448.385 101.643C448.42 101.763 448.484 101.873 448.57 101.963C448.657 102.053 448.764 102.121 448.883 102.16C449.228 102.232 449.624 101.836 449.806 101.409C449.904 101.172 449.986 100.927 450.05 100.679L450.202 100.171C450.257 99.8984 450.379 99.6438 450.558 99.4301C450.641 99.3406 450.754 99.2844 450.876 99.2718C450.998 99.2592 451.12 99.2911 451.22 99.3616C451.321 99.432 451.392 99.5364 451.421 99.6553C451.45 99.7742 451.436 99.8997 451.38 100.009C451.307 100.142 451.246 100.281 451.197 100.425C451.187 100.475 451.187 100.527 451.197 100.577C451.215 100.812 451.324 101.031 451.502 101.186C451.727 101.368 452.015 101.456 452.303 101.43C452.505 101.426 452.705 101.384 452.892 101.308C454.719 100.506 454.851 97.3189 454.922 94.9844C454.922 94.4262 454.922 93.9085 455.003 93.4721C455.166 91.7872 454.912 90.8128 454.222 90.4271C451.836 88.9858 448.558 89.7267 446.548 91.2086C444.265 92.9037 444.031 95.9791 444.234 98.3136V98.6892C444.315 99.6331 444.468 101.602 445.137 102.069C445.231 102.135 445.343 102.17 445.457 102.17C445.572 102.17 445.683 102.135 445.777 102.069C446.152 101.8 446.467 101.457 446.703 101.06C446.938 100.664 447.09 100.223 447.147 99.7651C447.144 99.6322 447.194 99.5035 447.285 99.4067C447.376 99.3099 447.502 99.2527 447.634 99.2474C447.769 99.2472 447.899 99.2986 447.997 99.3911C448.095 99.4836 448.154 99.6101 448.162 99.7448L448.243 99.6737Z" fill="#231F20"/>
<path d="M681.125 87.5039C681.125 87.5039 687.357 117.457 679.978 119.405C669.96 122.105 628.345 111.894 628.345 111.894C628.345 111.894 617.484 114.564 615.586 111.702C613.688 108.839 615.586 104.84 616.54 104.597C617.495 104.353 625.675 103.785 625.675 103.785C625.675 103.785 619.017 98.8821 621.108 98.5065C623.199 98.131 630.639 100.597 630.639 100.597C630.639 100.597 671.401 103.642 671.026 101.531C670.65 99.42 668.762 91.4827 668.762 91.4827" fill="white"/>
<path d="M675.339 120.36C661.281 120.36 630.973 113.042 628.385 112.412C626.781 112.798 617.22 114.96 615.19 111.986C614.668 111.097 614.365 110.097 614.307 109.068C614.249 108.039 614.437 107.011 614.855 106.069C615.018 105.663 615.637 104.323 616.469 104.15C617.301 103.978 621.96 103.622 624.335 103.43C622.356 101.897 620.001 99.8061 620.275 98.7302C620.322 98.5485 620.424 98.386 620.568 98.2658C620.712 98.1455 620.89 98.0736 621.077 98.0603C623.188 97.6746 629.776 99.8163 630.791 100.151C645.082 101.166 668.051 102.465 670.538 101.45C670.092 99.0956 668.356 91.7267 668.336 91.6455C668.305 91.5109 668.328 91.3695 668.402 91.2525C668.475 91.1354 668.592 91.0522 668.726 91.0213C668.861 90.9903 669.002 91.0141 669.119 91.0874C669.236 91.1607 669.32 91.2775 669.351 91.4121C669.432 91.7369 671.238 99.4103 671.614 101.491C671.634 101.594 671.629 101.701 671.599 101.802C671.569 101.902 671.515 101.994 671.441 102.07C669.797 103.907 639.834 101.836 630.689 101.156H630.567C628.537 100.476 622.996 98.8013 621.331 99.0652C621.585 99.7554 623.665 101.674 626.071 103.45C626.154 103.512 626.217 103.597 626.252 103.694C626.286 103.792 626.29 103.898 626.264 103.998C626.232 104.097 626.172 104.185 626.091 104.25C626.009 104.315 625.911 104.354 625.807 104.363C623.544 104.536 617.484 105.023 616.723 105.165C616.221 105.619 615.867 106.213 615.708 106.87C615.427 107.612 615.316 108.408 615.382 109.198C615.449 109.988 615.692 110.754 616.094 111.438C617.342 113.306 624.214 112.453 628.274 111.438C628.353 111.418 628.437 111.418 628.517 111.438C628.933 111.54 670.061 121.588 679.896 118.959C685.57 117.457 682.383 95.8476 680.678 87.6464C680.651 87.5118 680.679 87.372 680.755 87.2578C680.831 87.1436 680.949 87.0643 681.084 87.0374C681.219 87.0105 681.358 87.0381 681.473 87.1143C681.587 87.1904 681.666 87.3088 681.693 87.4434C682.343 90.5594 687.783 117.893 680.181 119.923C678.591 120.27 676.965 120.417 675.339 120.36Z" fill="#231F20"/>
<path d="M668.803 92.0422C668.689 92.0404 668.579 92.0004 668.491 91.9286C668.402 91.8568 668.341 91.7574 668.316 91.6463L663.718 72.1888C663.701 72.1241 663.698 72.0567 663.708 71.9907C663.718 71.9247 663.741 71.8614 663.776 71.8046C663.811 71.7478 663.857 71.6986 663.912 71.6599C663.966 71.6213 664.028 71.5941 664.093 71.5798C664.224 71.5519 664.36 71.5754 664.473 71.6454C664.586 71.7154 664.669 71.8264 664.702 71.9553L669.3 91.4129C669.331 91.5434 669.308 91.6807 669.238 91.7948C669.168 91.9089 669.055 91.9905 668.925 92.0219L668.803 92.0422Z" fill="#231F20"/>
<path d="M562.887 40.0217C562.812 40.0209 562.737 40.0021 562.67 39.9668C562.603 39.9315 562.545 39.8807 562.502 39.8187C562.467 39.7681 562.443 39.7111 562.43 39.651C562.417 39.5909 562.417 39.529 562.428 39.4686C562.439 39.4083 562.462 39.3508 562.496 39.2994C562.529 39.248 562.573 39.2037 562.624 39.1691C562.986 38.9277 563.273 38.5895 563.452 38.1929C563.632 37.7964 563.696 37.3574 563.639 36.9259C563.326 36.282 563.101 35.5994 562.969 34.8959C562.953 34.7906 562.973 34.683 563.027 34.5909C563.081 34.4989 563.165 34.4281 563.264 34.3902C563.364 34.3522 563.473 34.3495 563.575 34.3824C563.676 34.4153 563.763 34.4819 563.821 34.5711C564.194 35.193 564.439 35.8832 564.542 36.6011C564.661 36.8618 564.856 37.0809 565.1 37.2304C565.18 37.2664 565.268 37.2788 565.354 37.2662C565.44 37.2536 565.521 37.2165 565.587 37.1594C566.511 36.6113 565.587 33.3531 564.714 31.3333C564.689 31.2781 564.675 31.2184 564.673 31.1577C564.671 31.097 564.682 31.0365 564.703 30.9798C564.725 30.9231 564.758 30.8713 564.8 30.8274C564.842 30.7835 564.892 30.7485 564.948 30.7243C565.061 30.6756 565.189 30.6727 565.305 30.7162C565.42 30.7598 565.514 30.8463 565.567 30.9577C565.993 31.922 568.023 36.7838 566.064 37.9511C565.872 38.0877 565.646 38.171 565.411 38.1923C565.176 38.2137 564.939 38.1725 564.725 38.0729C564.641 38.0394 564.563 37.9951 564.491 37.9409C564.308 38.7453 563.821 39.4475 563.131 39.8999C563.062 39.9619 562.978 40.004 562.887 40.0217Z" fill="#231F20"/>
<path d="M510.605 200.535C510.502 200.536 510.403 200.502 510.322 200.44C510.241 200.377 510.183 200.289 510.158 200.19L501.104 166.36C501.083 166.296 501.076 166.228 501.083 166.161C501.09 166.094 501.112 166.029 501.147 165.971C501.181 165.913 501.228 165.864 501.284 165.826C501.34 165.788 501.403 165.762 501.47 165.751C501.59 165.72 501.717 165.738 501.823 165.801C501.93 165.864 502.007 165.966 502.038 166.086L511.092 199.916C511.123 200.034 511.107 200.16 511.046 200.267C510.985 200.373 510.885 200.451 510.767 200.484L510.605 200.535Z" fill="white"/>
</svg>
