<svg width="197" height="157" viewBox="0 0 197 157" fill="none" xmlns="http://www.w3.org/2000/svg">
<path d="M44.3228 138.822L14.6216 122.546C21.4432 112.122 21.9616 106.174 23.1281 97.8926C26.8732 71.3975 53.1431 54.4868 73.5738 40.5503C75.2945 39.337 77.0774 38.2145 78.9151 37.1872C81.0912 36.0207 87.1011 32.4121 88.7041 35.7479C90.2253 38.9472 86.453 44.7728 84.5702 47.1126C85.8066 45.2593 87.1745 43.497 88.6632 41.8395C89.1278 41.2209 89.7705 40.7591 90.505 40.5162C91.8694 40.2024 93.1927 41.5121 93.4042 42.8969C93.6157 44.2817 93.0359 45.6665 92.3946 46.9216C90.8752 49.9315 88.9745 52.7332 86.7395 55.2576C88.2403 53.5659 93.7862 47.1945 93.6703 53.6409C93.5772 57.7037 91.883 61.5652 88.9565 64.3849C90.2275 63.261 91.5974 62.2541 93.0495 61.3766C93.255 61.2139 93.4922 61.0958 93.7459 61.03C93.9996 60.9643 94.2643 60.9522 94.523 60.9946C94.7965 61.1271 95.0313 61.3279 95.2046 61.5776C95.3779 61.8274 95.4838 62.1176 95.5121 62.4203C96.4398 66.5542 94.1478 69.5079 92.5652 73.0415C91.3441 75.7702 90.6278 78.3828 89.0657 81.0364C83.4242 90.6276 77.5508 97.2855 71.0908 106.351C69.4945 108.684 44.4115 138.863 44.3228 138.822Z" fill="white"/>
<path d="M44.2887 139.16C44.2485 139.155 44.2093 139.144 44.1727 139.126L14.4579 122.863C14.4173 122.84 14.3818 122.809 14.3537 122.771C14.3256 122.733 14.3053 122.691 14.2941 122.645C14.2812 122.599 14.2788 122.551 14.287 122.503C14.2953 122.456 14.314 122.411 14.3419 122.372C20.7405 112.617 21.5591 106.724 22.596 99.2607L22.7938 97.8623C26.4161 72.2404 51.1308 55.4251 70.9953 41.9252L73.3828 40.2948C75.1112 39.0609 76.9057 37.9223 78.7582 36.884L79.2357 36.6248C81.2822 35.5061 85.075 33.4323 87.4217 34.1963C87.7694 34.3045 88.0899 34.4859 88.3617 34.7283C88.6335 34.9707 88.8503 35.2684 88.9974 35.6016C89.8229 37.3274 89.2362 39.6536 88.2675 41.741L88.4176 41.5705C88.9348 40.8939 89.6502 40.3955 90.4641 40.1447C90.7908 40.0768 91.1281 40.0774 91.4546 40.1467C91.7811 40.216 92.0895 40.3524 92.3605 40.5472C92.7373 40.8098 93.0572 41.1457 93.301 41.5348C93.5448 41.924 93.7075 42.3584 93.7794 42.812C94.0045 44.2855 93.4178 45.7112 92.7425 47.0414C91.973 48.5595 91.1072 50.0269 90.1503 51.4345C91.1872 50.6636 92.1558 50.2407 92.8789 50.534C93.602 50.8274 94.0523 51.9052 94.0523 53.6447C93.9797 56.673 93.032 59.6156 91.3236 62.1171C91.8352 61.7624 92.3605 61.4349 92.8994 61.1007C93.1437 60.9103 93.4261 60.7746 93.7273 60.7029C94.0286 60.6311 94.3418 60.6248 94.6457 60.6846C94.9804 60.83 95.2701 61.0623 95.4848 61.3574C95.6995 61.6524 95.8314 61.9995 95.8668 62.3627C96.624 65.7735 95.3211 68.3248 93.9431 71.0534C93.5884 71.7356 93.2609 72.4655 92.8994 73.2022C92.4696 74.1572 92.1013 75.1191 91.7397 76.0468C91.0992 77.8357 90.3097 79.5676 89.3795 81.2244C85.6276 87.6094 81.787 92.671 77.7213 98.0396C75.6749 100.734 73.5602 103.497 71.3909 106.567C70.3472 108.033 60.4081 120.046 57.3862 123.696C54.1391 127.604 50.9466 131.452 48.5522 134.31C45.0323 138.56 44.5275 139.16 44.2887 139.16ZM15.1127 122.44L44.2546 138.389C46.3011 135.934 69.0102 108.784 70.8588 106.171C73.0349 103.115 75.1564 100.325 77.2029 97.6235C81.2549 92.2754 85.0887 87.2274 88.7996 80.8765C89.7107 79.2498 90.4842 77.5499 91.1121 75.7944C91.4737 74.8599 91.8489 73.898 92.2855 72.9225C92.6129 72.1721 92.9676 71.4491 93.336 70.7464C94.6594 68.1338 95.9077 65.6643 95.2051 62.5128C95.1028 62.0489 94.8845 61.4691 94.4547 61.3394C94.2415 61.3129 94.025 61.33 93.8186 61.3898C93.6122 61.4497 93.4201 61.5509 93.2541 61.6873C91.8014 62.5511 90.4313 63.5467 89.1612 64.6616C89.0974 64.7241 89.0117 64.7591 88.9224 64.7591C88.8331 64.7591 88.7474 64.7241 88.6837 64.6616C88.6227 64.597 88.5888 64.5116 88.5888 64.4228C88.5888 64.334 88.6227 64.2486 88.6837 64.184C90.1213 62.8232 91.2755 61.1914 92.0798 59.3826C92.8841 57.5738 93.3226 55.6237 93.3701 53.6447C93.3701 52.2463 93.1518 51.4072 92.6879 51.2162C91.7807 50.8615 89.9047 52.2804 87.1283 55.4251L87.0738 55.4865C87.0464 55.5266 87.0108 55.5604 86.9694 55.5857C86.928 55.6109 86.8816 55.627 86.8335 55.6329C86.7853 55.6388 86.7364 55.6344 86.6901 55.6199C86.6438 55.6054 86.6011 55.5812 86.5649 55.5489C86.5287 55.5166 86.4998 55.477 86.4801 55.4326C86.4605 55.3883 86.4505 55.3402 86.4509 55.2917C86.4512 55.2432 86.462 55.1953 86.4823 55.1512C86.5027 55.1072 86.5322 55.068 86.569 55.0363C88.757 52.5437 90.6205 49.784 92.1149 46.8231C92.7357 45.5952 93.2814 44.2855 93.0836 43.003C93.025 42.6423 92.8946 42.297 92.7001 41.9876C92.5056 41.6783 92.2509 41.4112 91.9512 41.2021C91.7583 41.0578 91.5368 40.9564 91.3015 40.9046C91.0662 40.8529 90.8225 40.8519 90.5869 40.9019C89.9245 41.1302 89.3466 41.5535 88.9292 42.1162C88.0561 43.0849 87.217 44.0876 86.4257 45.1313C85.6003 46.4001 84.9045 47.2801 84.8158 47.3825C84.7609 47.4499 84.6823 47.4938 84.5961 47.5052C84.5098 47.5167 84.4225 47.4947 84.3519 47.4439C84.2794 47.3918 84.2301 47.3133 84.2148 47.2252C84.1995 47.1372 84.2194 47.0467 84.2701 46.9732C84.809 46.175 85.3684 45.3906 85.955 44.6265C87.7286 41.8979 89.4409 38.1665 88.3835 35.9426C88.2804 35.6905 88.124 35.4636 87.925 35.2776C87.726 35.0916 87.4892 34.9508 87.2307 34.8648C85.1501 34.1827 81.3846 36.2291 79.57 37.2387L79.0857 37.5048C77.2557 38.5229 75.4818 39.6387 73.7716 40.8474L71.3841 42.4709C51.6356 55.9095 27.0437 72.636 23.476 97.9578L23.2782 99.3221C22.2345 106.853 21.4091 112.733 15.1127 122.44Z" fill="#231F20"/>
<path d="M51.4169 156.092L55.6394 130.483C55.6394 130.483 16.2243 114.951 15.6035 114.603C15.1123 114.344 1.18945 156.092 1.18945 156.092H51.4169Z" fill="#231F20"/>
<path d="M51.417 156.432H1.16228C1.10834 156.432 1.05526 156.419 1.0074 156.394C0.959542 156.369 0.918272 156.333 0.886979 156.289C0.855686 156.245 0.835262 156.194 0.827385 156.141C0.819509 156.087 0.824405 156.033 0.841669 155.982C14.6418 114.609 15.2421 114.37 15.4399 114.288C15.4862 114.268 15.5361 114.258 15.5865 114.258C15.637 114.258 15.6869 114.268 15.7332 114.288C16.3744 114.609 42.201 124.807 55.7623 130.155C55.8348 130.183 55.8955 130.234 55.9341 130.302C55.9727 130.369 55.9867 130.447 55.9738 130.524L51.7581 156.146C51.745 156.226 51.7034 156.3 51.6408 156.352C51.5782 156.405 51.4987 156.433 51.417 156.432ZM1.61933 155.75H51.1032L55.2576 130.728C51.7308 129.364 19.1508 116.492 15.6923 115.039C14.5258 117.501 6.81057 140.238 1.63979 155.75H1.61933Z" fill="#231F20"/>
<path d="M81.7539 1.86757L25.7065 18.8961C23.3022 19.6266 21.9452 22.1679 22.6757 24.5723L53.5142 126.074C54.2447 128.478 56.786 129.835 59.1904 129.104L115.238 112.076C117.642 111.345 118.999 108.804 118.269 106.4L87.4301 4.89838C86.6996 2.49401 84.1582 1.13707 81.7539 1.86757Z" fill="#231F20"/>
<path d="M57.8975 129.65C56.8482 129.65 55.8268 129.312 54.9842 128.687C54.1415 128.062 53.5223 127.182 53.2179 126.178L22.3501 24.6792C22.1576 24.0625 22.0892 23.4138 22.1488 22.7705C22.2084 22.1272 22.3948 21.5021 22.6974 20.9313C22.9999 20.3604 23.4126 19.8552 23.9115 19.4447C24.4103 19.0343 24.9856 18.7267 25.604 18.5398L81.6571 1.48581C82.2712 1.29856 82.9162 1.23421 83.5551 1.29643C84.1941 1.35866 84.8145 1.54624 85.3809 1.84846C85.9474 2.15067 86.4486 2.56158 86.8561 3.05769C87.2636 3.5538 87.5692 4.12537 87.7556 4.73972L118.61 106.313C118.986 107.554 118.853 108.894 118.242 110.038C117.631 111.181 116.59 112.035 115.349 112.412L59.3027 129.466C58.8458 129.595 58.3724 129.657 57.8975 129.65ZM83.1374 2.0179C82.7213 2.01845 82.3075 2.08052 81.9095 2.20208L25.836 19.2288C25.3069 19.3894 24.8147 19.6528 24.3874 20.0037C23.9601 20.3547 23.6062 20.7864 23.3458 21.2742C23.0855 21.762 22.9238 22.2963 22.87 22.8466C22.8162 23.3969 22.8713 23.9524 23.0323 24.4814L53.8045 125.953C54.1306 127.02 54.8666 127.915 55.8513 128.44C56.8359 128.966 57.9888 129.08 59.0572 128.756L115.103 111.702C116.162 111.382 117.051 110.657 117.58 109.686C118.108 108.714 118.233 107.574 117.928 106.511L87.1076 5.00576C86.8448 4.14259 86.312 3.38652 85.5875 2.84869C84.863 2.31086 83.9851 2.01966 83.0828 2.0179H83.1374Z" fill="#231F20"/>
<path d="M85.5416 10.4315L27.5884 28.0391L53.8658 114.528L111.819 96.9208L85.5416 10.4315Z" fill="white"/>
<path d="M53.8588 114.867C53.8038 114.868 53.7497 114.853 53.7019 114.826C53.6615 114.807 53.6254 114.779 53.5961 114.745C53.5667 114.711 53.5447 114.671 53.5314 114.628L27.2614 28.1374C27.2429 28.0967 27.2334 28.0525 27.2334 28.0078C27.2334 27.9631 27.2429 27.9189 27.2614 27.8782C27.282 27.8392 27.31 27.8047 27.344 27.7766C27.3779 27.7485 27.4171 27.7274 27.4592 27.7145L85.4428 10.108C85.5288 10.0823 85.6213 10.0916 85.7005 10.1337C85.7796 10.1759 85.839 10.2475 85.8658 10.3331L112.143 96.8241C112.156 96.8675 112.161 96.9133 112.157 96.9585C112.152 97.0039 112.139 97.0478 112.117 97.0879C112.096 97.1279 112.066 97.1632 112.031 97.1917C111.995 97.2203 111.954 97.2414 111.911 97.2539L53.927 114.854C53.905 114.861 53.8821 114.866 53.8588 114.867ZM28.0118 28.267L54.0839 114.103L111.385 96.6945L85.3132 10.8583L28.0118 28.267Z" fill="#231F20"/>
<path d="M80.7432 118.154C80.2017 118.154 79.6745 117.98 79.2388 117.659C78.8031 117.337 78.4817 116.884 78.3215 116.367L77.5098 113.673C77.316 113.032 77.3838 112.341 77.6983 111.75C78.0128 111.16 78.5484 110.718 79.1879 110.521L89.7613 107.315C90.0784 107.217 90.4117 107.183 90.7421 107.214C91.0724 107.246 91.3933 107.343 91.6862 107.498C91.9791 107.654 92.2382 107.867 92.4488 108.123C92.6593 108.38 92.817 108.675 92.9129 108.993L93.7247 111.722C93.8225 112.039 93.8566 112.372 93.8251 112.702C93.7936 113.033 93.6971 113.354 93.5411 113.646C93.3852 113.939 93.1728 114.199 92.9163 114.409C92.6598 114.62 92.3643 114.777 92.0466 114.873L81.4731 118.079C81.2349 118.141 80.9889 118.166 80.7432 118.154ZM90.4981 107.881C90.3153 107.881 90.1337 107.909 89.9592 107.963L79.3857 111.176C78.9189 111.319 78.5278 111.641 78.2977 112.072C78.0677 112.503 78.0174 113.007 78.1578 113.475L78.9764 116.169C79.1197 116.636 79.4419 117.027 79.8727 117.257C80.3034 117.487 80.8076 117.538 81.2753 117.397L91.8488 114.184C92.0809 114.115 92.297 114 92.4846 113.847C92.6722 113.693 92.8276 113.504 92.9417 113.291C93.0559 113.077 93.1266 112.843 93.1497 112.602C93.1729 112.36 93.148 112.117 93.0766 111.885L92.258 109.191C92.1439 108.813 91.9112 108.481 91.5943 108.245C91.2774 108.01 90.8931 107.882 90.4981 107.881Z" fill="#D1D3D4"/>
<path d="M42.2418 19.5771C42.1688 19.5775 42.0977 19.5546 42.0388 19.5116C41.9798 19.4686 41.9362 19.4079 41.9143 19.3383C41.8885 19.2515 41.8976 19.158 41.9396 19.0777C41.9817 18.9975 42.0534 18.9368 42.1394 18.9086L60.4895 13.3353C60.58 13.3082 60.6775 13.3181 60.7607 13.3629C60.8439 13.4077 60.9058 13.4836 60.9329 13.5741C60.9601 13.6645 60.9502 13.7621 60.9054 13.8452C60.8606 13.9284 60.7847 13.9904 60.6942 14.0175L42.3373 19.5362L42.2418 19.5771Z" fill="#D1D3D4"/>
<path d="M63.1638 13.2219C63.0911 13.2213 63.0204 13.1979 62.9617 13.1551C62.903 13.1123 62.8591 13.0522 62.8363 12.9831C62.8228 12.9397 62.818 12.894 62.8224 12.8487C62.8267 12.8034 62.8401 12.7594 62.8617 12.7194C62.8833 12.6793 62.9127 12.644 62.9482 12.6155C62.9837 12.587 63.0245 12.5659 63.0683 12.5534L65.5309 11.8098C65.575 11.7905 65.6226 11.7808 65.6708 11.7813C65.7189 11.7817 65.7664 11.7923 65.8101 11.8125C65.8538 11.8326 65.8928 11.8617 65.9244 11.8979C65.9561 11.9342 65.9797 11.9767 65.9938 12.0227C66.0078 12.0688 66.012 12.1173 66.0059 12.165C65.9999 12.2127 65.9839 12.2587 65.9588 12.2998C65.9338 12.3409 65.9004 12.3762 65.8607 12.4035C65.821 12.4307 65.776 12.4493 65.7287 12.4579L63.2661 13.2083C63.2332 13.2194 63.1985 13.2241 63.1638 13.2219Z" fill="#D1D3D4"/>
<path d="M76.7054 37.0031L37.7588 48.8359L49.5917 87.7825L88.5383 75.9496L76.7054 37.0031Z" fill="#D23228"/>
<path d="M49.5885 88.128C49.5156 88.1284 49.4444 88.1055 49.3855 88.0625C49.3266 88.0195 49.283 87.9588 49.2611 87.8892L37.4324 48.9379C37.4188 48.8954 37.4138 48.8505 37.4178 48.806C37.4218 48.7616 37.4347 48.7183 37.4557 48.6789C37.4767 48.6395 37.5054 48.6047 37.54 48.5765C37.5747 48.5483 37.6147 48.5274 37.6575 48.515L76.602 36.6863C76.6889 36.6605 76.7824 36.6696 76.8626 36.7116C76.9429 36.7536 77.0036 36.8253 77.0318 36.9114L88.8605 75.8559C88.8863 75.9428 88.8772 76.0363 88.8352 76.1165C88.7931 76.1968 88.7214 76.2575 88.6353 76.2857L49.7113 88.1143C49.6722 88.1293 49.6299 88.134 49.5885 88.128ZM38.1828 49.0675L49.8136 87.3639L88.1101 75.7331L76.4724 37.4367L38.1828 49.0675Z" fill="#231F20"/>
<path d="M88.5379 75.9406L49.5913 87.7734L52.5996 97.6749L91.5462 85.842L88.5379 75.9406Z" fill="white"/>
<path d="M52.5905 98.0257C52.5382 98.0219 52.4873 98.008 52.4404 97.9848C52.4005 97.9638 52.3653 97.9348 52.3372 97.8995C52.309 97.8643 52.2884 97.8237 52.2767 97.7801L49.2683 87.882C49.2425 87.7951 49.2516 87.7016 49.2936 87.6214C49.3357 87.5411 49.4074 87.4804 49.4935 87.4522L88.4448 75.6236C88.5307 75.598 88.6233 75.6072 88.7024 75.6494C88.7816 75.6915 88.841 75.7631 88.8677 75.8487L91.876 85.7537C91.9094 85.8368 91.9094 85.9297 91.876 86.0129C91.8312 86.0916 91.758 86.1501 91.6714 86.1766L52.6928 97.9848C52.6619 98.0054 52.627 98.0193 52.5905 98.0257ZM50.0119 88.0184L52.8224 97.2617L91.1188 85.6309L88.3083 76.3808L50.0119 88.0184Z" fill="#231F20"/>
<path d="M54.9366 89.6566C54.8637 89.657 54.7925 89.6341 54.7336 89.5911C54.6746 89.5481 54.631 89.4874 54.6092 89.4178C54.5833 89.331 54.5924 89.2375 54.6345 89.1572C54.6765 89.077 54.7482 89.0163 54.8343 88.988L84.8493 79.8744C84.9398 79.8473 85.0373 79.8572 85.1205 79.9019C85.2036 79.9467 85.2656 80.0227 85.2927 80.1132C85.3198 80.2036 85.3099 80.3011 85.2652 80.3843C85.2204 80.4675 85.1444 80.5294 85.0539 80.5566L55.0389 89.6702L54.9366 89.6566Z" fill="#D1D3D4"/>
<path d="M55.9871 93.1246C55.9131 93.1258 55.8407 93.1023 55.7814 93.0578C55.7222 93.0134 55.6794 92.9505 55.6597 92.879C55.6341 92.7931 55.6434 92.7006 55.6855 92.6214C55.7276 92.5422 55.7992 92.4829 55.8848 92.4561L83.9216 83.9359C84.012 83.9097 84.1092 83.9205 84.1917 83.9659C84.2742 84.0113 84.3353 84.0876 84.3616 84.1781C84.3878 84.2686 84.377 84.3657 84.3316 84.4482C84.2862 84.5308 84.2099 84.5919 84.1194 84.6181L56.0826 93.1314C56.0507 93.1356 56.0182 93.1333 55.9871 93.1246Z" fill="#D1D3D4"/>
<path d="M118.627 24.6879L79.5508 36.4922L91.3551 75.5685L130.431 63.7642L118.627 24.6879Z" fill="#D23228"/>
<path d="M91.0302 75.5415C90.9752 75.5418 90.9211 75.5277 90.8733 75.5005C90.8326 75.4796 90.7965 75.4507 90.7672 75.4155C90.7379 75.3804 90.716 75.3397 90.7027 75.2959L78.8741 36.3514C78.8485 36.2654 78.8577 36.1729 78.8999 36.0937C78.942 36.0146 79.0136 35.9552 79.0992 35.9284L118.05 24.093C118.134 24.0628 118.226 24.0628 118.31 24.093C118.388 24.1378 118.447 24.211 118.473 24.2976L130.302 63.2421C130.328 63.3281 130.318 63.4206 130.276 63.4998C130.234 63.5789 130.163 63.6383 130.077 63.6651L91.1325 75.5005L91.0302 75.5415ZM79.6244 36.481L91.2553 74.7911L129.552 63.1944L117.928 24.8433L79.6244 36.481Z" fill="#231F20"/>
<path d="M130.457 63.7738L91.3809 75.5781L94.3819 85.5126L133.458 73.7083L130.457 63.7738Z" fill="white"/>
<path d="M94.0516 85.4408C93.9945 85.4402 93.9384 85.4262 93.8878 85.3998C93.8091 85.355 93.7506 85.2818 93.7241 85.1952L90.7158 75.297C90.7033 75.254 90.6993 75.209 90.7042 75.1645C90.709 75.1199 90.7226 75.0768 90.7442 75.0375C90.7657 74.9983 90.7948 74.9636 90.8297 74.9356C90.8646 74.9075 90.9047 74.8866 90.9477 74.8741L129.892 63.0455C129.978 63.0198 130.071 63.0291 130.15 63.0712C130.229 63.1134 130.288 63.185 130.315 63.2706L133.323 73.1687C133.342 73.2094 133.352 73.2536 133.352 73.2983C133.352 73.343 133.342 73.3872 133.323 73.4279C133.304 73.4684 133.276 73.5044 133.242 73.5338C133.208 73.5631 133.169 73.5851 133.126 73.5985L94.1743 85.4271L94.0516 85.4408ZM91.4662 75.4266L94.2767 84.6767L132.573 73.0391L129.763 63.7958L91.4662 75.4266Z" fill="#231F20"/>
<path d="M96.3782 77.0689C96.3047 77.0679 96.2334 77.0435 96.1745 76.9994C96.1157 76.9553 96.0724 76.8937 96.0508 76.8234C96.0254 76.7365 96.0356 76.6432 96.0791 76.5639C96.1226 76.4845 96.1959 76.4258 96.2827 76.4004L126.298 67.2868C126.38 67.2718 126.465 67.2875 126.536 67.331C126.608 67.3745 126.661 67.4428 126.685 67.5227C126.71 67.6027 126.704 67.6889 126.669 67.7649C126.634 67.8408 126.572 67.9013 126.496 67.9348L96.4805 77.0485C96.448 77.0618 96.4133 77.0688 96.3782 77.0689Z" fill="#D1D3D4"/>
<path d="M97.4626 80.5307C97.3899 80.5301 97.3193 80.5067 97.2605 80.4639C97.2018 80.4211 97.158 80.361 97.1352 80.2919C97.1216 80.2485 97.1168 80.2028 97.1212 80.1575C97.1256 80.1122 97.1389 80.0682 97.1605 80.0282C97.1822 79.9881 97.2116 79.9528 97.247 79.9243C97.2825 79.8958 97.3233 79.8747 97.3671 79.8622L121.522 72.529C121.605 72.514 121.69 72.5297 121.761 72.5732C121.832 72.6167 121.885 72.685 121.91 72.7649C121.934 72.8449 121.928 72.9311 121.893 73.0071C121.858 73.083 121.797 73.1435 121.72 73.177L97.5308 80.5171L97.4626 80.5307Z" fill="#D1D3D4"/>
<path d="M159.596 11.8234L120.649 23.6562L132.482 62.6028L171.428 50.77L159.596 11.8234Z" fill="#D23228"/>
<path d="M132.478 62.9462C132.421 62.9465 132.364 62.9325 132.314 62.9053C132.274 62.8858 132.239 62.858 132.211 62.8239C132.183 62.7898 132.162 62.7501 132.15 62.7075L120.315 23.7562C120.29 23.6693 120.3 23.576 120.343 23.4967C120.387 23.4173 120.46 23.3586 120.547 23.3332L159.491 11.5046C159.532 11.4861 159.576 11.4766 159.621 11.4766C159.666 11.4766 159.71 11.4861 159.751 11.5046C159.791 11.5241 159.827 11.5517 159.856 11.5858C159.886 11.6198 159.908 11.6595 159.921 11.7024L171.75 50.6537C171.775 50.7397 171.766 50.8322 171.724 50.9114C171.682 50.9905 171.61 51.0499 171.525 51.0767L132.573 62.9053C132.545 62.926 132.512 62.94 132.478 62.9462ZM121.072 23.8858L132.669 62.1822L170.965 50.5855L159.362 12.255L121.072 23.8858Z" fill="#231F20"/>
<path d="M171.422 50.7687L132.476 62.6016L135.484 72.503L174.43 60.6701L171.422 50.7687Z" fill="white"/>
<path d="M135.48 72.8483C135.426 72.8476 135.372 72.836 135.323 72.8142C135.242 72.7702 135.181 72.697 135.152 72.6096L132.151 62.7114C132.125 62.6255 132.135 62.533 132.177 62.4538C132.219 62.3746 132.29 62.3153 132.376 62.2885L171.321 50.453C171.364 50.4395 171.41 50.4347 171.455 50.4391C171.5 50.4434 171.544 50.4568 171.584 50.4784C171.624 50.5 171.66 50.5294 171.688 50.5649C171.717 50.6004 171.738 50.6412 171.75 50.685L174.759 60.5831C174.789 60.6669 174.789 60.7586 174.759 60.8423C174.714 60.921 174.641 60.9796 174.554 61.0061L135.609 72.8347C135.568 72.8499 135.524 72.8546 135.48 72.8483ZM132.935 62.8411L135.712 72.0639L174.001 60.4671L171.198 51.2171L132.935 62.8411Z" fill="#231F20"/>
<path d="M137.826 64.4774C137.753 64.4778 137.682 64.4549 137.623 64.4119C137.564 64.3689 137.521 64.3082 137.499 64.2386C137.473 64.1518 137.482 64.0583 137.524 63.9781C137.566 63.8978 137.638 63.8371 137.724 63.8089L167.739 54.6952C167.782 54.6816 167.828 54.6769 167.873 54.6813C167.919 54.6856 167.963 54.699 168.003 54.7206C168.043 54.7422 168.078 54.7716 168.107 54.8071C168.135 54.8426 168.156 54.8834 168.169 54.9272C168.181 54.9702 168.185 55.0152 168.18 55.0597C168.175 55.1043 168.162 55.1474 168.14 55.1867C168.119 55.2259 168.09 55.2606 168.055 55.2886C168.02 55.3167 167.98 55.3376 167.937 55.3501L137.922 64.4638L137.826 64.4774Z" fill="#D1D3D4"/>
<path d="M138.877 67.9682C138.803 67.9694 138.73 67.9459 138.671 67.9014C138.612 67.857 138.569 67.7941 138.549 67.7227C138.524 67.6367 138.533 67.5442 138.575 67.465C138.617 67.3859 138.689 67.3265 138.774 67.2997L160.726 60.635C160.769 60.6204 160.814 60.6147 160.859 60.6182C160.904 60.6217 160.947 60.6345 160.987 60.6556C161.026 60.6767 161.061 60.7058 161.089 60.741C161.117 60.7761 161.138 60.8167 161.149 60.8601C161.175 60.9461 161.166 61.0386 161.124 61.1178C161.081 61.1969 161.01 61.2563 160.924 61.2831L138.972 67.9546L138.877 67.9682Z" fill="#D1D3D4"/>
<path d="M39.4042 41.4577C41.6232 41.4577 43.4221 39.6588 43.4221 37.4398C43.4221 35.2208 41.6232 33.4219 39.4042 33.4219C37.1851 33.4219 35.3862 35.2208 35.3862 37.4398C35.3862 39.6588 37.1851 41.4577 39.4042 41.4577Z" fill="#D1D3D4"/>
<path d="M46.1304 32.3809C46.0575 32.3814 45.9864 32.3584 45.9274 32.3154C45.8685 32.2725 45.8249 32.2117 45.803 32.1422C45.7772 32.0553 45.7863 31.9618 45.8283 31.8816C45.8703 31.8013 45.942 31.7406 46.0281 31.7124L82.8033 20.5455C82.8893 20.5198 82.9818 20.5291 83.061 20.5712C83.1402 20.6134 83.1995 20.685 83.2263 20.7706C83.2521 20.8574 83.243 20.9509 83.201 21.0312C83.159 21.1114 83.0873 21.1721 83.0012 21.2003L46.2259 32.3673L46.1304 32.3809Z" fill="#D1D3D4"/>
<path d="M47.065 35.46C46.9745 35.4736 46.8824 35.4507 46.8088 35.3963C46.7353 35.3419 46.6863 35.2606 46.6728 35.1701C46.6592 35.0797 46.6821 34.9875 46.7365 34.914C46.7909 34.8404 46.8722 34.7914 46.9627 34.7779L83.7379 23.6314C83.8239 23.6058 83.9164 23.6151 83.9956 23.6572C84.0747 23.6993 84.1341 23.7709 84.1609 23.8565C84.1867 23.9433 84.1776 24.0368 84.1356 24.1171C84.0935 24.1974 84.0218 24.258 83.9357 24.2863L47.1605 35.4464L47.065 35.46Z" fill="#D1D3D4"/>
<path d="M47.9991 38.5385C47.9262 38.539 47.855 38.516 47.7961 38.4731C47.7371 38.4301 47.6935 38.3694 47.6717 38.2998C47.6458 38.2129 47.6549 38.1194 47.6969 38.0392C47.739 37.9589 47.8107 37.8982 47.8968 37.87L81.2066 27.7263C81.2496 27.7128 81.2949 27.7081 81.3397 27.7126C81.3846 27.717 81.428 27.7305 81.4675 27.7521C81.507 27.7738 81.5418 27.8032 81.5696 27.8386C81.5975 27.8741 81.6178 27.9147 81.6296 27.9582C81.6442 28.0007 81.6499 28.0458 81.6464 28.0906C81.6428 28.1354 81.6301 28.179 81.609 28.2187C81.5879 28.2583 81.5588 28.2933 81.5236 28.3212C81.4884 28.3492 81.4479 28.3696 81.4045 28.3812L48.0946 38.5249C48.0641 38.5361 48.0315 38.5407 47.9991 38.5385Z" fill="#D1D3D4"/>
<path d="M55.8922 105.886C55.8192 105.886 55.7481 105.863 55.6891 105.82C55.6302 105.777 55.5866 105.716 55.5647 105.647C55.5389 105.56 55.548 105.467 55.59 105.386C55.632 105.306 55.7037 105.245 55.7898 105.217L105.028 90.2642C105.114 90.2386 105.207 90.2479 105.286 90.29C105.365 90.3321 105.424 90.4037 105.451 90.4893C105.477 90.5762 105.468 90.6697 105.426 90.7499C105.384 90.8302 105.312 90.8909 105.226 90.9191L55.9877 105.872C55.957 105.883 55.9246 105.887 55.8922 105.886Z" fill="#D1D3D4"/>
<path d="M182.303 119.579C182.303 119.579 166.579 80.6955 156.02 66.6976C154.58 64.7875 152.609 64.3509 151.142 65.1968C149.416 66.1928 149.096 69.8901 149.096 69.8901C149.096 69.8901 144.921 67.1205 142.806 67.4957C140.691 67.8709 140.241 71.0975 140.241 71.0975C140.241 71.0975 135.705 69.2898 133.692 70.7905C131.68 72.2913 131.435 75.2382 131.435 75.2382C131.435 75.2382 108.309 54.2891 105.731 52.4882C103.152 50.6873 98.1247 53.259 100.273 56.8472C101.638 59.0778 113.139 71.9843 116.877 76.0909C120.615 80.1975 129.204 91.2417 130.036 94.3864C130.868 97.5312 131.523 101.078 125.165 101.092C118.808 101.106 113.091 101.836 110.158 103.964C107.225 106.092 105.178 109.469 106.522 110.24C107.866 111.011 128.16 111.741 136.435 115.697C144.709 119.654 154.662 133.481 154.662 133.481L182.303 119.579Z" fill="white"/>
<path d="M154.689 133.849C154.636 133.85 154.584 133.838 154.536 133.814C154.489 133.79 154.448 133.755 154.416 133.713C154.314 133.576 144.416 119.926 136.312 116.038C130.67 113.309 119.196 112.116 112.341 111.399C108.636 111.01 106.842 110.813 106.378 110.547C106.2 110.442 106.052 110.292 105.949 110.113C105.846 109.933 105.792 109.73 105.792 109.523C105.717 108.043 107.6 105.43 109.987 103.691C112.654 101.753 117.771 100.764 125.186 100.758C127.457 100.758 128.972 100.273 129.688 99.3455C130.602 98.1517 130.213 96.2894 129.729 94.4817C128.924 91.4597 120.533 80.6065 116.645 76.3294C112.757 72.0523 101.358 59.2754 100 57.0311C99.5517 56.3884 99.3546 55.6035 99.4463 54.8251C99.5381 54.0468 99.9124 53.3292 100.498 52.8085C101.788 51.6011 104.236 51.0281 105.956 52.2151C108.35 53.8863 127.832 71.4929 131.195 74.5626C131.454 72.9849 132.27 71.5522 133.494 70.5242C135.302 69.1599 138.815 70.2377 139.988 70.647C140.193 69.7125 140.882 67.5023 142.717 67.168C144.552 66.8337 147.622 68.6005 148.795 69.3168C148.959 68.2049 149.477 65.7423 150.937 64.9032C152.649 63.9141 154.785 64.5553 156.251 66.4995C166.715 80.3746 182.419 119.074 182.576 119.462C182.609 119.541 182.611 119.628 182.582 119.708C182.553 119.788 182.495 119.854 182.419 119.892L154.805 133.815C154.769 133.834 154.73 133.845 154.689 133.849ZM103.745 52.2833C102.72 52.2849 101.73 52.6609 100.962 53.3406C100.477 53.7544 100.168 54.3378 100.098 54.9716C100.029 55.6055 100.203 56.242 100.587 56.7514C101.897 58.9275 113.35 71.7589 117.15 75.9406C120.642 79.7811 129.497 91.0163 130.39 94.3589C130.916 96.3303 131.332 98.3768 130.234 99.8162C129.367 100.942 127.716 101.487 125.186 101.494C117.921 101.494 112.941 102.449 110.39 104.298C108.009 106.024 106.413 108.445 106.474 109.537C106.468 109.63 106.488 109.724 106.531 109.807C106.574 109.89 106.639 109.959 106.72 110.008C107.074 110.212 109.666 110.485 112.409 110.772C119.305 111.495 130.827 112.709 136.612 115.472C144.368 119.203 153.4 131.23 154.798 133.133L181.866 119.49C180.4 115.881 165.679 80.1359 155.746 66.9634C154.498 65.3057 152.718 64.7463 151.319 65.5513C150.023 66.2948 149.532 68.9621 149.443 69.9785C149.439 70.0377 149.42 70.0948 149.387 70.144C149.354 70.1932 149.308 70.2326 149.254 70.2583C149.201 70.284 149.142 70.295 149.082 70.2902C149.023 70.2854 148.967 70.2649 148.918 70.2309C148.877 70.2309 144.825 67.55 142.881 67.8979C141.032 68.2253 140.596 71.1791 140.589 71.2064C140.583 71.2582 140.565 71.3079 140.536 71.3516C140.508 71.3954 140.47 71.432 140.425 71.4588C140.378 71.4807 140.327 71.4921 140.275 71.4921C140.223 71.4921 140.172 71.4807 140.125 71.4588C140.084 71.4588 135.745 69.7397 133.904 71.1041C132.062 72.4684 131.789 75.2789 131.782 75.3062C131.779 75.3702 131.757 75.4319 131.719 75.4839C131.682 75.5359 131.63 75.576 131.571 75.5995C131.511 75.6225 131.446 75.6283 131.383 75.6162C131.321 75.6041 131.263 75.5747 131.216 75.5313C130.984 75.3198 108.077 54.5753 105.546 52.8085C105.014 52.4523 104.385 52.2689 103.745 52.2833Z" fill="#231F20"/>
<path d="M196.492 156.094C192.965 145.357 182.167 110.873 181.676 111.071C181.184 111.269 147.438 127.32 147.438 127.32L149.484 156.121L196.492 156.094Z" fill="#231F20"/>
<path d="M196.492 156.437H149.477C149.39 156.437 149.307 156.404 149.243 156.344C149.18 156.285 149.142 156.203 149.136 156.116L147.09 127.322C147.086 127.253 147.103 127.184 147.138 127.125C147.173 127.065 147.225 127.018 147.288 126.988C148.652 126.34 180.925 111.066 181.532 110.794C181.624 110.756 181.727 110.756 181.819 110.794C182.296 111.005 183.811 115.357 192.358 142.173C194.2 147.937 195.769 152.91 196.806 156.014C196.823 156.065 196.828 156.119 196.82 156.173C196.812 156.226 196.792 156.277 196.76 156.321C196.729 156.365 196.688 156.401 196.64 156.426C196.592 156.45 196.539 156.464 196.485 156.464L196.492 156.437ZM149.791 155.755H196.021C194.998 152.63 193.47 147.848 191.717 142.35C187.822 130.16 182.549 113.645 181.559 111.537C178.524 112.963 150.521 126.21 147.799 127.506L149.791 155.755Z" fill="#231F20"/>
<path d="M20.7266 110.314C20.7266 110.314 26.8319 64.4255 32.105 59.5003C38.3672 53.661 44.0701 49.6909 45.1138 53.0334C46.1575 56.376 47.1602 61.9356 38.5787 68.1979L39.827 79.3307C39.827 79.3307 48.2517 85.1495 43.8654 103.52" fill="white"/>
<path d="M20.7266 110.626H20.6857C20.6034 110.614 20.5291 110.57 20.4793 110.503C20.4294 110.437 20.4079 110.353 20.4196 110.271C20.6652 108.395 26.6 64.2115 31.8935 59.2727C37.9443 53.6244 42.0509 51.0254 44.0974 51.5711C44.4186 51.6604 44.71 51.834 44.9415 52.0739C45.173 52.3138 45.3361 52.6113 45.414 52.9354C47.7879 60.5278 43.2242 65.1597 38.9062 68.3454L40.1204 79.1576C41.1846 79.9694 48.3063 86.1907 44.1656 103.586C44.1568 103.626 44.14 103.664 44.1162 103.698C44.0924 103.731 44.0621 103.76 44.0271 103.781C43.9921 103.803 43.9532 103.817 43.9125 103.824C43.8718 103.83 43.8303 103.828 43.7904 103.818C43.7117 103.797 43.6445 103.746 43.6036 103.675C43.5626 103.605 43.5513 103.521 43.5721 103.443C47.8561 85.4881 39.7384 79.642 39.6565 79.5669C39.62 79.5426 39.5893 79.5103 39.5669 79.4725C39.5444 79.4347 39.5308 79.3924 39.5269 79.3486L38.2717 68.2158C38.2639 68.1607 38.272 68.1044 38.2949 68.0537C38.3179 68.003 38.3548 67.9598 38.4014 67.9293C46.3758 62.09 46.0211 56.9397 44.8273 53.0991C44.7786 52.8759 44.6704 52.6699 44.5144 52.503C44.3583 52.3361 44.16 52.2145 43.9405 52.1509C42.1669 51.6871 38.0466 54.3679 32.3438 59.7093C27.2139 64.4844 21.1222 109.875 21.0609 110.332C21.0583 110.374 21.0475 110.414 21.0293 110.451C21.0111 110.488 20.9857 110.521 20.9547 110.548C20.9236 110.576 20.8875 110.597 20.8483 110.61C20.8092 110.623 20.7678 110.628 20.7266 110.626Z" fill="#231F20"/>
</svg>
