<svg width="177" height="159" viewBox="0 0 177 159" fill="none" xmlns="http://www.w3.org/2000/svg">
<path d="M173.905 113.562H3.09473V149.552H173.905V113.562Z" fill="white"/>
<path d="M173.906 149.874H3.09568C3.0141 149.874 2.93586 149.842 2.87818 149.784C2.82049 149.727 2.78809 149.648 2.78809 149.567V113.604C2.78809 113.564 2.79604 113.524 2.8115 113.487C2.82696 113.449 2.84961 113.416 2.87818 113.387C2.90674 113.358 2.94065 113.336 2.97797 113.32C3.01529 113.305 3.05529 113.297 3.09568 113.297H173.906C173.947 113.297 173.987 113.305 174.024 113.32C174.061 113.336 174.095 113.358 174.124 113.387C174.152 113.416 174.175 113.449 174.191 113.487C174.206 113.524 174.214 113.564 174.214 113.604V149.6C174.206 149.676 174.17 149.746 174.113 149.796C174.056 149.847 173.982 149.875 173.906 149.874ZM3.38991 149.259H173.599V113.879H3.40328L3.38991 149.259Z" fill="#D1D3D4"/>
<path d="M173.871 113.562H3.12751C1.66505 113.562 0.479492 114.748 0.479492 116.211V116.719C0.479492 118.181 1.66505 119.367 3.12751 119.367H173.871C175.334 119.367 176.519 118.181 176.519 116.719V116.211C176.519 114.748 175.334 113.562 173.871 113.562Z" fill="white"/>
<path d="M173.872 119.685H3.12847C2.34459 119.685 1.59282 119.374 1.03853 118.819C0.484245 118.265 0.172852 117.513 0.172852 116.729V116.228C0.17285 115.443 0.484028 114.691 1.03812 114.136C1.59222 113.58 2.34398 113.267 3.12847 113.266H173.872C174.657 113.267 175.409 113.58 175.963 114.136C176.517 114.691 176.828 115.443 176.828 116.228V116.729C176.828 117.118 176.751 117.502 176.603 117.861C176.454 118.219 176.237 118.545 175.962 118.819C175.688 119.094 175.362 119.312 175.003 119.46C174.645 119.609 174.26 119.685 173.872 119.685ZM3.12847 113.881C2.50714 113.883 1.91185 114.131 1.47313 114.571C1.03441 115.011 0.788044 115.607 0.788047 116.228V116.729C0.788047 117.35 1.03462 117.945 1.47354 118.384C1.91245 118.823 2.50775 119.07 3.12847 119.07H173.872C174.493 119.07 175.088 118.823 175.527 118.384C175.966 117.945 176.213 117.35 176.213 116.729V116.228C176.213 115.607 175.966 115.011 175.528 114.571C175.089 114.131 174.494 113.883 173.872 113.881H3.12847Z" fill="#D1D3D4"/>
<path d="M68.5004 104.312H15.0117V113.253H68.5004V104.312Z" fill="#231F20"/>
<path d="M68.4986 113.552H15.0032C14.9252 113.552 14.8503 113.521 14.7952 113.466C14.74 113.411 14.709 113.336 14.709 113.258V104.318C14.709 104.24 14.74 104.165 14.7952 104.11C14.8503 104.054 14.9252 104.023 15.0032 104.023H68.4986C68.5766 104.023 68.6514 104.054 68.7066 104.11C68.7618 104.165 68.7928 104.24 68.7928 104.318V113.258C68.7928 113.336 68.7618 113.411 68.7066 113.466C68.6514 113.521 68.5766 113.552 68.4986 113.552ZM15.3041 112.937H68.2043V104.612H15.3041V112.937Z" fill="#231F20"/>
<path d="M68.493 104.312H39.3447V113.253H68.493V104.312Z" fill="white"/>
<path d="M68.4998 113.565H39.3449C39.2644 113.563 39.1879 113.53 39.1317 113.472C39.0754 113.415 39.0439 113.337 39.0439 113.257V104.317C39.0439 104.237 39.0756 104.16 39.1321 104.104C39.1885 104.047 39.265 104.016 39.3449 104.016H68.4998C68.5796 104.016 68.6562 104.047 68.7126 104.104C68.769 104.16 68.8007 104.237 68.8007 104.317V113.257C68.8007 113.337 68.7693 113.415 68.713 113.472C68.6568 113.53 68.5802 113.563 68.4998 113.565ZM39.6859 112.936H68.2257V104.624H39.6859V112.936Z" fill="#231F20"/>
<path d="M67.7233 97.8359H24.4121V104.463H67.7233V97.8359Z" fill="#231F20"/>
<path d="M67.7236 104.77H24.4124C24.3344 104.77 24.2595 104.739 24.2043 104.684C24.1492 104.629 24.1182 104.554 24.1182 104.476V97.8489C24.1182 97.7709 24.1492 97.696 24.2043 97.6409C24.2595 97.5857 24.3344 97.5547 24.4124 97.5547H67.7236C67.8022 97.5547 67.8778 97.5854 67.934 97.6404C67.9903 97.6954 68.0227 97.7703 68.0245 97.8489V104.476C68.0245 104.515 68.0167 104.554 68.0015 104.59C67.9863 104.626 67.964 104.659 67.9359 104.686C67.9079 104.714 67.8747 104.735 67.8382 104.749C67.8017 104.764 67.7628 104.771 67.7236 104.77ZM24.7066 104.181H67.4293V98.1632H24.7066V104.181Z" fill="#231F20"/>
<path d="M67.7237 97.8359H49.2344V104.463H67.7237V97.8359Z" fill="white"/>
<path d="M67.7247 104.781H49.2353C49.1537 104.781 49.0755 104.749 49.0178 104.691C48.9601 104.633 48.9277 104.555 48.9277 104.473V97.8467C48.9294 97.7656 48.9624 97.6884 49.0197 97.631C49.077 97.5737 49.1543 97.5408 49.2353 97.5391H67.7247C67.8062 97.5391 67.8845 97.5715 67.9422 97.6292C67.9998 97.6868 68.0323 97.7651 68.0323 97.8467V104.473C68.0332 104.514 68.0258 104.554 68.0107 104.592C67.9956 104.63 67.9729 104.664 67.9442 104.693C67.9155 104.722 67.8812 104.744 67.8434 104.759C67.8057 104.775 67.7653 104.782 67.7247 104.781ZM49.5429 104.172H67.4237V98.1543H49.5429V104.172Z" fill="#231F20"/>
<path d="M61.612 91.3984H18.3008V98.0252H61.612V91.3984Z" fill="#231F20"/>
<path d="M61.6186 98.3246H18.2874C18.2094 98.3246 18.1345 98.2936 18.0793 98.2384C18.0242 98.1832 17.9932 98.1084 17.9932 98.0303V91.4036C17.9932 91.3256 18.0242 91.2507 18.0793 91.1956C18.1345 91.1404 18.2094 91.1094 18.2874 91.1094H61.6186C61.6967 91.1094 61.7715 91.1404 61.8267 91.1956C61.8819 91.2507 61.9129 91.3256 61.9129 91.4036V98.0303C61.9129 98.1084 61.8819 98.1832 61.8267 98.2384C61.7715 98.2936 61.6967 98.3246 61.6186 98.3246ZM18.595 97.7361H61.3244V91.7179H18.595V97.7361Z" fill="#231F20"/>
<path d="M61.6124 91.3984H43.123V98.0252H61.6124V91.3984Z" fill="white"/>
<path d="M61.6193 98.3357H43.1232C43.0832 98.3357 43.0435 98.3277 43.0065 98.3122C42.9696 98.2966 42.9361 98.2739 42.9081 98.2452C42.88 98.2165 42.858 98.1826 42.8433 98.1453C42.8286 98.108 42.8214 98.0682 42.8223 98.0281V91.4014C42.8223 91.3209 42.8538 91.2437 42.9101 91.1862C42.9663 91.1287 43.0428 91.0955 43.1232 91.0938H61.6193C61.6997 91.0955 61.7762 91.1287 61.8325 91.1862C61.8887 91.2437 61.9202 91.3209 61.9202 91.4014V98.0281C61.9211 98.0682 61.9139 98.108 61.8992 98.1453C61.8845 98.1826 61.8625 98.2165 61.8344 98.2452C61.8064 98.2739 61.7729 98.2966 61.736 98.3122C61.699 98.3277 61.6594 98.3357 61.6193 98.3357ZM43.4309 97.7272H61.3117V91.7089H43.4309V97.7272Z" fill="#231F20"/>
<path d="M39.8263 96.178C40.5981 96.178 41.2238 95.5522 41.2238 94.7804C41.2238 94.0085 40.5981 93.3828 39.8263 93.3828C39.0544 93.3828 38.4287 94.0085 38.4287 94.7804C38.4287 95.5522 39.0544 96.178 39.8263 96.178Z" fill="white"/>
<path d="M39.8263 96.4884C39.489 96.4884 39.1593 96.3884 38.8789 96.2011C38.5985 96.0137 38.38 95.7474 38.2509 95.4358C38.1218 95.1242 38.0881 94.7814 38.1539 94.4506C38.2197 94.1199 38.3821 93.816 38.6205 93.5776C38.859 93.3391 39.1628 93.1767 39.4936 93.1109C39.8244 93.0451 40.1672 93.0789 40.4788 93.2079C40.7904 93.337 41.0567 93.5555 41.244 93.8359C41.4314 94.1164 41.5314 94.446 41.5314 94.7833C41.5314 95.2355 41.3518 95.6692 41.032 95.989C40.7122 96.3088 40.2785 96.4884 39.8263 96.4884ZM39.8263 93.6933C39.6107 93.6933 39.3999 93.7572 39.2207 93.877C39.0415 93.9968 38.9018 94.167 38.8193 94.3662C38.7368 94.5653 38.7152 94.7845 38.7572 94.9959C38.7993 95.2074 38.9031 95.4016 39.0555 95.554C39.208 95.7064 39.4022 95.8103 39.6136 95.8523C39.8251 95.8944 40.0442 95.8728 40.2434 95.7903C40.4425 95.7078 40.6128 95.5681 40.7325 95.3888C40.8523 95.2096 40.9162 94.9989 40.9162 94.7833C40.9145 94.4948 40.7991 94.2185 40.595 94.0145C40.391 93.8105 40.1148 93.6951 39.8263 93.6933Z" fill="#231F20"/>
<path d="M28.6396 103.647C28.5586 103.645 28.4813 103.612 28.424 103.555C28.3667 103.498 28.3337 103.42 28.332 103.339V98.8858C28.332 98.8454 28.34 98.8054 28.3554 98.7681C28.3709 98.7308 28.3936 98.6969 28.4221 98.6683C28.4507 98.6397 28.4846 98.6171 28.5219 98.6016C28.5592 98.5862 28.5992 98.5782 28.6396 98.5782C28.6803 98.5773 28.7207 98.5846 28.7584 98.5998C28.7961 98.6149 28.8304 98.6375 28.8592 98.6663C28.8879 98.695 28.9105 98.7293 28.9257 98.767C28.9408 98.8047 28.9481 98.8452 28.9472 98.8858V103.373C28.939 103.448 28.9029 103.518 28.8461 103.569C28.7893 103.62 28.7157 103.647 28.6396 103.647Z" fill="white"/>
<path d="M34.4365 112.507C34.3961 112.507 34.3561 112.499 34.3188 112.484C34.2815 112.468 34.2476 112.446 34.219 112.417C34.1904 112.388 34.1678 112.354 34.1523 112.317C34.1369 112.28 34.1289 112.24 34.1289 112.199V105.198C34.1399 105.124 34.1773 105.055 34.2344 105.006C34.2915 104.957 34.3644 104.93 34.4398 104.93C34.5153 104.93 34.5882 104.957 34.6453 105.006C34.7024 105.055 34.7398 105.124 34.7508 105.198V112.199C34.7508 112.24 34.7426 112.281 34.7268 112.319C34.7109 112.356 34.6876 112.391 34.6583 112.419C34.6291 112.448 34.5944 112.471 34.5563 112.486C34.5182 112.501 34.4775 112.508 34.4365 112.507Z" fill="white"/>
<path d="M42.6016 13.1946L44.9353 11.3891L54.7718 15.4882L74.759 8.73438L76.5644 11.4961L55.6544 23.4857L42.6016 13.1946Z" fill="#E6E7E8"/>
<path d="M49.9238 45.3496L41.8594 12.3363L54.7116 17.8664L77.9152 9.46094L83.8867 42.8019L62.5086 50.1709L49.9238 45.3496Z" fill="white"/>
<path d="M62.5081 50.481C62.4727 50.4874 62.4365 50.4874 62.4011 50.481L49.8163 45.6597C49.7705 45.6413 49.7296 45.6123 49.6971 45.5751C49.6646 45.5379 49.6413 45.4936 49.6291 45.4458L41.558 12.4124C41.545 12.3578 41.5475 12.3008 41.5652 12.2476C41.583 12.1945 41.6152 12.1473 41.6583 12.1115C41.7013 12.0731 41.7547 12.0482 41.8117 12.0398C41.8688 12.0315 41.927 12.0401 41.9792 12.0647L54.6844 17.5412L77.8011 9.1759C77.841 9.1578 77.8843 9.14844 77.9281 9.14844C77.9719 9.14844 78.0153 9.1578 78.0552 9.1759C78.0941 9.19832 78.1275 9.22918 78.153 9.26621C78.1785 9.30323 78.1953 9.3455 78.2023 9.38988L84.1871 42.7242C84.2005 42.7957 84.1876 42.8696 84.1507 42.9323C84.1138 42.995 84.0555 43.0422 83.9865 43.0652L62.5883 50.4208L62.5081 50.481ZM50.1841 45.1315L62.5148 49.8591L83.5451 42.6105L77.6807 9.88471L54.8114 18.1631C54.7403 18.1898 54.6619 18.1898 54.5908 18.1631L42.3002 12.8805L50.1841 45.1315Z" fill="#231F20"/>
<path d="M60.6429 48.7348C60.5722 48.7334 60.5041 48.7083 60.4495 48.6634C60.3949 48.6185 60.357 48.5565 60.342 48.4874L54.3973 17.9148C54.3896 17.8757 54.3897 17.8355 54.3976 17.7964C54.4056 17.7574 54.4212 17.7203 54.4436 17.6873C54.466 17.6543 54.4947 17.6261 54.5281 17.6043C54.5615 17.5826 54.5989 17.5676 54.6381 17.5604C54.6772 17.5527 54.7174 17.5528 54.7565 17.5607C54.7955 17.5687 54.8326 17.5843 54.8656 17.6067C54.8986 17.6291 54.9268 17.6578 54.9486 17.6912C54.9703 17.7246 54.9853 17.7619 54.9925 17.8012L60.9305 48.3671C60.9382 48.4062 60.9381 48.4464 60.9302 48.4855C60.9222 48.5245 60.9066 48.5616 60.8842 48.5946C60.8618 48.6276 60.8331 48.6558 60.7997 48.6775C60.7663 48.6993 60.7289 48.7143 60.6897 48.7215L60.6429 48.7348Z" fill="#231F20"/>
<path d="M69.1814 56.1042C69.1814 56.1042 66.8276 52.3997 67.1753 51.4234C67.4461 50.4565 67.6296 49.4674 67.7236 48.4678L65.2094 49.0696C65.2094 49.0696 62.6148 42.5833 62.354 40.3298C62.0933 38.0763 57.2519 40.1559 57.0781 41.8878C56.9042 43.6197 56.8173 48.12 58.2015 50.7146C59.5857 53.3091 63.4774 59.5346 63.4774 59.5346" fill="white"/>
<path d="M63.471 59.8556C63.4187 59.8547 63.3675 59.8407 63.322 59.8151C63.2764 59.7894 63.238 59.7527 63.2102 59.7085C63.1701 59.6483 59.2983 53.4428 57.9275 50.8683C56.5567 48.2939 56.5901 43.8604 56.764 41.8744C56.9044 40.4902 59.3585 39.0659 61.0169 39.0525C61.2057 39.0264 61.3978 39.0384 61.5819 39.0878C61.7659 39.1372 61.9382 39.2231 62.0885 39.3403C62.2388 39.4576 62.364 39.6038 62.4567 39.7703C62.5495 39.9368 62.6079 40.1202 62.6284 40.3097C62.8558 42.2489 64.8953 47.5249 65.3701 48.7218L67.6302 48.1869C67.6768 48.1741 67.7259 48.1735 67.7728 48.1852C67.8196 48.197 67.8627 48.2205 67.8977 48.2538C67.9342 48.2862 67.9628 48.3266 67.9814 48.3718C67.9999 48.417 68.0079 48.4658 68.0047 48.5145C67.9038 49.5389 67.7136 50.5525 67.4363 51.5437C67.2558 52.0385 68.3257 54.2185 69.4424 55.9237C69.4743 55.9914 69.4805 56.0684 69.4597 56.1404C69.4388 56.2123 69.3925 56.2741 69.3293 56.3143C69.2662 56.3545 69.1905 56.3703 69.1165 56.3587C69.0425 56.3471 68.9753 56.3089 68.9275 56.2513C68.5196 55.6161 66.5135 52.3729 66.888 51.3297C67.1242 50.5307 67.2853 49.7113 67.3695 48.8823L65.2765 49.3838C65.2048 49.3988 65.1302 49.3882 65.0655 49.3541C65.0008 49.3199 64.9501 49.2642 64.9221 49.1966C64.8151 48.9291 62.3142 42.6434 62.0467 40.3766C62.0467 40.2027 61.9664 39.6678 61.0503 39.6678C59.5792 39.6678 57.4996 41.0051 57.3993 41.9346C57.212 43.8538 57.1853 48.1401 58.4892 50.5808C59.8266 53.1352 63.7184 59.3273 63.7585 59.3875C63.8007 59.4567 63.8139 59.5399 63.7951 59.6188C63.7763 59.6977 63.7271 59.7659 63.6582 59.8088C63.6033 59.846 63.537 59.8626 63.471 59.8556Z" fill="#231F20"/>
<path d="M143.334 59.7914C143.284 59.7918 143.235 59.7799 143.191 59.7569C143.147 59.7338 143.11 59.7003 143.082 59.6593C143.054 59.6183 143.037 59.571 143.032 59.5218C143.027 59.4725 143.034 59.4227 143.053 59.3769C144.27 56.1232 144.565 52.5968 143.907 49.1859C143.249 45.7751 141.662 42.612 139.321 40.045C139.081 39.7909 138.833 39.5368 138.579 39.2827C137.041 37.7313 135.303 35.9392 135.41 33.7058C135.445 33.2354 135.525 32.7696 135.65 32.3149C135.743 31.9407 135.813 31.5611 135.858 31.1781C136.078 28.7508 134.072 26.7313 132.354 25.4675C131.939 25.1599 131.504 24.8657 131.076 24.5647C129.465 23.4547 127.8 22.3113 126.797 20.5927C125.6 18.5866 125.459 16.2262 125.279 13.966C125.132 11.9599 124.985 9.84015 124.089 7.98787C123.248 6.23577 122.025 4.69452 120.51 3.47763C118.995 2.26074 117.226 1.39921 115.334 0.956485C113.442 0.513759 111.475 0.501114 109.577 0.919484C107.679 1.33785 105.899 2.17658 104.369 3.3739C102.791 4.55972 101.549 6.13605 100.765 7.94775C100.029 10.013 99.6518 12.1884 99.6479 14.3806C99.4138 18.9477 98.9792 23.3544 96.4783 27.0857C95.6969 28.1776 94.8412 29.2143 93.9172 30.1884C92.2054 32.0875 90.5737 33.8796 90.0722 36.2067C89.8196 37.4561 89.9169 38.7511 90.3535 39.9487C90.7901 41.1464 91.5489 42.2002 92.5464 42.9939C92.5785 43.0181 92.6053 43.0486 92.6254 43.0834C92.6456 43.1182 92.6585 43.1567 92.6635 43.1966C92.6685 43.2365 92.6654 43.277 92.6545 43.3157C92.6436 43.3544 92.625 43.3905 92.5999 43.4219C92.5498 43.4851 92.4769 43.5262 92.3968 43.5362C92.3168 43.5462 92.236 43.5243 92.1719 43.4754C91.089 42.6079 90.2663 41.4585 89.7944 40.1537C89.3225 38.8488 89.2196 37.4391 89.4972 36.0796C90.0388 33.5653 91.7908 31.6261 93.5093 29.7538C94.4124 28.7988 95.2481 27.7821 96.0102 26.7112C98.4442 23.1271 98.8521 18.814 99.0728 14.3404C99.0812 12.0765 99.477 9.83073 100.243 7.70034C101.06 5.791 102.357 4.12548 104.008 2.86569C105.609 1.61997 107.469 0.748283 109.451 0.314504C111.433 -0.119275 113.487 -0.104159 115.462 0.358745C117.437 0.821649 119.284 1.72061 120.867 2.98978C122.45 4.25894 123.729 5.86615 124.61 7.69365C125.56 9.64623 125.714 11.8061 125.861 13.8924C126.021 16.1793 126.175 18.3392 127.298 20.2517C128.234 21.8499 129.839 22.9599 131.391 24.0298C131.832 24.3307 132.267 24.6316 132.688 24.9392C134.534 26.2766 136.7 28.4833 136.439 31.1982C136.395 31.6113 136.319 32.0204 136.212 32.4219C136.101 32.8425 136.027 33.2721 135.991 33.7058C135.898 35.7118 137.469 37.2833 138.987 38.8213C139.241 39.082 139.495 39.3362 139.736 39.5903C142.194 42.2273 143.861 45.5017 144.548 49.0403C145.235 52.5789 144.914 56.2392 143.621 59.6042C143.597 59.6604 143.557 59.7083 143.506 59.7416C143.455 59.775 143.395 59.7923 143.334 59.7914Z" fill="#231F20"/>
<path d="M95.8557 40.8281L83.2709 68.3983L71.0205 54.6834L60.8096 59.498C60.8096 59.498 83.3579 93.5277 89.5633 90.4317C95.7688 87.3357 104.662 59.8658 104.662 59.8658L95.8557 40.8281Z" fill="#D23228"/>
<path d="M112.091 33.1684C112.091 33.1684 98.4501 34.6662 95.2404 41.2662C92.0307 47.8662 92.7596 78.4723 92.7596 78.4723L143.092 83.8686C143.092 83.8686 141.815 58.7057 139.441 47.5386C137.067 36.3714 129.812 29.0091 112.091 33.1684Z" fill="#D23228"/>
<path d="M108.054 36.4974L113.122 63.8001L120.13 33.8828L108.054 36.4974Z" fill="#231F20"/>
<path d="M113.122 64.11C113.055 64.1058 112.992 64.08 112.941 64.0366C112.89 63.9932 112.855 63.9345 112.841 63.8693L107.759 36.5465C107.747 36.4715 107.763 36.3946 107.805 36.3313C107.848 36.2681 107.912 36.2231 107.986 36.2055L120.069 33.5909C120.118 33.5822 120.168 33.5849 120.216 33.5989C120.263 33.6128 120.307 33.6375 120.344 33.6712C120.376 33.7082 120.4 33.7521 120.412 33.7997C120.425 33.8472 120.427 33.897 120.417 33.9453L113.409 63.8626C113.399 63.9317 113.365 63.9949 113.312 64.0405C113.259 64.086 113.191 64.1107 113.122 64.11ZM108.394 36.6937L113.155 62.3313L119.735 34.2462L108.394 36.6937Z" fill="#231F20"/>
<path d="M108.1 28.5492L108.053 36.5066C108.053 36.5066 108.855 40.9601 113.697 39.6027C115.125 39.1874 116.444 38.4596 117.556 37.4719C118.669 36.4842 119.548 35.2614 120.129 33.892L119.581 20.1103C119.581 19.5285 117.207 17.3218 117.301 12.2598C115.596 12.2459 113.912 11.8766 112.358 11.1754C110.804 10.4742 109.412 9.45659 108.274 8.1875C108.274 8.1875 106.267 11.2234 105.371 12.1997C104.666 12.9199 104.055 13.7265 103.553 14.6003C102.73 16.1316 102.764 18.044 102.804 19.7425C102.821 21.7627 103.023 23.777 103.405 25.7607C104.181 29.472 108.1 28.5492 108.1 28.5492Z" fill="white"/>
<path d="M111.978 40.1523C111.191 40.1691 110.415 39.9577 109.745 39.5438C108.714 38.8428 107.994 37.7688 107.739 36.5481L107.779 28.8983C106.725 29.0572 105.648 28.8545 104.723 28.3232C104.29 28.0328 103.921 27.656 103.64 27.2164C103.36 26.7769 103.173 26.284 103.092 25.7688C102.705 23.7856 102.501 21.771 102.483 19.7505C102.45 18.1123 102.403 16.0794 103.265 14.4545C103.783 13.5446 104.415 12.7042 105.144 11.9536C106 11.0241 108 8.02169 108.02 7.99494C108.046 7.95429 108.081 7.92075 108.123 7.89738C108.165 7.87402 108.212 7.86158 108.261 7.86121C108.308 7.85552 108.357 7.86313 108.4 7.88319C108.444 7.90325 108.481 7.93498 108.508 7.97488C109.624 9.20595 110.981 10.1944 112.494 10.8789C114.008 11.5633 115.647 11.9292 117.308 11.9536C117.348 11.9534 117.388 11.9616 117.425 11.9777C117.462 11.9938 117.495 12.0175 117.522 12.0472C117.551 12.0747 117.573 12.108 117.588 12.1449C117.603 12.1817 117.61 12.2214 117.609 12.2612C117.506 14.7143 118.16 17.1397 119.481 19.2089C119.679 19.4727 119.818 19.776 119.889 20.0983C119.889 20.0983 119.889 20.4059 120.437 33.88C120.444 33.9176 120.444 33.9561 120.437 33.9937C119.845 35.4128 118.941 36.6801 117.791 37.7012C116.642 38.7224 115.276 39.4711 113.797 39.8915C113.206 40.0629 112.594 40.1507 111.978 40.1523ZM108.354 36.4946C108.601 37.5199 109.211 38.4206 110.073 39.0289C110.61 39.324 111.204 39.5005 111.816 39.5467C112.427 39.5928 113.041 39.5075 113.617 39.2964C114.986 38.8923 116.251 38.1941 117.323 37.2505C118.395 36.3069 119.248 35.1406 119.822 33.8332C119.782 32.8168 119.281 20.2186 119.274 20.1116C119.189 19.9043 119.081 19.707 118.953 19.5232C117.629 17.4413 116.947 15.0155 116.994 12.5487C113.702 12.44 110.583 11.0509 108.301 8.67701C107.463 9.95826 106.559 11.1948 105.592 12.3816C104.909 13.0844 104.314 13.8681 103.82 14.7153C103.031 16.1998 103.071 18.0588 103.112 19.7037C103.128 21.699 103.325 23.6886 103.7 25.6484C103.765 26.0804 103.917 26.4946 104.146 26.866C104.376 27.2373 104.68 27.5579 105.037 27.8083C105.947 28.3003 107.002 28.4521 108.013 28.2362C108.057 28.2255 108.103 28.2254 108.147 28.2358C108.192 28.2463 108.233 28.2671 108.267 28.2964C108.304 28.3251 108.334 28.3616 108.354 28.4033C108.375 28.4449 108.387 28.4906 108.388 28.5372L108.334 36.4946H108.354Z" fill="#231F20"/>
<path d="M108.147 32.4497C108.147 32.4497 111.377 32.5968 113.456 30.4436C114.051 29.8955 114.519 29.2247 114.829 28.4776C115.138 27.7306 115.281 26.9251 115.249 26.1172C115.249 26.1172 111.758 28.4643 108.127 28.5445L108.147 32.4497Z" fill="#231F20"/>
<path d="M108.287 32.7567H108.133C108.058 32.7549 107.987 32.7238 107.934 32.6701C107.882 32.6164 107.852 32.5442 107.852 32.4691L107.806 28.5573C107.806 28.4804 107.836 28.4065 107.889 28.3516C107.943 28.2966 108.016 28.2648 108.093 28.263C111.59 28.1828 115.028 25.9092 115.061 25.8892C115.104 25.8645 115.152 25.8516 115.201 25.8516C115.251 25.8516 115.299 25.8645 115.342 25.8892C115.388 25.9092 115.428 25.9405 115.458 25.9803C115.489 26.0201 115.508 26.067 115.516 26.1165C115.516 26.2102 115.817 28.457 113.663 30.6837C112.204 32.0388 110.279 32.7809 108.287 32.7567ZM108.394 28.8314L108.434 32.1749C110.221 32.147 111.933 31.4586 113.242 30.2424C114.214 29.2948 114.814 28.0303 114.934 26.6782C112.944 27.8789 110.708 28.6149 108.394 28.8314Z" fill="#231F20"/>
<path d="M108.995 16.8516C108.995 16.8516 106.434 20.6497 107.043 21.3184C107.651 21.9871 109.356 21.5458 109.356 21.5458" fill="white"/>
<path d="M108.227 21.9881C107.974 22.009 107.719 21.9789 107.478 21.8997C107.236 21.8204 107.014 21.6936 106.822 21.5267C106.154 20.7979 107.745 18.1833 108.748 16.672C108.769 16.6382 108.796 16.6088 108.828 16.5858C108.861 16.5628 108.897 16.5465 108.936 16.5381C108.975 16.5296 109.015 16.529 109.054 16.5364C109.093 16.5438 109.13 16.5591 109.163 16.5812C109.196 16.6033 109.224 16.6319 109.246 16.6651C109.267 16.6984 109.282 16.7357 109.289 16.7748C109.296 16.8139 109.295 16.854 109.286 16.8927C109.277 16.9313 109.26 16.9677 109.236 16.9997C107.972 18.8921 107.05 20.8179 107.264 21.1255C107.658 21.5602 108.882 21.3662 109.27 21.2659C109.343 21.2521 109.419 21.2667 109.482 21.3067C109.545 21.3467 109.59 21.4091 109.609 21.4814C109.628 21.5536 109.618 21.6302 109.583 21.6958C109.547 21.7613 109.488 21.8108 109.417 21.8343C109.027 21.9308 108.628 21.9824 108.227 21.9881Z" fill="#231F20"/>
<path d="M106.269 23.4844C106.269 23.4844 108.562 26.8813 112.601 23.6114L106.269 23.4844Z" fill="white"/>
<path d="M109.229 25.333C109.039 25.3331 108.849 25.3197 108.661 25.2929C107.589 25.1158 106.628 24.5252 105.986 23.6479C105.943 23.5831 105.927 23.5038 105.942 23.4273C105.957 23.3509 106.002 23.2835 106.067 23.24C106.098 23.2176 106.134 23.2019 106.172 23.1938C106.21 23.1857 106.25 23.1854 106.288 23.1929C106.326 23.2004 106.362 23.2156 106.394 23.2374C106.426 23.2593 106.454 23.2875 106.474 23.3202C107.029 24.0508 107.838 24.5452 108.741 24.7044C109.865 24.8716 111.095 24.4236 112.379 23.367C112.409 23.3428 112.444 23.3247 112.481 23.314C112.518 23.3032 112.557 23.2999 112.596 23.3042C112.635 23.3086 112.672 23.3205 112.706 23.3393C112.74 23.3581 112.77 23.3834 112.794 23.4138C112.819 23.4433 112.838 23.4776 112.85 23.5147C112.862 23.5518 112.866 23.591 112.862 23.6297C112.859 23.6685 112.847 23.7061 112.828 23.7403C112.81 23.7744 112.784 23.8044 112.753 23.8284C111.786 24.7185 110.542 25.2496 109.229 25.333Z" fill="#231F20"/>
<path d="M98.7382 78.1006C98.6596 78.0954 98.5861 78.0596 98.5336 78.0009C98.4811 77.9421 98.4537 77.8651 98.4574 77.7863L100.356 46.1973C100.357 46.1586 100.366 46.1205 100.382 46.0854C100.398 46.0502 100.421 46.0188 100.45 45.9931C100.479 45.9673 100.513 45.9478 100.55 45.9358C100.587 45.9238 100.626 45.9195 100.664 45.9232C100.704 45.9239 100.743 45.9328 100.779 45.9493C100.814 45.9658 100.847 45.9895 100.873 46.019C100.899 46.0485 100.919 46.0832 100.932 46.1207C100.944 46.1583 100.949 46.198 100.945 46.2374L99.0458 77.8198C99.0441 77.8584 99.0348 77.8963 99.0184 77.9314C99.002 77.9664 98.9788 77.9979 98.9503 78.024C98.9217 78.0501 98.8883 78.0703 98.8519 78.0834C98.8155 78.0966 98.7769 78.1024 98.7382 78.1006Z" fill="#231F20"/>
<path d="M134.921 81.8168C135.155 82.4855 142.718 104.352 134.045 112.162C124.797 120.481 78.022 116.101 78.022 116.101L72.9132 100.34C72.3448 94.7427 72.0573 90.7974 82.9971 89.7743L98.3101 86.6381L98.7381 77.8047L134.921 81.8168Z" fill="#231F20"/>
<path d="M103.606 117.557H102.543C89.8375 117.503 78.0885 116.413 77.9749 116.406C77.9167 116.401 77.8615 116.378 77.8163 116.341C77.771 116.305 77.7378 116.255 77.7208 116.199L72.6186 100.445C72.311 97.5092 72.0302 94.7943 73.6618 92.8083C75.1463 90.9961 78.1019 89.9463 82.9499 89.4648L98.0089 86.3822L98.4235 77.7694C98.4258 77.7293 98.4366 77.6901 98.455 77.6544C98.4734 77.6187 98.4991 77.5873 98.5304 77.5621C98.5599 77.5352 98.595 77.5153 98.6332 77.5037C98.6714 77.4921 98.7117 77.4892 98.7511 77.4952L134.934 81.5074C134.99 81.5136 135.043 81.5357 135.087 81.5713C135.131 81.6069 135.164 81.6543 135.181 81.708L134.901 81.8016L135.195 81.7548C135.984 84.0885 142.657 104.771 134.225 112.361C130.434 115.818 120.123 117.557 103.606 117.557ZM78.2423 115.831C81.5256 116.126 125.098 119.844 133.851 111.953C141.875 104.731 135.643 84.9311 134.7 82.0958L99.0186 78.1639L98.6107 86.6831C98.6061 86.7488 98.5801 86.8113 98.5366 86.8608C98.4931 86.9103 98.4346 86.9442 98.37 86.9572L83.0569 90.0934C78.3426 90.5347 75.5141 91.5244 74.1366 93.2028C72.6588 94.9949 72.9262 97.5961 73.2071 100.344L78.2423 115.831Z" fill="#231F20"/>
<path d="M85.7859 101.867C85.7859 101.867 83.3585 90.1719 74.5318 92.8199C65.705 95.468 85.3445 138.96 85.3445 141.815C85.3445 144.67 77.8418 153.29 77.8418 153.29C79.9848 153.175 82.1207 152.952 84.2412 152.621C86.5615 152.18 92.9342 142.912 93.1816 141.922C93.429 140.932 88.7682 110.259 85.7859 101.867Z" fill="white"/>
<path d="M77.841 153.594C77.7836 153.594 77.7275 153.577 77.6791 153.546C77.6306 153.516 77.5917 153.472 77.5668 153.42C77.5411 153.366 77.5319 153.306 77.5402 153.246C77.5485 153.187 77.5741 153.131 77.6136 153.086C79.6799 150.712 85.0428 144.072 85.0428 141.812C85.0428 141.143 83.7656 137.766 82.1473 133.473C77.4665 121.036 69.6161 100.212 72.6118 94.1541C72.7851 93.7685 73.0379 93.4238 73.3536 93.1427C73.6694 92.8615 74.0409 92.6502 74.444 92.5225C75.4615 92.1701 76.543 92.0409 77.6149 92.1436C78.6868 92.2463 79.7241 92.5785 80.6562 93.1177C84.6683 95.5049 86.0057 101.323 86.0792 101.811C88.9412 109.882 93.7692 140.715 93.4817 142.012C93.2744 142.942 86.7947 152.471 84.3005 152.952C82.1668 153.285 80.0175 153.508 77.861 153.621L77.841 153.594ZM77.0252 92.7432C76.2086 92.7482 75.3974 92.8744 74.6179 93.1177C74.2932 93.2231 73.995 93.397 73.7435 93.6278C73.492 93.8585 73.293 94.1407 73.1601 94.4551C70.2781 100.273 78.3692 121.751 82.7224 133.286C84.6482 138.401 85.6513 141.103 85.6513 141.839C85.6513 144.386 80.2148 150.993 78.5431 152.966C79.8203 152.879 82.4951 152.671 84.1868 152.35C86.32 151.943 92.6725 142.828 92.8798 141.879C93.0871 140.929 88.5267 110.51 85.5242 101.998C85.5242 101.998 85.5242 101.998 85.5242 101.958C85.5242 101.918 84.2337 95.9396 80.3753 93.666C79.3663 93.0517 78.2064 92.7299 77.0252 92.7365V92.7432Z" fill="#231F20"/>
<path d="M77.4003 152.554C76.7844 152.619 76.196 152.842 75.6929 153.204C75.1899 153.565 74.7896 154.051 74.5316 154.614C73.7225 156.526 77.2064 157.629 80.4161 157.777C83.2241 157.885 86.0312 157.537 88.7279 156.747C89.8059 156.218 90.7588 155.466 91.5231 154.54C91.5231 154.54 91.5231 156.894 92.3322 156.82C93.4905 156.762 94.6447 156.639 95.7893 156.453C96.0835 156.305 94.8331 147.184 93.1814 141.922C93.1814 141.922 86.4945 151.377 84.3881 151.819C82.2817 152.26 77.4003 152.554 77.4003 152.554Z" fill="#231F20"/>
<path d="M81.3525 158.09C81.0382 158.09 80.7172 158.09 80.4029 158.09C78.1628 157.99 75.2339 157.381 74.3847 156.01C74.2438 155.79 74.1607 155.538 74.1431 155.278C74.1256 155.017 74.1742 154.756 74.2844 154.519C74.5598 153.904 74.9932 153.373 75.5406 152.979C76.0879 152.586 76.7296 152.344 77.4005 152.279C77.4473 152.279 82.2552 151.978 84.3415 151.55C85.9999 151.203 91.1221 144.375 92.9543 141.774C92.985 141.728 93.0286 141.692 93.0798 141.67C93.131 141.649 93.1874 141.643 93.2418 141.654C93.2958 141.661 93.3465 141.684 93.388 141.72C93.4294 141.755 93.4599 141.802 93.4759 141.854C94.3443 144.874 95.0232 147.945 95.5087 151.049C96.3914 156.472 96.0971 156.619 95.9233 156.706C94.9969 156.916 94.0512 157.031 93.1014 157.047L92.3591 157.107C92.2628 157.116 92.1657 157.104 92.0744 157.071C91.9832 157.039 91.9001 156.987 91.8309 156.92C91.472 156.438 91.2753 155.855 91.2692 155.255C90.5863 156.001 89.7579 156.599 88.8351 157.013C86.4064 157.734 83.8857 158.097 81.3525 158.09ZM77.4206 152.847C76.8585 152.905 76.3212 153.108 75.8624 153.438C75.4036 153.768 75.0394 154.212 74.806 154.727C74.7323 154.876 74.699 155.043 74.7096 155.209C74.7201 155.376 74.7741 155.537 74.8662 155.676C75.4613 156.619 77.7482 157.361 80.4297 157.482C83.1994 157.589 85.9682 157.246 88.6278 156.465C89.6582 155.957 90.5696 155.237 91.3026 154.352C91.3411 154.305 91.3932 154.271 91.4517 154.255C91.5102 154.239 91.5723 154.241 91.6294 154.262C91.6865 154.282 91.7359 154.32 91.7707 154.37C91.8056 154.419 91.8243 154.479 91.8242 154.539C91.8242 155.208 91.9512 156.238 92.2321 156.492C92.2424 156.503 92.2548 156.511 92.2687 156.517C92.2825 156.523 92.2974 156.526 92.3123 156.525L93.0613 156.465C93.73 156.412 95.1008 156.305 95.5488 156.218C95.6023 155.027 94.5257 147.491 93.0813 142.583C91.5835 144.669 86.3944 151.697 84.4552 152.105C82.1242 152.47 79.7764 152.718 77.4206 152.847Z" fill="#231F20"/>
<path d="M106.093 141.955C106.093 141.955 102.262 104.141 100.496 97.0794C98.7311 90.018 88.5804 87.8114 85.491 96.3439C82.4016 104.876 97.7013 138.425 96.5244 141.955C95.3475 145.486 90.9342 152.38 90.9342 152.38C90.9342 152.38 95.615 154.734 99.0253 152.38C102.436 150.026 106.093 141.955 106.093 141.955Z" fill="white"/>
<path d="M95.4151 153.76C93.8186 153.722 92.2473 153.353 90.8011 152.676C90.7629 152.656 90.729 152.629 90.7015 152.595C90.6739 152.562 90.6532 152.524 90.6406 152.482C90.6206 152.398 90.6351 152.309 90.6807 152.235C90.7208 152.168 95.0874 145.314 96.2376 141.857C96.6588 140.593 94.5123 134.321 92.2254 127.687C88.2132 116.052 83.2649 101.608 85.1974 96.2588C86.5348 92.494 89.4838 90.3475 93.0078 90.5348C94.8257 90.6496 96.5599 91.3401 97.9593 92.5062C99.3587 93.6723 100.351 95.2536 100.791 97.0211C102.543 104.022 106.348 141.563 106.388 141.937C106.401 141.99 106.401 142.045 106.388 142.098C106.234 142.432 102.637 150.289 99.2199 152.663C98.0971 153.417 96.7667 153.8 95.4151 153.76ZM91.4029 152.268C92.4862 152.723 96.164 154.034 98.8722 152.148C101.982 149.988 105.419 142.719 105.8 141.904C105.599 139.898 101.921 103.955 100.223 97.1548C99.8134 95.5152 98.893 94.0484 97.5947 92.9665C96.2964 91.8846 94.6876 91.2437 93.0011 91.1366C89.778 90.9627 87.0698 92.9621 85.7993 96.4861C83.9403 101.615 89.0759 116.587 92.8272 127.52C95.7026 135.885 97.3008 140.693 96.8394 142.084C95.7695 145.2 92.2521 150.884 91.3828 152.268H91.4029Z" fill="#231F20"/>
<path d="M90.9343 152.384C89.5927 153.009 88.3725 153.867 87.3301 154.918C86.1197 156.356 85.0164 157.018 86.6614 158.121C88.3064 159.224 98.6978 158.449 100.122 158.007C101.546 157.566 103.987 154.149 103.987 154.149C103.987 154.149 103.874 158.007 104.315 158.121C105.294 158.081 106.268 157.951 107.224 157.733C107.555 152.46 107.184 147.167 106.12 141.992C106.12 141.992 102.543 150.083 98.0358 151.715C93.5288 153.347 90.9343 152.384 90.9343 152.384Z" fill="#231F20"/>
<path d="M91.3823 158.991C89.1422 158.991 87.1896 158.831 86.5076 158.383C86.2688 158.263 86.059 158.093 85.8927 157.884C85.7264 157.675 85.6076 157.432 85.5446 157.172C85.4711 156.557 85.9459 156.029 86.5544 155.367L87.1094 154.745C88.1741 153.654 89.4297 152.768 90.8139 152.13C90.8868 152.101 90.9684 152.101 91.0413 152.13C91.0413 152.13 93.589 153.053 97.9355 151.462C102.282 149.87 105.786 141.919 105.819 141.839C105.845 141.783 105.888 141.736 105.942 141.704C105.996 141.673 106.058 141.66 106.12 141.665C106.183 141.672 106.241 141.699 106.288 141.74C106.335 141.782 106.367 141.838 106.381 141.899C107.443 147.104 107.814 152.426 107.484 157.727C107.481 157.79 107.457 157.85 107.416 157.897C107.374 157.944 107.319 157.976 107.257 157.988C106.276 158.248 105.269 158.396 104.255 158.429C104.054 158.376 103.653 158.276 103.68 155.086C102.864 156.143 101.312 157.981 100.216 158.322C97.2956 158.796 94.3404 159.02 91.3823 158.991ZM90.9544 152.712C89.6887 153.311 88.5388 154.128 87.5574 155.126C87.3635 155.353 87.1696 155.567 86.9957 155.761C86.4875 156.316 86.0863 156.751 86.1331 157.099C86.1331 157.333 86.3872 157.594 86.8018 157.888C88.2863 158.877 98.4036 158.236 100.008 157.741C101.112 157.406 103.058 154.919 103.72 153.989C103.756 153.937 103.809 153.898 103.869 153.879C103.929 153.859 103.995 153.859 104.055 153.879C104.115 153.9 104.167 153.939 104.203 153.991C104.239 154.044 104.257 154.106 104.255 154.17C104.177 155.401 104.238 156.637 104.435 157.854C105.26 157.782 106.078 157.648 106.883 157.453C107.159 152.58 106.843 147.692 105.94 142.896C104.903 145.036 101.874 150.632 98.1027 152.01C94.0638 153.501 91.5361 152.893 90.9544 152.712Z" fill="#231F20"/>
<path d="M136.9 97.9095C137.362 98.5782 138.833 113.042 138.833 113.042C138.833 113.042 155.229 114.526 155.463 113.376C155.697 112.226 147.105 109.304 147.105 109.304L144.43 97.8359" fill="white"/>
<path d="M152.154 114.129C150.923 114.129 149.272 114.082 147.045 113.955C142.959 113.734 138.847 113.367 138.807 113.36C138.735 113.354 138.668 113.323 138.617 113.273C138.566 113.223 138.533 113.157 138.526 113.086C137.971 107.622 136.968 98.7088 136.64 98.0803C136.618 98.047 136.602 98.0097 136.595 97.9704C136.587 97.931 136.587 97.8906 136.595 97.8513C136.603 97.8121 136.619 97.7749 136.642 97.7418C136.664 97.7088 136.693 97.6806 136.727 97.659C136.797 97.6158 136.88 97.6015 136.96 97.6189C137.04 97.6364 137.11 97.6844 137.155 97.7526C137.61 98.4213 138.733 109.12 139.108 112.771C146.403 113.44 154.213 113.781 155.156 113.28C154.869 112.611 150.763 110.872 147.012 109.602C146.963 109.586 146.92 109.559 146.886 109.521C146.852 109.483 146.828 109.437 146.818 109.388L144.143 97.9131C144.125 97.8342 144.139 97.7514 144.181 97.6825C144.224 97.6137 144.292 97.5644 144.37 97.5453C144.45 97.5292 144.533 97.5446 144.601 97.5882C144.67 97.6318 144.719 97.7004 144.738 97.7794L147.413 109.08C150.756 110.21 156.052 112.23 155.812 113.44C155.705 113.734 155.624 114.129 152.154 114.129Z" fill="#231F20"/>
<path d="M138.98 46.7344L150.167 101.266L134.741 101.667C134.741 101.667 129.391 72.7933 129.063 68.4602C128.736 64.1271 138.98 46.7344 138.98 46.7344Z" fill="#D23228"/>
<path d="M104.783 19.6162C106.707 19.6162 108.267 18.0564 108.267 16.1323C108.267 14.2082 106.707 12.6484 104.783 12.6484C102.859 12.6484 101.299 14.2082 101.299 16.1323C101.299 18.0564 102.859 19.6162 104.783 19.6162Z" fill="white"/>
<path d="M104.79 19.9263H104.636C103.888 19.8979 103.165 19.6484 102.559 19.2092C101.952 18.77 101.49 18.1609 101.23 17.4589C100.97 16.757 100.924 15.9936 101.098 15.2654C101.271 14.5373 101.657 13.877 102.206 13.3682C102.755 12.8593 103.443 12.5247 104.182 12.4067C104.922 12.2887 105.679 12.3925 106.359 12.7052C107.04 13.0178 107.612 13.5251 108.004 14.1629C108.396 14.8008 108.59 15.5405 108.561 16.2886C108.521 17.2649 108.106 18.1883 107.402 18.8661C106.698 19.5438 105.76 19.9236 104.783 19.9263H104.79ZM104.79 12.9585C103.882 12.9752 103.018 13.3497 102.385 14.0005C101.752 14.6512 101.401 15.5256 101.409 16.4334C101.418 17.3412 101.784 18.209 102.429 18.848C103.074 19.487 103.945 19.8454 104.853 19.8454C105.761 19.8454 106.632 19.487 107.277 18.848C107.922 18.209 108.288 17.3412 108.297 16.4334C108.305 15.5256 107.955 14.6512 107.322 14.0005C106.689 13.3497 105.824 12.9752 104.917 12.9585H104.79Z" fill="#231F20"/>
<path d="M112.459 19.9287C114.384 19.9287 115.943 18.3689 115.943 16.4448C115.943 14.5207 114.384 12.9609 112.459 12.9609C110.535 12.9609 108.976 14.5207 108.976 16.4448C108.976 18.3689 110.535 19.9287 112.459 19.9287Z" fill="white"/>
<path d="M112.46 20.2263H112.306C111.56 20.1906 110.841 19.9355 110.238 19.493C109.636 19.0505 109.178 18.4402 108.921 17.7386C108.664 17.0369 108.62 16.275 108.794 15.5483C108.968 14.8216 109.352 14.1623 109.899 13.653C110.45 13.1448 111.139 12.8113 111.88 12.6947C112.62 12.578 113.378 12.6834 114.059 12.9975C114.739 13.3117 115.311 13.8204 115.703 14.4596C116.094 15.0988 116.288 15.8396 116.258 16.5886C116.22 17.5666 115.805 18.4919 115.099 19.1702C114.393 19.8485 113.452 20.227 112.473 20.2263H112.46ZM112.46 13.2585C112.043 13.2506 111.628 13.3249 111.24 13.4772C110.852 13.6296 110.497 13.8569 110.196 14.1462C109.59 14.7306 109.24 15.5322 109.224 16.3746C109.208 17.217 109.527 18.0312 110.111 18.6382C110.696 19.2451 111.497 19.5951 112.34 19.6111C112.757 19.6317 113.174 19.5677 113.566 19.4229C113.958 19.2781 114.316 19.0555 114.62 18.7685C114.927 18.4863 115.175 18.1459 115.35 17.7671C115.524 17.3883 115.621 16.9786 115.636 16.5618C115.662 15.7233 115.353 14.909 114.779 14.2974C114.205 13.6857 113.412 13.3265 112.574 13.2986L112.46 13.2585Z" fill="#231F20"/>
<path d="M87.8979 73.7919C87.856 73.7923 87.8146 73.7835 87.7765 73.7662C87.7384 73.7488 87.7045 73.7234 87.6772 73.6916L72.7921 56.533C72.7661 56.5034 72.7463 56.4689 72.7338 56.4315C72.7214 56.3941 72.7166 56.3546 72.7197 56.3153C72.7228 56.276 72.7338 56.2377 72.752 56.2027C72.7702 56.1678 72.7952 56.1368 72.8256 56.1117C72.8524 56.0838 72.8846 56.0616 72.9202 56.0464C72.9559 56.0313 72.9942 56.0234 73.0329 56.0234C73.0716 56.0234 73.1099 56.0313 73.1455 56.0464C73.1812 56.0616 73.2133 56.0838 73.2402 56.1117L88.1253 73.2703C88.1511 73.2994 88.1708 73.3333 88.1832 73.3702C88.1956 73.4071 88.2003 73.446 88.1972 73.4848C88.1941 73.5235 88.1831 73.5613 88.165 73.5957C88.1469 73.6301 88.122 73.6604 88.0918 73.6849C88.0687 73.7153 88.0395 73.7405 88.0061 73.7589C87.9728 73.7773 87.9359 73.7886 87.8979 73.7919Z" fill="#231F20"/>
<path d="M60.3291 23.1664L74.4452 17.75L75.7157 24.2229L61.4926 28.7901L60.3291 23.1664Z" fill="#E6E7E8"/>
<path d="M105.089 15.7597C105.107 15.3058 104.924 14.9301 104.68 14.9205C104.437 14.9109 104.225 15.2711 104.207 15.725C104.189 16.1789 104.372 16.5546 104.616 16.5642C104.859 16.5738 105.071 16.2136 105.089 15.7597Z" fill="#231F20"/>
<path d="M112.954 16.2362C112.972 15.7823 112.789 15.4066 112.546 15.397C112.302 15.3875 112.09 15.7477 112.072 16.2016C112.054 16.6555 112.237 17.0312 112.481 17.0408C112.725 17.0503 112.936 16.6901 112.954 16.2362Z" fill="#231F20"/>
<path d="M122.891 19.2511C122.815 19.2497 122.742 19.2203 122.687 19.1684C122.631 19.1165 122.597 19.0459 122.59 18.9702C122.436 17.138 117.762 17.0845 115.97 17.2183C115.93 17.2219 115.89 17.2175 115.851 17.2053C115.813 17.193 115.778 17.1732 115.747 17.1471C115.717 17.1209 115.692 17.0888 115.674 17.0528C115.656 17.0168 115.645 16.9776 115.643 16.9374C115.644 16.8625 115.672 16.7905 115.723 16.7351C115.773 16.6797 115.842 16.6446 115.917 16.6365C116.639 16.583 122.958 16.1818 123.192 18.9435C123.196 18.9839 123.191 19.0247 123.179 19.0634C123.167 19.1021 123.147 19.138 123.121 19.1691C123.095 19.2002 123.063 19.2258 123.027 19.2445C122.991 19.2631 122.952 19.2745 122.911 19.2778L122.891 19.2511Z" fill="#231F20"/>
<path d="M116.739 19.4272C116.864 18.8365 117.176 18.3017 117.629 17.9026C118.068 17.5542 118.563 17.2829 119.093 17.1002C119.373 16.9742 119.676 16.9082 119.982 16.9062C120.198 16.9332 120.407 17.0013 120.598 17.1069C121.065 17.317 121.442 17.6869 121.661 18.15C121.791 18.5395 121.826 18.9547 121.761 19.3604C121.725 19.8054 121.631 20.2438 121.48 20.6643C121.323 21.0835 121.083 21.4668 120.775 21.7916C120.467 22.1164 120.097 22.376 119.686 22.555C119.276 22.734 118.834 22.8287 118.386 22.8336C117.939 22.8385 117.494 22.7534 117.08 22.5834" fill="white"/>
<path d="M118.331 23.0878C117.873 23.0862 117.419 22.9977 116.994 22.827C116.959 22.8154 116.927 22.7968 116.9 22.7724C116.873 22.748 116.851 22.7183 116.836 22.6851C116.82 22.652 116.812 22.616 116.811 22.5795C116.81 22.543 116.817 22.5067 116.831 22.4729C116.844 22.4391 116.865 22.4084 116.891 22.3828C116.917 22.3572 116.948 22.3372 116.982 22.324C117.016 22.3108 117.052 22.3047 117.089 22.3061C117.125 22.3075 117.161 22.3164 117.194 22.3321C117.577 22.4886 117.987 22.5669 118.401 22.5625C118.814 22.5582 119.223 22.4712 119.602 22.3067C119.981 22.1423 120.324 21.9036 120.61 21.6048C120.896 21.306 121.119 20.9531 121.266 20.5668C121.409 20.1683 121.497 19.752 121.527 19.3297C121.589 18.9652 121.561 18.5913 121.447 18.2398C121.25 17.8402 120.919 17.5229 120.511 17.3437C120.352 17.2529 120.177 17.1939 119.996 17.1698C119.73 17.1713 119.468 17.2306 119.227 17.3437C118.725 17.5179 118.255 17.7732 117.836 18.0993C117.427 18.4599 117.146 18.9431 117.034 19.4768C117.018 19.545 116.976 19.6044 116.918 19.643C116.859 19.6815 116.788 19.6962 116.719 19.6841C116.65 19.6696 116.59 19.6285 116.551 19.5696C116.512 19.5108 116.498 19.439 116.512 19.3698C116.648 18.7215 116.99 18.1348 117.488 17.6981C117.949 17.3293 118.469 17.0421 119.026 16.8489C119.345 16.7024 119.692 16.6314 120.043 16.6416C120.292 16.6684 120.533 16.7458 120.752 16.8689C121.276 17.1045 121.697 17.5228 121.935 18.0458C122.084 18.4751 122.123 18.9349 122.049 19.3832C122.014 19.8537 121.915 20.3172 121.755 20.7607C121.396 21.6574 120.699 22.3776 119.815 22.7668C119.349 22.9767 118.843 23.086 118.331 23.0878Z" fill="#231F20"/>
<path d="M134.52 100.65C134.448 100.65 134.378 100.624 134.323 100.578C134.268 100.531 134.231 100.467 134.219 100.396L125.138 44.9548C125.131 44.9157 125.133 44.8757 125.141 44.837C125.15 44.7983 125.167 44.7618 125.19 44.7295C125.213 44.6972 125.242 44.6697 125.275 44.6487C125.309 44.6277 125.346 44.6136 125.386 44.6071C125.425 44.5994 125.466 44.5997 125.505 44.6081C125.545 44.6165 125.582 44.6327 125.615 44.6557C125.648 44.6788 125.676 44.7083 125.698 44.7424C125.719 44.7766 125.734 44.8147 125.74 44.8545L134.821 100.296C134.827 100.335 134.826 100.376 134.817 100.415C134.808 100.454 134.791 100.491 134.767 100.523C134.743 100.556 134.713 100.583 134.679 100.604C134.645 100.624 134.606 100.638 134.567 100.643L134.52 100.65Z" fill="#231F20"/>
<path d="M107.097 87.3595C107.053 87.3683 107.008 87.3683 106.964 87.3595C103.466 85.7948 98.4445 86.9917 98.391 86.9984C98.3489 87.0094 98.3049 87.0118 98.2618 87.0056C98.2187 86.9994 98.1772 86.9847 98.1399 86.9623C98.1025 86.9399 98.07 86.9102 98.0442 86.8751C98.0185 86.84 98 86.8001 97.9898 86.7577C97.9789 86.7146 97.9766 86.6698 97.9831 86.6259C97.9897 86.582 98.0049 86.5398 98.028 86.5018C98.051 86.4639 98.0814 86.4309 98.1173 86.4047C98.1532 86.3786 98.194 86.36 98.2372 86.3498C98.4512 86.2963 103.533 85.0859 107.238 86.751C107.318 86.7875 107.381 86.8544 107.413 86.9371C107.444 87.0198 107.441 87.1116 107.405 87.1923C107.374 87.2454 107.328 87.289 107.274 87.3184C107.22 87.3478 107.159 87.362 107.097 87.3595Z" fill="white"/>
<path d="M126.428 76.5387C126.373 76.5397 126.32 76.5233 126.274 76.4919L118.745 72.0985C118.676 72.058 118.625 71.9919 118.604 71.9144C118.582 71.8369 118.592 71.7542 118.631 71.684C118.673 71.6142 118.74 71.5633 118.819 71.5421C118.898 71.5209 118.981 71.531 119.053 71.5703L126.616 75.9636C126.685 76.0054 126.736 76.0727 126.757 76.1513C126.779 76.2299 126.768 76.3136 126.729 76.3849C126.698 76.4359 126.654 76.4774 126.601 76.5046C126.547 76.5317 126.488 76.5436 126.428 76.5387Z" fill="#231F20"/>
<path d="M101.954 73.8943C101.908 73.8956 101.862 73.886 101.82 73.8663C101.778 73.8465 101.741 73.8172 101.713 73.7807C101.688 73.7497 101.669 73.7139 101.657 73.6755C101.646 73.637 101.642 73.5967 101.646 73.5568C101.651 73.5169 101.663 73.4784 101.682 73.4433C101.702 73.4082 101.728 73.3774 101.76 73.3527L106.28 69.715C106.31 69.6827 106.347 69.6573 106.388 69.6405C106.429 69.6236 106.472 69.6158 106.517 69.6174C106.561 69.619 106.604 69.6301 106.643 69.6499C106.683 69.6697 106.717 69.6978 106.745 69.7322C106.773 69.7666 106.793 69.8066 106.803 69.8493C106.814 69.8921 106.816 69.9367 106.808 69.9801C106.8 70.0235 106.783 70.0647 106.757 70.1009C106.732 70.1371 106.699 70.1674 106.661 70.1898L102.141 73.8275C102.089 73.8718 102.022 73.8956 101.954 73.8943Z" fill="#231F20"/>
<path d="M46.8415 135.506C48.2706 134.226 49.8876 133.173 51.636 132.383C51.7831 137.512 49.7035 142.226 47.7777 145.456H41.5254" fill="white"/>
<path d="M47.7777 145.809H41.5255C41.4798 145.809 41.4346 145.8 41.3924 145.783C41.3502 145.765 41.3119 145.74 41.2796 145.708C41.2473 145.675 41.2217 145.637 41.2042 145.595C41.1867 145.553 41.1777 145.507 41.1777 145.462C41.1777 145.416 41.1867 145.371 41.2042 145.329C41.2217 145.286 41.2473 145.248 41.2796 145.216C41.3119 145.183 41.3502 145.158 41.3924 145.14C41.4346 145.123 41.4798 145.114 41.5255 145.114H47.5838C49.3157 142.165 51.295 137.758 51.3017 132.924C49.7715 133.683 48.3482 134.64 47.0689 135.772C47.005 135.836 46.9184 135.872 46.8282 135.872C46.7379 135.872 46.6514 135.836 46.5875 135.772C46.5233 135.707 46.4874 135.62 46.4874 135.528C46.4874 135.437 46.5233 135.349 46.5875 135.284C48.0427 133.972 49.6942 132.896 51.4823 132.094C51.5338 132.074 51.5893 132.067 51.6444 132.072C51.6994 132.078 51.7523 132.096 51.7988 132.126C51.8452 132.156 51.8838 132.197 51.9113 132.245C51.9388 132.293 51.9545 132.347 51.9571 132.402C52.1042 137.691 49.9109 142.533 48.0452 145.662C48.0151 145.706 47.9753 145.742 47.9288 145.767C47.8824 145.793 47.8307 145.807 47.7777 145.809Z" fill="#231F20"/>
<path d="M37.8799 136.887C39.4179 128.862 45.6969 123.82 45.6969 123.82C46.8688 127.596 47.2579 131.571 46.8404 135.502C46.5147 138.893 45.7897 142.232 44.6805 145.452H37.9468" fill="white"/>
<path d="M44.6809 145.808H37.9471C37.9018 145.808 37.8569 145.799 37.8151 145.781C37.7733 145.764 37.7354 145.738 37.7036 145.706C37.6719 145.673 37.6469 145.635 37.6301 145.593C37.6134 145.551 37.6052 145.505 37.6061 145.46C37.6061 145.369 37.6418 145.282 37.7056 145.217C37.7694 145.152 37.8561 145.114 37.9471 145.112H44.4335C45.4886 141.992 46.1819 138.761 46.4997 135.483C46.8914 131.773 46.5622 128.022 45.5301 124.436C44.1526 125.68 39.5119 130.308 38.2146 136.954C38.2089 137.001 38.1937 137.045 38.17 137.085C38.1464 137.126 38.1147 137.161 38.077 137.188C38.0394 137.215 37.9964 137.235 37.951 137.245C37.9055 137.255 37.8583 137.256 37.8125 137.247C37.7667 137.239 37.7232 137.221 37.6846 137.195C37.646 137.168 37.6132 137.134 37.5882 137.095C37.5633 137.056 37.5466 137.012 37.5393 136.966C37.5321 136.92 37.5343 136.872 37.5459 136.827C39.0906 128.803 45.4298 123.614 45.49 123.56C45.5332 123.525 45.5846 123.501 45.6395 123.49C45.6944 123.48 45.751 123.483 45.8043 123.5C45.8572 123.516 45.9055 123.544 45.9451 123.583C45.9847 123.621 46.0144 123.669 46.0316 123.721C47.223 127.541 47.619 131.564 47.1952 135.543C46.8651 138.962 46.1311 142.328 45.0085 145.574C44.9868 145.643 44.943 145.703 44.8839 145.746C44.8248 145.788 44.7535 145.81 44.6809 145.808Z" fill="#231F20"/>
<path d="M34.5575 145.453H40.5156C40.5691 143.688 40.1678 141.019 38.2554 137.556C38.1283 137.322 38.0013 137.101 37.8742 136.887C34.4238 131.043 31.2675 131.109 31.2675 131.109C29.9368 137.255 32.752 142.738 34.5575 145.453Z" fill="white"/>
<path d="M40.5148 145.812H34.5567C34.4998 145.813 34.4436 145.799 34.3934 145.772C34.3432 145.745 34.3005 145.706 34.2692 145.659C32.437 142.897 29.5883 137.327 30.9257 131.048C30.9398 130.971 30.9802 130.901 31.0401 130.851C31.0999 130.801 31.1754 130.774 31.2534 130.773C31.4072 130.773 34.6503 130.773 38.1677 136.725C38.2947 136.945 38.4218 137.166 38.5488 137.393C40.5549 141.018 40.9026 143.786 40.8491 145.471C40.8475 145.56 40.8119 145.645 40.7497 145.708C40.6876 145.772 40.6035 145.809 40.5148 145.812ZM34.744 145.144H40.1737C40.1737 143.519 39.7525 141.004 37.9537 137.788L37.5792 137.119C34.8443 132.492 32.3434 131.683 31.561 131.542C30.4108 137.287 32.9987 142.449 34.744 145.124V145.144Z" fill="#231F20"/>
<path d="M35.6407 154.911H47.3228L49.2085 145.469H33.7617L35.6407 154.911Z" fill="#231F20"/>
</svg>
